<svg width="222" height="34" viewBox="0 0 222 34" fill="none" xmlns="http://www.w3.org/2000/svg">
<path d="M12.1535 4.22118C12.524 4.22118 12.6722 4.14707 12.5981 3.99886C12.4499 3.99886 12.3017 3.99885 12.2276 3.92475C12.1535 3.85064 12.0053 3.92475 11.8571 3.99886C11.7088 4.14707 11.783 4.22118 12.1535 4.22118ZM12.8204 3.99886C13.6356 3.99886 14.0803 3.92475 14.0061 3.70243H12.8204V3.99886ZM14.599 4.07296C15.0436 4.07296 15.1919 3.99886 15.0436 3.85064H14.2285C14.0062 3.99886 14.1544 4.07296 14.599 4.07296ZM17.6374 3.62833C17.4151 3.62833 17.1186 3.62832 16.7481 3.70243C16.3776 3.77654 16.3035 3.85064 16.5999 3.92475C16.674 3.77653 16.8963 3.77654 17.3409 3.85064C17.7856 3.92475 17.8597 3.85065 17.6374 3.62833ZM19.2677 3.25779C19.7124 3.18369 19.9347 3.18368 19.8606 3.18368C19.7865 3.18368 20.0829 3.25779 20.6757 3.25779V3.03547L19.2677 2.96137V3.25779ZM160.737 3.55421H160.367V3.77654H160.737V3.55421ZM160.144 3.3319H159.7V3.406H160.144V3.3319ZM159.7 3.55421H159.255V3.77654H159.7V3.55421ZM155.402 3.25779H155.031V3.406H155.402V3.25779ZM154.809 3.25779H154.142V3.406H154.809V3.25779ZM152.734 3.25779H152.289V3.406H152.734V3.25779ZM221.06 15.1148C220.912 14.7443 220.764 14.4479 220.467 14.1515C220.615 14.0774 220.764 14.0774 220.986 14.0774C220.838 13.7068 220.689 13.4104 220.393 13.114C220.541 13.0399 220.689 13.0399 220.912 13.0399C220.764 12.6693 220.541 12.2988 220.245 11.9283C220.171 11.8542 220.097 11.78 220.023 11.7059C220.097 11.6318 220.171 11.5577 220.245 11.5577C220.097 11.4836 219.948 11.3354 219.948 11.1872C220.171 11.1872 220.319 11.1872 220.393 11.1131C220.541 10.9649 220.689 10.9649 221.06 10.9649C220.912 10.5943 220.764 10.2979 220.467 10.0015C220.615 9.92739 220.764 9.92739 220.986 9.92739C220.838 9.55685 220.615 9.18632 220.319 8.81579C220.245 8.74168 220.171 8.66757 220.097 8.59347C220.171 8.51936 220.245 8.44525 220.319 8.44525C220.097 8.29704 220.023 8.14882 219.948 8.00061C219.948 7.9265 219.948 7.8524 219.948 7.77829V7.70419C220.023 7.40776 219.874 7.11134 219.504 6.96312C219.948 7.03723 220.245 7.03722 220.393 6.88901C220.541 6.7408 220.689 6.7408 221.06 6.7408C220.912 6.37027 220.689 5.99973 220.393 5.6292C220.097 5.33278 219.948 4.96224 220.097 4.5176C219.874 4.4435 219.652 4.36939 219.43 4.36939C219.207 4.36939 219.059 4.29528 218.911 4.22118C218.763 3.92475 218.911 3.70243 219.356 3.62833C218.244 3.48011 217.503 3.18368 216.91 2.81315C216.391 2.44262 215.798 2.2944 215.057 2.44262C213.723 2.59083 212.093 2.51673 210.166 2.14619C208.24 1.84977 206.461 1.62744 204.905 1.62744C204.905 1.77566 204.831 1.92387 204.757 2.14619C204.682 2.29441 204.386 2.36851 203.941 2.2203C204.016 2.14619 204.164 2.07208 204.386 2.07208C204.608 2.07208 204.608 1.99798 204.46 1.84977C204.09 1.99798 203.941 1.99798 204.015 1.84977C204.09 1.70155 204.016 1.62744 203.793 1.62744C203.793 1.99798 203.645 2.07209 203.274 1.77566C202.904 1.47923 202.533 1.47923 202.163 1.70155H203.052C203.126 1.84976 203.349 1.99798 203.719 2.2203C202.904 2.14619 201.792 2.07208 200.458 2.07208C199.124 2.07208 198.087 2.14619 197.272 2.2203C197.346 2.07209 197.346 1.92387 197.198 1.84977C197.049 1.77566 196.975 1.62745 197.124 1.47923C196.827 1.55334 196.605 1.55334 196.531 1.47923C196.457 1.40513 196.234 1.33102 195.938 1.33102C196.086 1.47923 196.308 1.62744 196.531 1.70155C196.753 1.77566 196.827 1.92387 196.605 2.2203C196.234 2.07209 195.716 1.99798 194.975 2.14619C194.308 2.29441 193.937 2.14619 193.937 1.84977C193.566 1.77566 193.418 1.77566 193.492 1.99798C193.641 2.14619 193.492 2.2203 193.196 2.14619C192.825 2.2203 192.529 2.14619 192.381 1.92387C192.233 1.70155 192.01 1.70155 191.714 1.84977C191.936 1.92387 192.158 1.99798 192.381 2.07208C192.603 2.14619 192.9 2.2203 193.196 2.2203V2.44262C192.677 2.2203 191.862 2.14619 190.973 2.14619C190.528 1.99798 190.009 1.92387 189.491 1.99798C189.194 1.99798 188.898 1.99798 188.527 1.99798C188.453 1.99798 188.379 1.99798 188.305 1.92387C188.305 1.92387 188.305 1.92387 188.305 1.99798C187.786 1.99798 187.267 1.99798 186.675 1.92387C186.526 1.92387 186.378 1.92387 186.23 1.92387V1.70155H185.859V1.92387C185.637 1.92387 185.415 1.84977 185.192 1.84977V1.55334H184.748V1.62744C184.674 1.62744 184.6 1.62744 184.525 1.62744C182.599 1.33102 180.82 1.18281 179.264 1.1087C179.264 1.25691 179.19 1.40513 179.116 1.47923C179.042 1.62745 178.745 1.62745 178.301 1.55334C178.375 1.47923 178.523 1.47923 178.671 1.47923C178.893 1.47923 178.893 1.40513 178.745 1.25691C178.375 1.40513 178.226 1.40513 178.301 1.25691C178.375 1.1087 178.301 1.0346 178.078 1.0346C178.078 1.40513 177.856 1.40513 177.559 1.18281C177.189 0.960487 176.892 0.886381 176.448 1.1087H177.337C177.411 1.25691 177.634 1.40513 178.004 1.55334C177.189 1.47923 176.077 1.40513 174.743 1.40513C173.409 1.40513 172.298 1.40513 171.557 1.47923C171.631 1.33102 171.631 1.25691 171.483 1.18281C171.334 1.1087 171.26 1.03459 171.409 0.886379C171.112 0.960485 170.89 0.960485 170.816 0.886379C170.742 0.812272 170.519 0.812275 170.223 0.738168C170.371 0.886381 170.593 0.960489 170.816 1.0346C171.038 1.1087 171.112 1.25692 170.89 1.40513C170.519 1.25692 170.001 1.25691 169.259 1.33102C168.593 1.40512 168.222 1.33102 168.222 1.0346C167.851 0.960489 167.703 0.960488 167.777 1.1087C167.926 1.25691 167.777 1.25691 167.481 1.18281C167.11 1.25691 166.814 1.18281 166.666 1.0346C166.518 0.886382 166.295 0.812271 165.999 0.960484C166.221 1.03459 166.443 1.1087 166.666 1.18281C166.888 1.25691 167.185 1.33102 167.481 1.33102V1.55334C166.888 1.33102 165.999 1.25691 164.961 1.25691C163.85 1.25691 163.109 1.25691 162.664 1.1087C162.738 1.25691 162.59 1.33102 162.293 1.25691C161.997 1.18281 161.775 1.25692 161.701 1.40513C160.811 1.18281 159.403 1.1087 157.625 1.25691C157.551 1.18281 157.402 1.1087 157.18 0.960484C156.958 0.812271 156.735 0.812271 156.587 0.960484C156.439 1.1087 155.994 1.18281 155.402 1.18281C154.735 1.18281 153.994 1.18281 153.178 1.18281C152.363 1.18281 151.474 1.18281 150.659 1.18281C149.844 1.18281 149.177 1.25692 148.806 1.40513C149.399 1.33102 150.066 1.33102 150.807 1.40513C151.548 1.47923 151.993 1.40513 152.141 1.25691C153.475 1.40513 154.66 1.55334 155.846 1.62744C157.032 1.70155 157.921 1.62745 158.588 1.47923C158.885 1.62745 159.329 1.70155 159.996 1.77566C160.663 1.84977 161.33 1.84977 161.997 1.84977C162.664 1.84977 163.331 1.92387 163.998 1.92387C164.591 1.92387 165.035 1.92387 165.258 1.92387C165.628 2.07209 166.295 2.14619 167.185 2.14619C168.074 2.14619 168.815 2.2203 169.334 2.36851C167.481 2.44262 165.48 2.44262 163.331 2.29441C161.182 2.14619 159.329 2.14619 157.699 2.2203C157.402 2.07209 156.884 1.99798 156.291 1.99798C155.624 1.99798 154.957 1.92387 154.29 1.92387C154.142 2.14619 153.771 2.2203 153.327 2.07208C152.808 1.99798 152.437 1.99798 152.141 2.07208C152.363 1.99798 152.215 1.99798 151.77 1.99798C151.252 1.99798 151.252 2.07209 151.696 2.14619C151.474 2.14619 151.177 2.07208 150.955 1.99798C150.659 1.92387 150.511 1.92387 150.288 2.07208C150.511 2.2203 150.881 2.29441 151.4 2.29441C151.919 2.29441 152.437 2.29441 153.03 2.29441C153.623 2.29441 154.142 2.2944 154.735 2.36851C154.809 2.36851 154.883 2.36851 154.957 2.36851C154.438 2.36851 153.845 2.36851 153.252 2.36851C152.289 2.36851 151.622 2.44262 151.252 2.59083C151.326 2.44262 151.103 2.36851 150.585 2.36851C150.066 2.36851 149.621 2.44262 149.177 2.36851C149.547 2.66494 150.066 2.81315 150.807 2.66494C151.029 2.59083 151.326 2.59083 151.548 2.59083H151.474C151.696 2.59083 151.919 2.59083 152.215 2.59083C152.437 2.59083 152.586 2.66494 152.734 2.66494C152.511 2.66494 152.437 2.66494 152.363 2.73904C152.141 2.73904 151.919 2.73904 151.622 2.73904C151.4 2.73904 151.252 2.73904 151.103 2.73904H150.733V2.88726H151.4C151.77 2.88726 152.141 2.88726 152.586 2.88726C153.178 2.88726 153.475 2.81315 153.475 2.73904C153.401 2.73904 153.401 2.73904 153.327 2.66494C153.549 2.59083 153.771 2.59083 153.994 2.51673C154.364 2.44262 154.809 2.36851 155.476 2.36851C155.698 2.36851 155.846 2.44262 155.92 2.44262C155.55 2.44262 155.402 2.44262 155.476 2.51673C155.624 2.59083 155.92 2.59083 156.291 2.59083C156.661 2.59083 156.884 2.59083 156.884 2.73904C156.587 2.81315 156.217 2.81315 155.698 2.81315C155.253 2.81315 155.179 2.88726 155.476 3.10958C155.698 2.81315 155.92 2.81315 155.994 2.96137C156.069 3.10958 156.291 3.25779 156.587 3.25779C156.884 3.25779 157.032 3.25779 157.032 3.18368C157.032 3.3319 157.328 3.406 157.847 3.406C158.292 3.406 158.514 3.40601 158.662 3.25779C158.736 3.25779 158.81 3.25779 158.81 3.18368H158.736C158.662 3.03547 158.366 2.96137 157.921 2.96137C157.477 2.96137 157.18 3.03547 157.032 3.10958C157.032 3.10958 156.958 3.03547 156.884 3.03547C156.587 2.88726 156.735 2.81315 157.328 2.73904C157.995 2.81315 158.885 2.88726 159.922 3.03547C160.96 3.10958 161.701 3.10958 162.071 2.88726C161.997 2.96137 161.997 3.03547 162.071 3.03547C162.145 3.03547 162.219 3.18369 162.145 3.25779C161.997 3.25779 161.775 3.25779 161.478 3.18368C161.182 3.10958 161.034 3.18369 161.034 3.25779C161.404 3.3319 161.849 3.3319 162.368 3.3319C162.886 3.3319 163.257 3.406 163.553 3.48011C162.96 3.55422 162.293 3.55421 161.701 3.55421V3.3319H161.256V3.55421C159.996 3.55421 158.81 3.55422 157.625 3.406C157.551 3.406 157.402 3.406 157.328 3.406C157.18 3.3319 157.106 3.3319 157.032 3.406C155.327 3.25779 153.623 3.3319 151.919 3.48011C150.362 3.406 148.436 3.40601 146.361 3.3319C146.509 3.3319 146.731 3.3319 146.805 3.3319V3.10958C146.657 3.10958 146.509 3.10958 146.361 3.18368C146.212 3.25779 146.138 3.25779 145.99 3.25779C145.916 3.3319 145.916 3.406 145.916 3.406C145.842 3.406 145.768 3.406 145.619 3.406C145.027 3.406 144.434 3.40601 143.841 3.3319C143.767 3.3319 143.693 3.3319 143.619 3.3319C143.47 3.3319 143.322 3.3319 143.248 3.3319C142.433 3.3319 141.618 3.3319 140.803 3.25779C140.728 3.25779 140.728 3.25779 140.654 3.25779C139.839 3.25779 139.024 3.25779 138.209 3.25779C135.689 3.25779 133.244 3.25779 131.02 3.25779C128.723 3.25779 126.945 3.3319 125.537 3.406C124.203 3.25779 122.943 3.18368 121.757 3.18368C120.497 3.18368 119.386 3.25779 118.422 3.406C115.532 3.3319 112.568 3.25779 109.678 3.25779C109.974 3.25779 110.271 3.18368 110.567 3.18368C110.863 3.18368 111.086 3.18368 111.16 3.18368C109.752 3.03547 108.047 3.03547 106.195 3.18368C102.934 3.18368 99.6734 3.25779 96.3386 3.3319C88.9279 3.55422 81.4432 3.55422 73.9584 3.406C72.1798 3.48011 70.2531 3.55422 68.2522 3.62833C66.1772 3.70243 64.1763 3.70243 62.1013 3.70243C60.0264 3.70243 57.9514 3.70243 55.9505 3.70243C53.8755 3.70243 52.0228 3.62833 50.3184 3.62833C46.8354 3.77654 43.2042 3.92475 39.4247 3.99886C35.6453 4.07297 31.8658 4.22117 28.0123 4.29528C24.1588 4.36939 20.3793 4.5176 16.5258 4.59171C12.7463 4.66581 9.11511 4.88814 5.6321 5.11046C6.15085 4.88814 6.22496 4.81403 5.85442 4.88814C5.48389 4.88814 5.26157 4.81403 5.26157 4.59171C5.48389 4.4435 5.92853 4.36939 6.44727 4.4435C7.04013 4.4435 7.41066 4.36939 7.63298 4.29528C7.48477 4.14707 7.33655 4.14707 7.26245 4.22118C7.18834 4.29528 7.04013 4.36939 6.89191 4.36939C6.7437 4.22118 6.81781 4.14707 7.04013 4.14707C7.33655 4.14707 7.48477 4.14707 7.55887 4.07296C7.18834 4.07296 6.7437 4.07296 6.37317 4.07296C5.92853 4.07296 5.558 4.07297 5.18746 3.99886C6.52138 3.77654 8.07762 3.62832 9.93029 3.55421C11.783 3.48011 13.4133 3.40601 14.8954 3.25779C14.9695 3.3319 14.9695 3.406 14.9695 3.406C14.8954 3.406 14.9695 3.48011 15.1177 3.48011C15.6365 3.3319 16.1552 3.25779 16.674 3.25779C17.1927 3.18369 17.8597 3.18368 18.6749 3.18368C17.1186 2.88726 15.4883 2.81315 13.7838 3.10958C12.0794 3.3319 10.0785 3.406 7.8553 3.18368C8.44815 3.10958 9.04101 3.03547 9.63386 2.96137C10.2267 2.81315 10.7455 2.88726 11.1901 3.03547C11.2642 2.96136 11.4865 2.88726 11.8571 2.88726C12.2276 2.81315 12.5981 2.73904 13.0428 2.73904C13.4874 2.66494 13.8579 2.66494 14.3026 2.73904C14.7472 2.81315 15.0436 2.88726 15.1919 3.03547C15.6365 2.81315 16.2293 2.73904 16.9704 2.66494C17.7115 2.59083 18.4525 2.59083 19.2677 2.59083C20.0829 2.59083 20.8981 2.59083 21.6391 2.59083C22.3802 2.59083 23.1213 2.51673 23.7141 2.29441C23.1213 2.14619 22.4543 2.14619 21.8615 2.29441C21.2686 2.44262 20.7499 2.44262 20.3793 2.2203C17.2668 2.44262 14.2285 2.66494 11.2642 2.81315C8.22583 2.96136 5.11336 3.18368 1.85267 3.406C1.55624 3.55422 1.33392 3.70243 1.33392 3.85064C1.25981 3.99886 0.963386 4.07296 0.44464 4.07296C0.518746 4.22118 0.518746 4.36939 0.44464 4.5176C0.370533 4.66582 0.44464 4.81403 0.666959 4.96224C0.963386 4.88813 1.18571 4.81403 1.33392 4.73992C1.48213 4.66582 1.70445 4.66581 2.07499 4.66581C2.2973 4.81403 2.37141 4.96224 2.2232 5.18456C2.14909 5.18456 2.07499 5.18456 2.07499 5.18456C2.00088 5.25867 1.92677 5.40688 1.85267 5.48099C1.63035 5.6292 1.40803 5.77742 1.18571 5.85152C0.815173 5.99974 0.592853 6.14795 0.44464 6.37027C0.296426 6.51848 0.44464 6.59259 0.741066 6.7408C0.666959 6.7408 0.592853 6.7408 0.44464 6.7408C0.518746 6.88901 0.518746 7.03723 0.44464 7.18544C0.370533 7.25955 0.44464 7.40776 0.518746 7.48187C0.518746 7.63008 0.44464 7.8524 0.44464 8.00061C0.741066 8.00061 1.1116 8.07472 1.40803 8.14883C1.03749 8.22293 0.815173 8.22293 0.296426 8.22293C0.370533 8.37115 0.370533 8.51936 0.296426 8.66757C0.296426 8.74168 0.296426 8.74168 0.296426 8.81579C0.22232 8.88989 0.148213 8.88989 0.148213 8.964C0 9.11221 0.148213 9.18632 0.44464 9.33453C0.370533 9.33453 0.296426 9.33453 0.148213 9.33453C0.22232 9.48274 0.22232 9.63096 0.148213 9.77917C0.0741066 9.85328 0.148213 10.0015 0.22232 10.0756C0.22232 10.2238 0.148213 10.4461 0.148213 10.5943C0.148213 10.5943 0.22232 10.5943 0.296426 10.5943C0.296426 10.6684 0.370533 10.8167 0.592853 10.8908C0.518746 10.8908 0.44464 10.8908 0.296426 10.8908C0.370533 11.039 0.370533 11.1872 0.296426 11.3354C0.296426 11.4095 0.296426 11.4095 0.296426 11.4836C0.22232 11.4836 0.22232 11.5577 0.148213 11.5577C0.0741066 11.6318 0.148213 11.78 0.296426 11.9283C0.296426 12.0024 0.296426 12.0765 0.296426 12.1506C0.44464 12.1506 0.592853 12.1506 0.741066 12.2247C0.44464 12.3729 0.22232 12.5211 0.148213 12.6693C0 12.8916 0 13.114 0 13.2622C0.0741066 13.2622 0.0741066 13.2622 0.148213 13.2622C0.148213 13.3363 0.22232 13.4845 0.44464 13.5586C0.370533 13.5586 0.296426 13.5586 0.148213 13.5586C0.22232 13.7068 0.22232 13.855 0.148213 14.0032C0.0741066 14.0774 0.148213 14.2256 0.22232 14.2997C0.22232 14.4479 0.148213 14.6702 0.148213 14.8184C0.148213 14.8184 0.22232 14.8184 0.296426 14.8184C0.296426 14.8925 0.370533 15.0407 0.592853 15.1148C0.518746 15.1148 0.44464 15.1148 0.296426 15.1148C0.370533 15.2631 0.370533 15.4113 0.296426 15.5595C0.296426 15.6336 0.296426 15.6336 0.296426 15.7077C0.22232 15.7077 0.22232 15.7818 0.148213 15.7818C0.0741066 15.8559 0.148213 16.0041 0.296426 16.1523C0.296426 16.2264 0.296426 16.3006 0.296426 16.3747C0.44464 16.3747 0.592853 16.3747 0.741066 16.4488C0.44464 16.597 0.22232 16.7452 0.148213 16.8934C0.0741066 17.1157 0 17.338 0 17.5604C0 17.5604 0.0741066 17.5604 0.148213 17.5604C0.148213 17.6345 0.22232 17.7827 0.44464 17.8568C0.370533 17.8568 0.296426 17.8568 0.148213 17.8568C0.22232 18.005 0.22232 18.1532 0.148213 18.3014C0.0741066 18.3755 0.148213 18.5237 0.22232 18.5979C0.22232 18.7461 0.148213 18.9684 0.148213 19.1166C0.22232 19.1166 0.22232 19.1166 0.22232 19.1166C0.22232 19.1907 0.296426 19.3389 0.518746 19.413C0.44464 19.413 0.370533 19.413 0.22232 19.413C0.296426 19.5612 0.296426 19.7095 0.22232 19.8577C0.22232 19.9318 0.22232 19.9318 0.22232 20.0059C0.148213 20.0059 0.148213 20.08 0.0741066 20.08C0 20.1541 0.0741066 20.3023 0.22232 20.4505C0.22232 20.5246 0.22232 20.5987 0.22232 20.6728C0.370533 20.6728 0.518746 20.6728 0.666959 20.7469C0.370533 20.8952 0.148213 21.0434 0.0741066 21.1916C0 21.4139 0 21.5621 0 21.7844C0 21.7844 0.0741066 21.7844 0.148213 21.7844C0.148213 21.8585 0.22232 22.0068 0.44464 22.0809C0.370533 22.0809 0.296426 22.0809 0.148213 22.0809C0.22232 22.2291 0.22232 22.3773 0.148213 22.5255C0.0741066 22.5996 0.148213 22.7478 0.22232 22.8219C0.22232 22.9701 0.148213 23.1925 0.148213 23.3407C0.592853 23.3407 1.03749 23.4148 1.48213 23.563C1.33392 23.6371 1.1116 23.7853 0.889279 23.8594C0.518746 24.0076 0.296426 24.1559 0.148213 24.3782C0 24.5264 0.22232 24.7487 0.815173 24.971C0.44464 25.1192 0.22232 25.2675 0.148213 25.4898C0.0741066 25.7121 0.0741066 25.8603 0.0741066 26.0826C0.518746 26.0826 0.963386 26.1567 1.48213 26.3049C1.63035 26.6014 1.48213 26.6755 1.03749 26.6755C0.592853 26.6755 0.370533 26.7496 0.296426 26.9719C0.44464 27.1201 0.815173 27.1942 1.40803 27.1942C2.00088 27.1942 2.37141 27.3424 2.51962 27.5648C7.04013 27.4165 11.4865 27.3424 15.7847 27.1942C19.2677 27.1201 22.6025 27.1201 25.8632 27.1201C25.8632 27.3424 25.7891 27.4906 25.7891 27.713H25.8632V27.7871C25.7891 27.9353 25.8632 28.0094 25.9373 28.1576C25.9373 28.3799 25.8632 28.6022 25.8632 28.7505C25.9373 28.7505 26.0114 28.7505 26.0114 28.7505C26.1596 28.8987 26.5302 28.9728 27.0489 28.9728C26.9007 29.0469 26.7525 29.1951 26.6043 29.2692C26.2337 29.4915 26.0114 29.6397 25.8632 29.8621C25.715 30.0844 25.9373 30.3067 26.5302 30.529C26.1596 30.6772 25.9373 30.8995 25.8632 31.1219C25.7891 31.3442 25.7891 31.6406 25.7891 31.8629C26.2337 31.8629 26.6784 31.937 27.1971 32.1594C27.3453 32.4558 27.1971 32.6781 26.7525 32.604C26.3078 32.604 26.0855 32.7522 26.0114 32.9745C26.1596 33.1227 26.5302 33.1969 27.123 33.271C27.7159 33.271 28.0864 33.4192 28.2346 33.6415C32.7551 33.4192 37.2015 33.1969 41.4997 33.0486C45.7979 32.9004 49.9479 32.7522 53.9496 32.7522C53.9496 32.604 54.0978 32.5299 54.3943 32.5299C56.2469 32.7522 58.1737 32.7522 60.1746 32.604C62.1754 32.4558 64.1763 32.3076 66.1772 32.1594C68.1781 32.0112 70.2531 31.8629 72.4022 31.7147C74.5512 31.5665 76.6262 31.6406 78.7012 31.937C88.1128 31.4183 97.4502 31.0478 106.714 30.8254C113.235 30.6772 119.979 30.4549 126.871 30.2326C127.389 30.3067 127.834 30.3067 128.353 30.1585C128.723 30.1585 129.094 30.1585 129.464 30.1585C129.687 30.2326 129.761 30.3067 129.761 30.3808C129.909 30.2326 130.205 30.1585 130.502 30.1585C130.798 30.1585 131.095 30.1585 131.391 30.1585C131.762 30.1585 132.132 30.2326 132.577 30.2326C134.059 30.4549 135.022 30.3808 135.393 30.0844C135.541 30.1585 135.615 30.2326 135.763 30.2326C135.912 30.2326 135.912 30.3067 135.912 30.529V30.0844C137.394 30.3067 138.802 30.3808 140.21 30.3067C141.618 30.2326 142.952 30.3067 144.137 30.6772C144.582 30.3808 145.027 30.3067 145.545 30.4549C146.064 30.6031 146.509 30.7513 147.028 30.8996C147.25 30.529 147.398 30.4549 147.62 30.7513C147.769 31.0478 148.139 31.0478 148.732 30.8254C148.732 30.7513 148.658 30.6772 148.658 30.6772C148.584 30.6772 148.584 30.6031 148.584 30.529C149.473 30.6772 150.436 30.7513 151.474 30.7513C152.511 30.7513 153.475 30.7513 154.512 30.9737C154.66 31.196 154.586 31.196 154.364 31.196C154.142 31.1219 154.068 31.196 154.216 31.4183C154.957 31.196 155.624 31.0478 156.069 30.8996C156.513 30.7513 157.18 30.8995 158.069 31.1219C158.069 31.0478 158.144 30.9737 158.366 31.0478C158.588 31.1219 158.662 31.0478 158.514 30.8254C159.996 31.0478 161.33 31.1219 162.442 30.9737C163.627 30.8254 164.961 30.8254 166.592 30.9737C166.814 30.9737 166.888 31.0478 166.74 31.196C166.666 31.3442 166.666 31.4924 166.74 31.5665C166.814 31.3442 167.036 31.2701 167.259 31.2701C167.481 31.2701 167.629 31.1219 167.777 30.9737C168.148 31.0478 168.667 31.1219 169.408 31.196C170.149 31.2701 170.742 31.1219 171.334 30.8254C171.334 31.0478 171.557 31.1219 171.927 31.1219C172.298 31.1219 172.743 31.1219 173.261 31.0478C173.78 31.0478 174.225 31.0478 174.669 30.9737C175.114 30.9737 175.41 31.1219 175.559 31.3442C175.855 31.1219 176.226 30.9737 176.596 30.8996C176.967 30.7513 177.263 30.8996 177.559 31.2701C180.227 31.1219 183.266 30.9737 186.675 30.8996C190.083 30.8254 193.048 30.7513 195.493 30.6772C195.716 30.7513 195.79 30.8996 195.567 31.0478C195.419 31.196 195.493 31.196 195.79 31.1219C196.012 31.1219 196.086 31.1219 195.938 31.0478C195.79 30.9737 195.79 30.8995 195.79 30.8254C196.827 30.9737 198.383 30.8995 200.458 30.6031C201.792 30.3808 203.052 30.3067 204.164 30.3067C205.127 30.3808 206.165 30.4549 207.128 30.529C208.091 30.6031 209.203 30.6772 210.389 30.6772C211.574 30.6772 212.76 30.6772 213.946 30.6772C215.132 30.6772 216.169 30.529 217.132 30.3808C218.096 30.2326 218.837 29.9362 219.43 29.4915C218.985 29.3433 218.763 29.121 218.763 28.8987C218.763 28.6763 218.837 28.5281 219.059 28.3799C219.281 28.2317 219.504 28.0094 219.8 27.8612C220.097 27.6389 220.319 27.4906 220.467 27.3424C220.171 27.1942 220.023 26.8978 220.097 26.6014C220.171 26.3049 220.023 26.0085 219.652 25.8603C220.097 25.9344 220.393 25.9344 220.541 25.7862C220.689 25.638 220.838 25.638 221.208 25.638C221.06 25.1933 220.838 24.8969 220.541 24.5264C220.467 24.4523 220.393 24.3782 220.319 24.3041C220.393 24.23 220.467 24.1558 220.541 24.1558C220.319 24.0076 220.171 23.8594 220.171 23.7112C220.171 23.6371 220.171 23.563 220.171 23.4889V23.4148V23.3407C220.245 23.2666 220.393 23.1925 220.393 23.1184C220.245 23.0443 220.097 22.896 220.097 22.7478C220.319 22.7478 220.541 22.7478 220.615 22.6737C220.764 22.5255 220.912 22.5255 221.282 22.5255C221.134 22.155 220.986 21.8585 220.764 21.5621C220.912 21.488 221.06 21.488 221.282 21.488C221.134 21.1175 220.912 20.7469 220.615 20.3764C220.541 20.3023 220.467 20.2282 220.393 20.1541C220.467 20.08 220.541 20.0059 220.615 20.0059C220.467 19.9318 220.319 19.7836 220.319 19.6353C220.541 19.6353 220.689 19.6353 220.764 19.5612C220.912 19.413 221.06 19.413 221.431 19.413C221.282 19.0425 221.134 18.7461 220.838 18.4496C220.986 18.3755 221.134 18.3755 221.356 18.3755C221.208 18.005 221.06 17.7086 220.838 17.4122C220.986 17.338 221.134 17.338 221.356 17.338C221.208 16.9675 220.986 16.597 220.689 16.2264C220.615 16.1523 220.541 16.0782 220.467 16.0041C220.541 15.93 220.615 15.8559 220.689 15.8559C220.541 15.7818 220.393 15.6336 220.393 15.4854C220.615 15.4854 220.764 15.4854 220.838 15.4113C220.541 15.1148 220.764 15.0407 221.06 15.1148ZM158.588 2.44262V2.66494H157.921V2.44262H158.588ZM161.034 2.59083V2.81315H160.441V2.59083H161.034ZM161.701 2.73904C161.775 2.96136 161.478 3.03547 160.737 3.03547C160.885 2.96136 161.034 2.88726 161.108 2.81315C161.182 2.73904 161.404 2.73904 161.701 2.73904ZM163.331 3.25779V3.48011H162.886V3.25779H163.331ZM102.786 5.11046H102.119V4.88814H102.193C102.267 4.88814 102.489 4.96224 102.786 4.96224V5.11046ZM100.563 5.03635C99.9698 5.03635 99.5993 4.96224 99.4511 4.81403C99.8957 4.88814 100.34 4.88814 100.785 4.81403C101.23 4.73992 101.526 4.73992 101.674 4.81403C101.452 5.03635 101.081 5.11045 100.563 5.03635ZM103.749 5.03635C103.601 5.03635 103.527 5.03635 103.379 4.96224C103.453 4.96224 103.527 4.96224 103.527 4.88814C103.823 4.96224 104.046 4.96224 104.194 4.96224C104.194 5.03635 104.046 5.03635 103.749 5.03635ZM169.334 29.6397H169.63V29.9362H169.259L169.334 29.6397ZM165.776 29.5656H165.925V29.7138H165.776V29.5656ZM163.479 29.4174C163.553 29.4174 163.627 29.4174 163.627 29.4174C163.627 29.4915 163.776 29.6397 163.998 29.788C163.776 29.8621 163.627 29.8621 163.479 29.6397C163.405 29.4915 163.405 29.4174 163.479 29.4174ZM161.108 29.7138C161.33 29.788 161.552 29.7138 161.701 29.4915C161.849 29.2692 161.997 29.3433 162.145 29.7138C162.145 29.788 161.997 29.8621 161.701 29.8621C161.404 29.8621 161.256 29.788 161.108 29.7138ZM159.107 29.4915C159.181 29.4174 159.329 29.4174 159.403 29.6397C159.477 29.8621 159.403 29.9362 159.181 29.9362L159.107 29.4915ZM158.44 29.4915H158.588V29.788H158.44V29.4915ZM156.735 29.8621C156.735 29.6397 156.884 29.5656 157.106 29.4915C157.402 29.4174 157.551 29.4915 157.551 29.7138C157.551 29.9362 157.477 29.9362 157.328 29.8621C157.18 29.7879 156.958 29.7879 156.735 29.8621ZM153.919 29.5656C153.994 29.5656 154.142 29.5656 154.216 29.5656V29.6397H153.845V29.5656H153.919ZM143.619 28.0835C144.063 27.9353 144.73 27.9353 145.471 28.0094C146.212 28.0835 147.028 28.1576 147.917 28.0835C147.472 28.3058 146.805 28.3799 146.064 28.3058C145.323 28.1576 144.508 28.1576 143.619 28.0835ZM142.729 28.0094C142.878 28.0094 142.952 28.0094 142.952 28.0835C142.952 28.1576 143.026 28.1576 143.174 28.1576C143.1 28.3058 142.952 28.3799 142.803 28.3058C142.581 28.1576 142.581 28.0835 142.729 28.0094ZM137.394 28.1576C137.69 28.0835 138.135 28.0835 138.579 28.0835C139.469 28.0835 140.136 28.0835 140.506 28.1576C140.432 28.1576 140.432 28.2317 140.358 28.2317C139.987 28.2317 139.691 28.1576 139.32 28.1576C138.653 28.1576 137.986 28.1576 137.394 28.1576ZM123.61 28.454C123.684 28.3799 123.832 28.3799 123.906 28.454C123.98 28.454 124.054 28.5281 124.129 28.5281C124.054 28.5281 123.906 28.5281 123.758 28.5281C123.684 28.5281 123.61 28.5281 123.61 28.454ZM122.721 28.6022C122.869 28.5281 122.943 28.454 123.017 28.3799C123.017 28.3799 123.017 28.3799 123.091 28.3799C123.091 28.454 123.017 28.5281 123.017 28.5281C122.869 28.6022 122.795 28.6022 122.721 28.6022ZM118.793 28.5281C118.867 28.5281 118.941 28.5281 119.015 28.5281V28.6022C118.941 28.6022 118.867 28.6022 118.793 28.5281ZM97.0797 29.4915V28.9728C97.302 28.8987 97.5243 28.8987 97.8207 28.9728V29.121H98.1913V29.0469C98.1913 29.0469 98.1913 29.0469 98.2654 29.0469C98.71 29.121 98.8582 29.121 98.7841 28.8987C98.9323 29.0469 99.3029 29.121 99.8957 29.121C100.489 29.121 100.933 29.0469 101.23 29.0469C100.711 29.1951 100.044 29.3433 99.3029 29.4174C98.4136 29.6397 97.7466 29.6397 97.0797 29.4915ZM90.336 29.2692C91.3735 29.4174 92.3368 29.4174 93.0779 29.2692C93.819 29.0469 94.56 29.0469 95.3011 29.2692C94.7824 29.4174 93.9672 29.4915 92.8556 29.5656C91.8181 29.5656 91.0029 29.4915 90.336 29.2692ZM86.4083 29.4915C86.7788 29.3433 87.3717 29.2692 88.1128 29.3433C88.8538 29.4174 89.2985 29.4915 89.5208 29.5656C89.2244 29.788 88.7056 29.8621 88.0387 29.7138C87.3717 29.5656 86.7788 29.4915 86.4083 29.4915ZM80.1833 29.7138C80.3316 29.5656 80.9985 29.4915 82.1101 29.6397C83.2217 29.7138 84.111 29.7138 84.8521 29.5656C84.9262 29.6397 84.8521 29.7138 84.7039 29.7138C84.5556 29.788 84.4074 29.788 84.2592 29.788C84.111 29.788 83.9628 29.788 83.8887 29.788C83.8146 29.788 83.8887 29.8621 84.111 29.9362C83.9628 30.0844 83.8887 30.0844 83.8146 29.9362C83.8146 29.788 83.6664 29.7138 83.5182 29.788C83.3699 29.788 83.2958 29.8621 83.2217 29.9362C83.1476 30.0103 83.1476 30.0844 83.0735 30.1585C82.8512 30.0103 82.4066 29.9362 81.7396 29.9362C81.0726 29.9362 80.5539 29.8621 80.1833 29.7138ZM73.5138 30.0103C73.5138 29.9362 73.9584 29.9362 74.9959 29.9362C75.2923 29.9362 75.5887 29.9362 75.737 29.8621C75.9593 29.7879 76.3298 29.7879 76.8485 29.8621C76.7744 30.0103 76.4039 30.0844 75.8852 30.0844C75.2923 30.0844 74.7736 30.0844 74.3289 30.0844C73.8102 30.0844 73.5879 30.0844 73.5138 30.0103ZM69.8825 30.529C70.3272 30.3808 70.4754 30.3067 70.3272 30.3808C70.179 30.3808 70.0307 30.3808 69.8825 30.1585C70.179 30.1585 70.5495 30.1585 70.9941 30.1585C70.9941 30.1585 70.9941 30.1585 71.0682 30.1585C71.0682 30.2326 70.9941 30.3067 70.8459 30.3067C70.8459 30.3808 71.0682 30.4549 71.4388 30.4549C71.4388 30.6031 71.2165 30.6772 70.8459 30.6031C70.4013 30.529 70.1049 30.529 69.8825 30.529ZM68.2522 30.2326V30.0844H68.9191V30.2326H68.2522ZM67.5111 30.4549C67.6593 30.4549 67.6593 30.3808 67.6593 30.2326C68.0299 30.2326 68.1781 30.3067 68.104 30.529C68.0299 30.7513 67.8075 30.7513 67.437 30.6772C67.3629 30.529 67.3629 30.4549 67.5111 30.4549ZM4.96514 3.62833C4.66872 3.62833 4.37229 3.70243 4.14997 3.77654C4.00176 3.62832 4.07586 3.55421 4.29818 3.55421C4.59461 3.55421 4.66872 3.48011 4.59461 3.3319C4.96514 3.3319 5.33568 3.3319 5.558 3.3319C5.85442 3.3319 6.15085 3.3319 6.52138 3.3319C6.44728 3.40601 6.29906 3.406 6.07674 3.406C5.85442 3.406 5.85442 3.48011 6.00264 3.62833C5.6321 3.62833 5.26157 3.62833 4.96514 3.62833ZM49.5032 4.81403V5.03635H48.8363V4.81403H49.5032ZM60.7674 4.73992C60.6933 4.81403 60.6933 4.81403 60.7674 4.73992C60.6192 4.81403 60.471 4.81403 60.3228 4.81403V4.66581C60.6192 4.59171 60.7674 4.59171 60.7674 4.73992ZM64.9174 4.66581C63.7317 4.66581 62.546 4.73992 61.3603 4.73992C61.5085 4.73992 61.6567 4.66581 61.879 4.66581C62.3237 4.59171 62.8424 4.59171 63.3612 4.59171C63.8799 4.59171 64.3986 4.59171 64.9174 4.66581ZM65.8067 4.88814C65.6585 4.88814 65.5102 4.81403 65.362 4.81403C65.4361 4.81403 65.5102 4.81403 65.5844 4.81403C65.7326 4.81403 65.8067 4.88814 65.8067 4.88814ZM72.7727 4.81403C72.4022 4.73992 72.1057 4.73992 71.8834 4.73992C71.8834 4.66582 71.8834 4.66581 71.8834 4.59171C72.2539 4.59171 72.5504 4.5176 72.8468 4.5176C72.995 4.5176 73.1432 4.59171 73.2173 4.66581C73.2914 4.81403 73.1432 4.88814 72.7727 4.81403ZM79.22 4.73992C78.2566 4.81403 77.4414 4.73992 76.7003 4.73992C75.9593 4.66582 74.9218 4.66582 73.662 4.73992C73.7361 4.73992 74.0325 4.73992 74.5512 4.66581C75.07 4.59171 75.6628 4.59171 76.2557 4.59171C76.8486 4.59171 77.4414 4.59171 78.0343 4.66581C78.7012 4.66581 79.0718 4.66582 79.22 4.73992ZM81.4432 4.81403C80.9985 4.88814 80.7021 4.81403 80.7021 4.73992C80.7021 4.66582 80.4798 4.59171 80.1092 4.59171C80.3316 4.5176 80.7021 4.5176 81.0726 4.5176C81.4432 4.5176 81.5914 4.66582 81.4432 4.81403ZM87.0012 4.5176V4.73992H86.1119V4.5176H87.0012ZM88.1128 4.5176V4.73992H87.2235V4.5176H88.1128ZM89.8913 4.59171C89.8172 4.66581 89.669 4.66582 89.4467 4.73992C89.3726 4.66582 89.2244 4.66582 89.0761 4.73992V4.81403C88.7797 4.81403 88.6315 4.73992 88.6315 4.59171H89.8913ZM93.6708 4.59171H93.5966C93.5225 4.59171 93.5225 4.59171 93.5225 4.59171C93.5225 4.59171 93.5966 4.59171 93.6708 4.59171ZM97.2279 4.66581C96.4127 4.66581 95.8198 4.59171 95.4493 4.59171C95.0788 4.59171 94.56 4.59171 93.8931 4.66581C93.9672 4.59171 94.0413 4.59171 94.1895 4.59171C94.3377 4.59171 94.3377 4.59171 94.3377 4.5176C94.3377 4.59171 94.4859 4.59171 94.7083 4.59171C95.0047 4.59171 95.3011 4.5176 95.6716 4.5176C96.0422 4.5176 96.3386 4.5176 96.635 4.5176C97.0055 4.5176 97.1538 4.59171 97.2279 4.66581ZM97.7466 4.81403C97.5984 5.11046 97.1538 5.18456 96.3386 5.11046C96.0422 5.11046 95.7457 5.03635 95.4493 5.03635C95.3752 5.03635 95.227 5.03635 95.1529 4.96224C95.227 4.96224 95.3752 4.96224 95.4493 4.96224C95.6716 4.96224 95.6716 4.81403 95.5975 4.73992C95.8198 4.73992 96.0422 4.81403 96.2645 4.88814C96.4868 4.96224 96.635 4.96224 96.7091 4.73992C97.0056 4.88814 97.1538 4.96224 97.0797 4.88814C97.1538 4.88814 97.302 4.81403 97.7466 4.81403ZM114.347 4.22118C114.421 4.22118 114.569 4.22118 114.643 4.22118V4.5176C114.421 4.5176 114.198 4.59171 113.976 4.59171C113.754 4.59171 113.531 4.59171 113.309 4.59171C113.087 4.59171 112.938 4.59171 112.716 4.59171C112.197 4.59171 111.753 4.59171 111.456 4.59171C109.604 4.59171 107.751 4.59171 105.972 4.59171C102.934 4.59171 100.192 4.66582 97.6725 4.73992C98.1172 4.51761 98.7841 4.4435 99.6734 4.36939C100.563 4.29529 101.452 4.29529 102.415 4.36939C103.379 4.36939 104.194 4.4435 105.083 4.4435C105.898 4.4435 106.491 4.44349 106.788 4.29528C107.158 4.44349 107.825 4.5176 108.714 4.4435C109.678 4.36939 110.197 4.29528 110.345 4.07296C110.641 4.14707 110.863 4.22118 111.234 4.22118H111.16C111.382 4.22118 111.53 4.22117 111.53 4.29528C111.605 4.29528 111.679 4.36939 111.827 4.36939C111.901 4.36939 111.975 4.29528 111.975 4.29528C112.123 4.29528 112.346 4.29528 112.494 4.29528C113.383 4.29528 113.902 4.22118 114.347 4.22118C114.421 4.14707 114.421 4.14707 114.347 4.22118ZM131.91 4.4435C131.687 4.4435 131.539 4.5176 131.465 4.5176C130.946 4.5176 130.354 4.5176 129.761 4.5176H129.39C129.316 4.5176 129.242 4.5176 129.168 4.5176H128.501V4.59171C128.056 4.59171 127.612 4.59171 127.093 4.59171V4.5176H126.648V4.59171C125.907 4.59171 125.092 4.59171 124.277 4.59171C124.203 4.59171 124.054 4.59171 123.98 4.59171C123.906 4.5176 123.758 4.5176 123.536 4.4435H123.388C123.313 4.5176 123.313 4.5176 123.388 4.5176C123.462 4.5176 123.536 4.59171 123.61 4.59171C123.239 4.59171 122.943 4.59171 122.572 4.59171C122.572 4.5176 122.498 4.4435 122.35 4.4435C122.054 4.36939 121.905 4.4435 121.831 4.59171C121.905 4.59171 121.979 4.59171 121.979 4.59171C121.683 4.59171 121.387 4.59171 121.09 4.59171V4.4435C120.942 4.4435 120.794 4.4435 120.646 4.4435C120.497 4.4435 120.423 4.5176 120.275 4.5176C120.275 4.5176 120.275 4.5176 120.201 4.59171C119.46 4.59171 118.793 4.59171 118.052 4.59171C117.978 4.59171 117.904 4.59171 117.83 4.59171C117.607 4.59171 117.459 4.59171 117.385 4.59171C116.644 4.59171 115.903 4.59171 115.162 4.59171H115.088C115.162 4.59171 115.162 4.5176 115.162 4.4435C115.68 4.4435 116.347 4.4435 117.163 4.4435C117.978 4.4435 118.496 4.29528 118.645 4.14707C119.83 4.14707 121.016 4.22118 122.276 4.22118C123.239 4.22118 124.129 4.22117 125.092 4.29528V4.36939H125.759V4.29528C125.833 4.29528 125.981 4.29528 126.055 4.29528C126.278 4.29528 126.426 4.29528 126.574 4.29528C126.574 4.29528 126.574 4.29529 126.574 4.36939C126.648 4.36939 126.796 4.36939 126.871 4.29528C127.241 4.29528 127.537 4.29528 127.834 4.29528C127.982 4.29528 128.204 4.36939 128.501 4.36939C128.723 4.36939 128.797 4.36939 128.945 4.36939C129.168 4.36939 129.39 4.36939 129.612 4.36939C130.502 4.29529 131.243 4.36939 131.91 4.4435ZM168.593 3.62833C168.518 3.70243 168.37 3.70243 168.074 3.70243H167.851V3.85064H167.926C167.926 3.85064 167.926 3.85064 167.926 3.92475C167.629 3.92475 167.555 3.85064 167.629 3.70243H167.407V3.92475H166.962C167.036 3.92475 167.185 3.92475 167.259 3.92475V3.70243C167.036 3.70243 166.888 3.70243 166.74 3.77654C166.666 3.77654 166.592 3.77654 166.592 3.77654C166.443 3.77654 166.369 3.77654 166.147 3.85064C166.221 3.85064 166.221 3.85064 166.295 3.92475V3.99886C165.999 3.99886 165.702 3.99886 165.406 3.99886C164.961 4.07297 164.517 4.07297 164.072 3.99886C164.22 3.77654 164.22 3.70243 163.998 3.70243C163.776 3.70243 163.702 3.62832 163.776 3.48011C164.072 3.55422 164.294 3.55422 164.443 3.48011C164.517 3.48011 164.591 3.406 164.665 3.406C164.739 3.406 164.961 3.48011 165.11 3.48011C165.184 3.48011 165.258 3.55421 165.332 3.55421C165.48 3.55421 165.554 3.62832 165.406 3.77654C165.776 3.62832 166.295 3.62833 166.962 3.62833C167.259 3.62833 167.481 3.62832 167.703 3.70243L167.555 3.77654C167.777 3.77654 168 3.77654 168.148 3.77654C168.37 3.55422 168.518 3.62833 168.593 3.62833ZM168.741 3.70243C168.667 3.77654 168.667 3.77654 168.593 3.85064H169.63V3.92475C169.259 3.92475 168.963 3.92475 168.518 3.92475C168.518 3.85064 168.444 3.85064 168.444 3.77654C168.444 3.77654 168.444 3.77654 168.37 3.77654V3.70243H168.148C168.296 3.70243 168.518 3.70243 168.741 3.70243ZM169.778 3.70243C169.704 3.70243 169.63 3.77654 169.63 3.85064C169.556 3.77654 169.482 3.77654 169.408 3.70243C169.482 3.70243 169.63 3.62832 169.778 3.70243ZM181.413 1.47923V1.70155H180.968V1.47923H181.413ZM195.123 3.18368C194.53 3.25779 193.937 3.25779 193.27 3.25779C193.27 3.10958 193.344 3.03547 193.492 2.96137C194.159 3.03547 194.678 3.03547 195.123 3.18368ZM195.345 4.81403C195.271 4.88814 195.197 4.88813 195.197 4.96224C195.123 4.88813 195.123 4.81403 195.049 4.81403C195.123 4.81403 195.197 4.81403 195.345 4.81403ZM206.906 1.92387V2.14619H206.461V1.92387H206.906ZM119.83 4.22118C119.83 4.07296 119.682 4.07296 119.386 4.07296V4.29528C119.608 4.36939 119.83 4.36939 119.83 4.22118ZM113.531 4.5176V4.36939H113.087V4.5176H113.531ZM110.938 4.29528V4.22118H110.493V4.29528H110.938ZM186.823 1.84977H187.267V1.62744H186.823V1.84977ZM200.903 1.62744C200.829 1.62744 200.607 1.55334 200.236 1.47923C199.866 1.40513 199.643 1.40513 199.495 1.47923C199.643 1.47923 199.717 1.55334 199.717 1.70155C199.94 1.70155 200.236 1.70155 200.607 1.77566C200.977 1.84977 201.051 1.77566 200.903 1.62744ZM199.05 1.62744C199.199 1.47923 199.124 1.40512 198.828 1.33102C198.828 1.47923 198.754 1.55334 198.532 1.47923C198.309 1.40513 198.235 1.47923 198.235 1.55334L198.457 1.70155C198.754 1.77566 198.902 1.77566 199.05 1.62744ZM194.011 1.25691H193.566L193.344 1.47923C193.863 1.47923 194.085 1.40513 194.011 1.25691ZM185.785 1.47923V1.33102H185.341V1.47923H185.785ZM175.41 1.1087C175.336 1.1087 175.114 1.03459 174.743 0.960484C174.373 0.886378 174.151 0.886378 174.002 0.960484C174.151 0.960484 174.225 1.03459 174.225 1.18281C174.447 1.18281 174.743 1.18281 175.114 1.25691C175.41 1.25691 175.559 1.25691 175.41 1.1087ZM173.558 1.1087C173.706 1.03459 173.632 0.88638 173.335 0.812273C173.335 0.960487 173.261 1.03459 173.039 0.960484C172.817 0.886378 172.743 0.960489 172.743 1.0346L172.965 1.1087C173.187 1.18281 173.409 1.18281 173.558 1.1087ZM168.444 0.664062H168L167.777 0.886379C168.296 0.886379 168.518 0.812276 168.444 0.664062ZM161.775 1.1087V0.886379H161.33V1.1087H161.775ZM160.811 1.1087V0.886379H160.441V1.1087H160.811ZM160.293 0.738168V0.664062H159.848V0.738168H160.293ZM159.774 1.0346V0.812273H159.329V1.0346H159.774ZM148.806 1.33102V1.1087H147.991V1.33102H148.806ZM147.546 1.33102C147.694 1.1828 147.546 1.1087 147.176 1.18281C146.731 1.18281 146.435 1.18281 146.212 1.1087C146.435 1.25691 146.509 1.33102 146.286 1.33102C146.138 1.33102 146.138 1.40513 146.435 1.47923C146.286 1.33102 146.657 1.33102 147.546 1.33102ZM147.472 1.99798C147.324 1.92387 146.731 1.84977 145.619 1.84977V2.14619C145.99 2.07209 146.361 2.07209 146.805 2.14619C147.176 2.2203 147.398 2.14619 147.472 1.99798ZM149.177 3.18368H149.028C148.954 3.25779 148.954 3.3319 149.028 3.3319C149.399 3.48011 149.621 3.55421 149.695 3.55421C149.769 3.406 149.621 3.3319 149.177 3.18368ZM148.954 2.14619C149.251 2.14619 149.473 2.14619 149.695 2.14619C149.918 2.14619 149.992 2.14619 149.918 2.07208C149.769 1.99798 149.547 1.99798 149.251 1.99798C148.954 1.99798 148.584 1.99798 148.213 1.92387C148.065 1.99798 148.065 2.07208 148.287 2.07208C148.436 2.14619 148.658 2.14619 148.954 2.14619ZM147.917 3.18368C147.62 3.10958 147.472 3.18369 147.398 3.3319C147.62 3.3319 147.769 3.3319 147.769 3.406C147.843 3.48011 147.917 3.48011 148.065 3.48011C148.213 3.3319 148.213 3.25779 147.917 3.18368ZM145.619 2.51673C145.694 2.51673 145.842 2.59083 145.916 2.59083C145.916 2.59083 145.916 2.59083 145.916 2.66494H145.99C146.286 2.73904 146.583 2.81315 146.953 2.88726C147.472 2.96137 147.917 2.88726 148.139 2.59083C147.62 2.66494 147.25 2.73904 147.102 2.66494V2.59083C147.028 2.59083 146.953 2.59083 146.953 2.59083C146.805 2.51673 146.583 2.51673 146.138 2.51673C146.064 2.51673 145.99 2.51673 145.99 2.51673C145.916 2.44262 145.768 2.44262 145.619 2.51673ZM145.471 3.10958C145.471 2.96136 145.323 2.88726 145.027 2.96137V3.18368C145.249 3.3319 145.471 3.25779 145.471 3.10958ZM144.137 1.92387L141.692 1.84977C141.692 1.99798 141.766 2.07208 142.062 2.07208C142.285 2.07208 142.507 2.07208 142.729 2.07208C142.952 2.07208 143.1 2.14619 143.174 2.2203C143.248 2.29441 143.174 2.36851 142.952 2.51673H144.137C143.619 2.29441 143.619 2.14619 144.137 1.92387ZM141.692 2.44262V2.2203C141.47 2.2203 141.321 2.2203 141.173 2.2203C141.025 2.2203 140.951 2.29441 140.728 2.29441C140.58 2.44262 140.654 2.51672 140.877 2.44262C141.247 2.51672 141.47 2.44262 141.692 2.44262ZM141.47 1.92387C141.544 1.77566 141.47 1.70155 141.321 1.84977C141.321 1.92387 141.247 1.92387 141.025 1.92387C140.803 1.92387 140.877 1.92387 141.099 1.99798C141.247 2.14619 141.395 2.07209 141.47 1.92387ZM139.469 2.73904H140.728V2.59083H139.469V2.73904ZM142.285 2.36851V2.44262H142.729V2.36851H142.285ZM142.581 2.81315V2.66494H140.951V2.81315H141.692V2.88726H142.062V2.81315H142.581ZM139.765 3.03547C139.987 3.03547 140.061 3.10958 139.987 3.18368C140.506 3.10958 140.951 3.10958 141.395 3.25779C141.766 3.40601 141.914 3.25779 141.84 2.96137C141.47 2.96137 141.025 2.96137 140.654 2.96137C140.21 2.88726 139.913 2.88726 139.765 3.03547ZM140.58 1.92387C140.284 1.99798 139.987 1.92387 139.691 1.77566C139.395 1.62745 139.172 1.62745 139.024 1.84977C139.098 1.92387 139.395 1.99798 139.913 1.99798C140.284 1.99798 140.58 1.99798 140.58 1.92387ZM137.838 3.03547C137.616 2.96136 137.32 3.03547 136.875 3.18368C137.097 3.18368 137.245 3.18369 137.245 3.25779C137.245 3.3319 137.394 3.3319 137.542 3.3319C137.987 3.18369 138.061 3.10958 137.838 3.03547ZM136.578 3.18368H136.134V3.3319H136.578V3.18368ZM136.282 2.96137C137.097 2.96137 137.69 2.88726 138.061 2.73904C136.282 2.73904 134.726 2.73904 133.244 2.73904C131.836 2.73904 130.428 2.81315 129.168 2.88726C127.834 2.96137 126.574 3.03547 125.314 3.03547C124.054 3.10958 122.646 3.18368 121.09 3.18368C123.017 3.10958 125.24 3.10958 127.76 3.10958C130.279 3.10958 132.354 3.03547 133.985 2.88726C134.355 2.96137 134.503 3.03547 134.429 3.10958C134.874 3.03547 135.467 2.96137 136.282 2.96137ZM134.355 3.18368L134.503 3.10958C134.355 3.18368 134.355 3.18368 134.355 3.18368ZM134.355 1.33102C134.503 1.1828 134.355 1.1087 133.911 1.1087C133.466 1.1087 133.244 1.1087 133.244 1.18281C133.614 1.1087 133.837 1.1087 133.911 1.18281C133.837 1.33102 134.059 1.33102 134.355 1.33102ZM132.206 2.14619C132.725 2.14619 133.021 2.07208 133.17 1.99798C133.095 1.84976 132.799 1.77566 132.354 1.84977C131.91 1.84977 131.613 1.92387 131.391 1.99798C131.465 1.99798 131.687 2.07209 132.206 2.14619ZM129.835 1.84977H129.464V1.92387H129.835V1.84977ZM129.242 1.84977H128.575V1.92387H129.242V1.84977ZM127.167 1.77566H126.722V1.84977H127.167V1.77566ZM125.907 1.40513H125.24V1.47923H125.907V1.40513ZM128.427 1.25691C128.871 1.18281 129.538 1.18281 130.428 1.1087C129.612 1.1087 128.649 1.0346 127.686 1.0346C126.722 1.0346 126.055 1.03459 125.685 1.18281C125.759 1.03459 125.537 0.960489 125.018 1.0346C124.499 1.0346 123.98 1.0346 123.61 1.0346C123.98 1.33102 124.499 1.40513 125.24 1.25691C125.907 1.1087 126.574 1.1828 127.241 1.33102C126.945 1.33102 126.796 1.40513 126.796 1.55334C127.389 1.40513 127.982 1.33102 128.427 1.25691ZM123.61 1.70155H123.462C123.388 1.77566 123.388 1.77566 123.462 1.77566C123.832 1.92387 124.054 1.99798 124.129 1.92387C124.203 1.92387 124.054 1.84976 123.61 1.70155ZM122.572 1.92387C122.721 1.77566 122.646 1.70155 122.424 1.70155C122.128 1.62744 121.979 1.70155 121.905 1.84977C122.128 1.84977 122.276 1.84977 122.276 1.92387C122.276 1.92387 122.35 1.92387 122.572 1.92387ZM121.313 2.51673C121.757 2.51673 121.905 2.44262 121.831 2.29441H120.942C120.72 2.44262 120.868 2.51673 121.313 2.51673ZM121.609 1.1087C121.461 1.18281 121.164 1.18281 120.868 1.1087C120.497 1.03459 120.349 1.03459 120.349 1.18281C120.497 1.1087 120.72 1.1087 121.09 1.18281C121.461 1.25691 121.609 1.25691 121.609 1.1087ZM120.72 1.70155C120.571 1.70155 120.497 1.77566 120.349 1.77566C120.201 1.92387 120.275 1.99798 120.497 1.92387C120.794 1.92387 121.016 1.84977 121.164 1.92387V1.70155C121.016 1.70155 120.868 1.70155 120.72 1.70155ZM120.053 2.88726C120.127 2.88726 120.201 2.88726 120.201 2.81315C120.275 2.73904 120.201 2.73904 120.053 2.73904C119.83 2.88726 119.46 2.96136 119.089 3.03547C118.645 3.03547 118.2 3.10958 117.681 3.03547C117.163 3.03547 116.718 3.03547 116.273 3.03547C115.829 3.03547 115.532 3.18369 115.31 3.3319C116.347 3.40601 117.237 3.40601 117.978 3.25779C118.645 3.10958 119.682 3.10958 121.016 3.18368C121.164 3.03547 121.016 2.96137 120.571 2.96137C120.053 3.10958 119.904 3.10958 120.053 2.88726ZM119.904 1.55334C119.904 1.40513 119.756 1.40513 119.46 1.40513V1.62744C119.756 1.70155 119.904 1.70155 119.904 1.55334ZM119.904 2.29441H119.46C119.46 2.36851 119.386 2.36851 119.312 2.36851C119.163 2.36851 119.163 2.44262 119.238 2.59083H119.904V2.29441ZM118.274 2.29441H117.607V2.51673H118.274V2.29441ZM118.274 1.99798C118.422 1.84976 118.348 1.77566 117.904 1.77566C117.533 1.77566 117.311 1.77566 117.311 1.84977C117.533 1.84977 117.681 1.84977 117.83 1.92387C117.978 1.99798 118.126 1.99798 118.274 1.99798ZM117.014 1.25691V1.18281L115.384 1.1087V1.18281L117.014 1.25691ZM115.162 1.25691V1.18281H113.902V1.25691H115.162ZM114.272 1.40513C114.495 1.40513 114.569 1.47923 114.495 1.47923C115.013 1.40513 115.532 1.47923 115.903 1.55334C116.273 1.70155 116.421 1.55334 116.347 1.33102C115.977 1.33102 115.532 1.33102 115.162 1.33102C114.717 1.33102 114.421 1.33102 114.272 1.40513ZM113.754 3.25779C113.235 3.3319 113.013 3.3319 113.087 3.3319C113.457 3.3319 113.902 3.3319 114.347 3.3319C114.791 3.3319 115.013 3.25779 115.013 3.10958C114.717 3.18368 114.346 3.25779 113.754 3.25779ZM112.864 1.84977C111.975 1.77566 111.382 1.84976 111.086 2.07208C111.753 2.2203 112.568 2.29441 113.457 2.2203C114.347 2.14619 114.939 1.99798 115.162 1.77566C114.495 1.84977 113.754 1.84977 112.864 1.84977ZM112.272 1.40513C112.049 1.33102 111.753 1.40513 111.308 1.55334C111.53 1.55334 111.679 1.55334 111.679 1.62744C111.753 1.62744 111.827 1.70155 111.975 1.70155C112.42 1.55334 112.494 1.40513 112.272 1.40513ZM111.012 1.47923H110.567V1.55334H111.012V1.47923ZM108.64 2.07208C108.863 2.07208 109.011 2.07209 109.011 2.14619C109.085 2.14619 109.159 2.2203 109.307 2.29441C109.307 2.07209 109.53 1.99798 109.974 2.14619C110.419 2.2203 110.567 2.2203 110.493 2.07208C110.122 2.14619 109.752 2.14619 109.455 2.07208C109.159 1.92387 108.937 1.92387 108.64 2.07208ZM106.936 1.99798C106.788 2.14619 106.862 2.14619 107.232 2.14619C107.603 2.14619 107.825 2.14619 107.973 2.2203C108.122 2.07209 108.047 1.99798 107.677 1.92387C107.306 1.92387 107.084 1.92387 106.936 1.99798ZM106.714 1.99798H106.047V2.2203H106.714V1.99798ZM102.786 1.99798C102.267 1.99798 102.045 2.07209 102.193 2.2203C102.193 2.29441 102.489 2.2944 103.008 2.36851C103.527 2.36851 103.749 2.29441 103.601 2.14619C103.601 2.07209 103.305 1.99798 102.786 1.99798ZM112.494 1.18281C110.715 1.1087 109.159 1.1087 107.677 1.1087C106.269 1.1087 104.861 1.1087 103.601 1.1087C102.267 1.1087 101.007 1.18281 99.7475 1.18281C98.4877 1.18281 97.0797 1.25691 95.5234 1.25691C97.4502 1.25691 99.6734 1.25691 102.193 1.25691C104.713 1.33102 106.788 1.25691 108.418 1.18281C108.789 1.25691 108.937 1.33102 108.863 1.40513C109.233 1.25692 109.826 1.25691 110.641 1.25691C111.53 1.33102 112.123 1.25691 112.494 1.18281ZM108.789 1.47923L108.937 1.40513C108.863 1.47923 108.789 1.47923 108.789 1.47923ZM95.3752 1.40513C95.5234 1.25692 95.3752 1.18281 94.9306 1.25691C94.4859 1.25691 94.3377 1.25691 94.4859 1.1087C94.56 1.1087 94.6341 1.1087 94.6341 1.0346C94.7082 1.0346 94.6341 0.960484 94.4859 0.960484C94.2636 1.1087 93.8931 1.18281 93.5225 1.18281C93.0779 1.18281 92.6333 1.18281 92.1145 1.18281C91.5958 1.18281 91.1511 1.18281 90.6324 1.18281C90.1877 1.18281 89.8913 1.25692 89.669 1.40513C90.7065 1.47923 91.5958 1.47923 92.3368 1.40513C93.0779 1.25692 94.1154 1.25692 95.3752 1.40513ZM89.5949 2.14619C89.5949 1.99798 89.4467 1.92387 89.1503 1.99798V2.29441C89.4467 2.36851 89.5949 2.36851 89.5949 2.14619ZM89.5208 1.18281C89.2244 1.18281 88.7797 1.18281 88.261 1.25691C87.7422 1.33102 87.5199 1.33102 87.594 1.33102C87.9645 1.33102 88.4092 1.33102 88.8538 1.33102C89.2985 1.40512 89.5208 1.33102 89.5208 1.18281ZM87.9645 2.14619H87.5199V2.2203H87.9645V2.14619ZM84.778 1.25691C85.0744 1.25691 85.2967 1.25691 85.3708 1.25691C83.8887 1.1087 82.1842 1.03459 80.2575 1.18281C78.6271 1.33102 77.2191 1.33102 76.1816 1.25691C77.4414 1.33102 78.553 1.33102 79.5164 1.33102C80.7021 1.33102 81.7396 1.25691 82.7771 1.18281C82.8512 1.18281 82.9253 1.18281 83.0735 1.18281C83.3699 1.18281 83.6664 1.18281 83.9628 1.18281C84.1851 1.25691 84.4815 1.25691 84.778 1.25691ZM75.737 2.36851V2.29441H75.2923V2.36851H75.737ZM73.7361 1.47923C74.3289 1.47923 74.6995 1.47923 74.8477 1.33102L72.6245 1.25691C72.7727 1.40513 73.1432 1.47923 73.7361 1.47923ZM69.0674 1.47923C68.9191 1.47923 68.6968 1.47923 68.3263 1.40513C67.9558 1.33102 67.7334 1.40513 67.6593 1.40513C67.8817 1.40513 68.1781 1.40513 68.5486 1.47923C68.845 1.55334 69.0674 1.47923 69.0674 1.47923ZM68.104 2.36851H67.6593V2.44262H68.104V2.36851ZM65.6585 1.55334C65.7326 1.40513 65.5102 1.33102 64.9915 1.40513C64.4727 1.40513 64.0281 1.40512 63.7317 1.33102V1.55334H65.6585ZM55.8023 2.51673H55.1353V2.73904H55.8023V2.51673ZM54.3201 2.44262H53.8755V2.66494H54.3201V2.44262ZM52.9862 2.44262H52.5416V2.66494H52.9862V2.44262ZM49.4291 1.70155L63.2129 1.47923C60.6933 1.40513 58.3219 1.40513 56.1728 1.40513C53.9496 1.47923 51.7264 1.55334 49.4291 1.70155ZM47.8729 2.59083H46.9836V2.81315H47.8729V2.59083ZM32.681 2.88726C32.4587 2.88726 32.5328 2.88726 32.7551 2.96137C32.9774 2.96137 33.1257 2.88726 33.1998 2.73904C33.2739 2.59083 33.1998 2.59083 33.0515 2.73904C32.9774 2.81315 32.8292 2.88726 32.681 2.88726ZM32.4587 2.66494H32.9033V2.44262H32.4587V2.66494ZM30.9025 2.59083C30.5319 2.59083 30.2355 2.59083 30.0132 2.59083C30.1614 2.81315 30.4578 2.88726 30.9766 2.81315C31.4953 2.73904 31.7917 2.66494 31.9399 2.66494C31.6435 2.59083 31.273 2.51673 30.9025 2.59083ZM27.2712 2.81315C27.3453 2.88726 27.2712 2.96136 27.123 3.10958C27.8641 3.10958 28.2346 3.03547 28.1605 2.81315H27.2712ZM26.0114 2.73904C25.5668 2.96136 24.7516 3.03547 23.7141 2.96137C22.6766 2.96137 21.9356 2.96136 21.4909 3.10958C21.8615 3.18368 22.1579 3.25779 22.3802 3.25779C22.6025 3.25779 22.6766 3.3319 22.6766 3.55421C23.0472 3.48011 23.3436 3.48011 23.5659 3.406C23.7882 3.406 24.1588 3.406 24.6775 3.406C24.8257 3.25779 25.1221 3.18368 25.4186 3.10958C25.7891 3.03547 26.1596 2.96137 26.6043 2.96137C26.4561 2.96137 26.382 2.88726 26.3078 2.81315C26.2337 2.81315 26.1596 2.81315 26.0114 2.73904ZM45.2791 1.84977C46.3907 1.84977 47.28 1.77566 47.8729 1.70155C43.9452 1.70155 39.9435 1.77566 35.7935 1.84977C31.6435 1.92387 27.79 2.07209 24.0846 2.29441C24.8998 2.29441 25.6409 2.29441 26.1596 2.29441C26.6784 2.29441 27.123 2.36851 27.5677 2.59083C27.79 2.36851 28.1605 2.29441 28.7534 2.2203C29.2721 2.14619 29.865 2.14619 30.5319 2.14619C31.1989 2.14619 31.8658 2.2203 32.6069 2.2203C33.348 2.2203 33.9408 2.2203 34.5337 2.14619C34.6078 2.2203 34.6819 2.2944 34.6819 2.36851C34.756 2.44262 34.9042 2.44262 35.2006 2.51673C35.9417 2.29441 36.831 2.07208 38.0167 2.07208C39.2024 1.99798 40.4622 1.99798 41.722 1.99798C42.9818 1.84976 44.1675 1.84977 45.2791 1.84977ZM3.48301 2.44262C3.11248 2.36851 2.89016 2.36851 2.74194 2.44262C2.59373 2.51672 2.37141 2.51672 2.00088 2.44262C1.92677 2.59083 1.85267 2.73904 1.77856 2.81315C1.70445 2.96136 1.85267 3.03547 2.2232 3.10958C2.74194 2.96136 3.03837 2.88726 2.96426 2.73904C2.81605 2.66494 3.03837 2.59083 3.48301 2.44262ZM152.289 31.0478H152.141V31.196H152.289V31.0478Z" fill="#D0B04E"/>
</svg>
