<svg width="160" height="128" viewBox="0 0 160 128" fill="none" xmlns="http://www.w3.org/2000/svg">
<path d="M60.0258 93.8727L113.703 92.1412L110.734 0L3.00953 3.46302L5.89539 93.8727H0V127.39H160V93.8727H60.0258Z" fill="#E71F68"/>
<path d="M15.168 120.549H17.1056V112.138H27.2886V110.324H17.1056V102.697H28.4841V100.883H15.168V120.549Z" fill="white"/>
<path d="M34.34 100.883H32.4023V120.549H45.3475V118.776H34.34V100.883Z" fill="white"/>
<path d="M56.3941 100.759C50.5812 100.759 46.1699 105.047 46.1699 110.736C46.1699 116.425 50.5812 120.713 56.3941 120.713C62.207 120.713 66.6183 116.425 66.6183 110.736C66.6183 105.047 62.207 100.759 56.3941 100.759ZM56.3941 118.899C51.653 118.899 48.1076 115.395 48.1076 110.736C48.1076 106.077 51.653 102.573 56.3941 102.573C61.0939 102.573 64.6394 106.077 64.6394 110.736C64.6394 115.395 61.0939 118.899 56.3941 118.899Z" fill="white"/>
<path d="M88.9647 117.58L83.2343 101.09L83.193 100.883H81.4615L75.6898 117.539L70.0418 100.883H67.9805L74.7004 120.549H76.5556L82.3273 103.975L87.9753 120.384L88.0578 120.549H89.913L96.5504 100.883H94.6128L88.9647 117.58Z" fill="white"/>
<path d="M101.867 111.479H112.05V109.706H101.867V102.697H113.287V100.883H99.9297V120.549H113.699V118.776H101.867V111.479Z" fill="white"/>
<path d="M133.325 107.603C133.325 103.398 130.357 100.883 125.369 100.883H118.236V120.549H120.174V114.282H125.369C125.904 114.282 126.482 114.241 127.1 114.158L131.635 120.549H133.902L129.038 113.746C131.8 112.798 133.325 110.613 133.325 107.603ZM125.369 112.551H120.174V102.697H125.369C129.244 102.697 131.388 104.429 131.388 107.603C131.388 110.778 129.244 112.551 125.369 112.551Z" fill="white"/>
<path d="M143.755 109.911C140.91 109.211 138.395 108.592 138.395 106.077C138.395 103.851 140.292 102.532 143.508 102.532C145.322 102.532 147.177 103.109 148.62 104.098L148.867 104.263L149.609 102.656L149.444 102.532C147.919 101.419 145.651 100.759 143.508 100.759C138.313 100.759 136.458 103.521 136.458 106.119C136.458 110.035 140.003 110.901 143.095 111.643C145.94 112.344 148.414 112.921 148.414 115.436C148.414 117.621 146.435 118.899 143.178 118.899C140.828 118.899 138.395 117.992 137.076 116.59L136.829 116.343L135.922 117.868L136.046 118.033C137.53 119.682 140.333 120.713 143.219 120.713C148.496 120.713 150.392 117.827 150.392 115.395C150.351 111.519 146.847 110.653 143.755 109.911Z" fill="white"/>
<path d="M16.076 83.3608L26.259 83.0722L26.2178 81.2583L16.0348 81.5881L15.7875 73.9612L27.166 73.5901L27.1247 71.8174L13.8086 72.2296L14.427 91.8947L16.3234 91.8122L16.076 83.3608Z" fill="white"/>
<path d="M44.5201 89.175L33.5127 89.5049L32.9767 71.6125L31.0391 71.695L31.6575 91.3601L44.6026 90.9478L44.5201 89.175Z" fill="white"/>
<path d="M50.1276 90.7813L52.0653 90.7401L51.8591 83.9378L59.3624 70.8277L57.301 70.869L50.8697 82.0826L43.7788 71.2812L41.5938 71.3637L49.9215 84.0202L50.1276 90.7813Z" fill="white"/>
<path d="M63.5519 70.6768L61.6152 70.7362L62.2185 90.3914L64.1552 90.3319L63.5519 70.6768Z" fill="white"/>
<path d="M72.2279 90.1221L71.7332 74.0026L84.8432 89.7099L86.4098 89.6686L85.7914 70.0036L83.8538 70.0448L84.3485 86.1644L71.3622 70.5395L71.2797 70.4571L69.6719 70.4983L70.2903 90.1633L72.2279 90.1221Z" fill="white"/>
<path d="M100.591 89.3797C100.714 89.3797 100.838 89.3797 100.962 89.3797C103.765 89.2973 106.239 88.3079 107.888 86.6176L107.97 86.5351L107.723 78.9907L105.827 79.0319L106.033 85.7518C104.672 86.8649 102.982 87.4421 100.921 87.5246C98.6119 87.607 96.4269 86.8237 94.8603 85.3808C93.2937 83.9379 92.3867 81.8765 92.3043 79.6503C92.2218 77.3829 93.0051 75.3215 94.4893 73.7549C95.9734 72.1883 98.076 71.3226 100.426 71.2401C102.858 71.1577 104.713 71.8173 106.28 73.2602L106.486 73.4663L107.682 72.1059L107.517 71.941C105.744 70.2095 103.271 69.3849 100.343 69.4674C94.3656 69.6323 90.1605 73.9611 90.3666 79.7328C90.5728 85.3396 94.8191 89.3797 100.591 89.3797Z" fill="white"/>
<path d="M151.67 101.622H152.536V103.601H153.072V101.622H153.896V101.21H151.67V101.622Z" fill="white"/>
<path d="M157.069 101.21H156.657L155.668 102.735L154.637 101.21H154.225V103.601H154.719V102.117L155.544 103.353H155.791L156.575 102.117V103.601H157.069V101.21Z" fill="white"/>
<path d="M61.4681 3.42187L61.0971 2.8447L60.4787 3.13328C52.4395 6.76121 45.9258 12.7803 41.6382 20.2423C40.3602 20.1186 39.0822 20.1186 37.8041 20.2423C36.5261 20.3659 35.2481 20.5721 34.0113 20.8607C28.5282 14.2232 21.025 9.35848 12.4498 7.13225L11.7902 6.96734L11.5429 7.58574C6.67814 18.7581 6.9255 31.4559 12.2437 42.4221C17.5619 53.3884 27.4151 61.4275 39.2058 64.4783L39.2883 64.5195C39.783 64.6844 40.319 64.8493 40.8137 64.973L41.597 65.1791L41.6794 65.2616L41.8031 65.2204L41.9268 65.2616L41.968 65.1379L42.7101 64.8081C42.9574 64.6844 43.3697 64.4783 43.3697 64.4783L43.9881 64.1897C55.078 59.1188 63.3646 49.5131 66.7039 37.8047C70.1257 26.1377 68.1881 13.5636 61.4681 3.42187ZM37.969 21.8089C42.1741 21.4791 46.338 22.4273 49.9247 24.4474C45.431 27.2095 41.8031 31.1261 39.4532 35.8259C36.2788 31.4559 31.9087 28.1165 26.8791 26.1377C30.0123 23.6641 33.8464 22.1387 37.969 21.8089ZM38.6699 37.4749C38.2164 38.5468 37.8041 39.7012 37.4743 40.8555C35.3305 48.4 36.3612 56.4804 40.3602 63.2003C33.1868 60.974 27.2914 55.8619 24.0757 49.0184C20.7776 41.9686 20.6539 33.8882 23.7871 26.7561C29.8886 28.4876 35.1244 32.2804 38.6699 37.4749ZM42.2978 63.2827C38.0515 56.7689 36.8559 48.7298 38.9997 41.2678C41.1023 33.8058 46.3792 27.6218 53.429 24.3237C57.6753 30.8375 58.8709 38.8766 56.7271 46.3386C54.6245 53.8419 49.3475 59.9846 42.2978 63.2827ZM13.6866 41.7213C8.65701 31.4146 8.3272 19.459 12.7384 8.86376C20.4478 11.0075 27.2502 15.4188 32.4035 21.3554C29.765 22.2624 27.2914 23.6641 25.1476 25.478C24.7766 25.3544 24.4055 25.2307 24.0345 25.1482L22.9626 24.8596L22.5091 25.8903C19.0873 33.476 19.1698 42.1748 22.7152 49.7192C24.3231 53.141 26.5905 56.1505 29.3527 58.6654C22.5503 54.6664 17.1084 48.8122 13.6866 41.7213ZM65.261 37.3925C63.1996 44.5659 59.2007 50.9148 53.8 55.8619C55.8201 53.141 57.3455 50.0902 58.2937 46.7921C60.6024 38.7942 59.2419 30.2191 54.6658 23.2518L54.0474 22.3036L53.0167 22.7571C52.522 23.0044 52.0273 23.2518 51.5326 23.4992C49.059 21.9738 46.2968 20.9019 43.4109 20.4484C47.4099 13.7285 53.3465 8.28659 60.5199 4.82357C66.6627 14.553 68.3942 26.385 65.261 37.3925Z" fill="white"/>
</svg>
