<svg width="335" height="102" viewBox="0 0 335 102" fill="none" xmlns="http://www.w3.org/2000/svg">
<path d="M110.787 51.6485L288.501 45.3488L286.885 0L7.47373 9.86648L8.90542 51.6485H0.5V102H334.5V51.6485H110.787Z" fill="#E71F68"/>
<path d="M139.191 42.1542L138.821 29.74L153.738 29.2768L153.646 26.6364L138.729 27.0997L138.405 15.8899L155.078 15.3803L154.985 12.74L135.45 13.3422L136.373 42.2005L139.191 42.1542Z" fill="white"/>
<path d="M180.567 40.8563L180.475 38.2159L164.357 38.7255L163.571 12.4612L160.708 12.5538L161.585 41.4585L180.567 40.8563Z" fill="white"/>
<path d="M188.651 40.6237L191.468 40.5311L191.191 30.5719L202.183 11.2559L199.134 11.3948L189.759 27.839L179.368 11.997L176.181 12.0896L188.374 30.6646L188.651 40.6237Z" fill="white"/>
<path d="M208.291 11.0795L205.475 11.1663L206.36 40.0564L209.176 39.9696L208.291 11.0795Z" fill="white"/>
<path d="M221.024 39.604L220.285 15.98L239.498 39.0481L241.807 38.9555L240.883 10.0972L238.066 10.1898L238.805 33.8138L219.639 10.7457L217.283 10.792L218.207 39.6966L221.024 39.604Z" fill="white"/>
<path d="M262.595 38.539C262.779 38.539 262.964 38.539 263.149 38.539C267.259 38.4 270.861 36.964 273.309 34.509L273.448 34.37L273.124 23.2992L270.353 23.3918L270.677 33.2583C268.691 34.9259 266.243 35.7597 263.195 35.8523C256.175 36.0376 250.772 31.0812 250.541 24.2719C250.31 17.4627 255.436 12.1357 262.456 11.9504C266.012 11.8578 268.737 12.7842 271.046 14.915L271.323 15.1929L273.078 13.2011L272.801 12.9232C270.215 10.4218 266.566 9.12481 262.317 9.26377C258.115 9.40274 254.328 10.9777 251.649 13.757C248.97 16.5363 247.585 20.2883 247.677 24.3646C247.908 32.6561 254.143 38.539 262.595 38.539Z" fill="white"/>
<path d="M121.917 91.0211H124.734V78.6069H139.651V75.9666H124.734V64.7568H141.406V62.1165H121.917V91.0211Z" fill="white"/>
<path d="M149.996 62.1165H147.132V91.0211H166.114V88.3808H149.996V62.1165Z" fill="white"/>
<path d="M182.279 61.8872C173.735 61.8872 167.316 68.1869 167.316 76.5248C167.316 84.8627 173.735 91.1624 182.279 91.1624C190.823 91.1624 197.243 84.8627 197.243 76.5248C197.243 68.1869 190.823 61.8872 182.279 61.8872ZM182.279 88.5221C175.352 88.5221 170.133 83.3804 170.133 76.5711C170.133 69.7619 175.352 64.6202 182.279 64.6202C189.161 64.6202 194.38 69.7619 194.38 76.5711C194.38 83.3804 189.207 88.5221 182.279 88.5221Z" fill="white"/>
<path d="M229.987 86.6206L221.535 62.1165H218.995L210.543 86.5742L202.276 62.1165H199.274L209.065 91.0211H211.79L220.242 66.6096L228.647 91.0211H231.372L241.117 62.1165H238.3L229.987 86.6206Z" fill="white"/>
<path d="M248.183 77.6373H263.1V75.0433H248.183V64.76H264.901V62.1196H245.366V91.0243H265.502V88.3839H248.183V77.6373Z" fill="white"/>
<path d="M294.276 71.9829C294.276 65.8222 289.888 62.1165 282.591 62.1165H272.154V91.0211H274.971V81.8494H282.591C283.423 81.8494 284.208 81.8031 285.131 81.6641L291.782 91.0211H295.061L287.949 81.0156C292.013 79.5797 294.276 76.3835 294.276 71.9829ZM282.591 79.2091H274.971V64.7568H282.591C288.272 64.7568 291.412 67.3045 291.412 71.9829C291.412 76.6614 288.272 79.2091 282.591 79.2091Z" fill="white"/>
<path d="M309.514 75.364C305.311 74.3449 301.709 73.4648 301.709 69.7591C301.709 66.4702 304.526 64.5247 309.191 64.5247C311.823 64.5247 314.548 65.3585 316.626 66.8408L316.996 67.1187L318.104 64.7563L317.827 64.5711C315.61 62.9498 312.285 61.9771 309.145 61.9771C301.524 61.9771 298.8 66.0533 298.8 69.8517C298.8 75.5956 303.972 76.8926 308.544 78.0043C312.701 79.0234 316.303 79.9035 316.303 83.6092C316.303 86.8054 313.44 88.7046 308.637 88.7046C305.173 88.7046 301.663 87.3612 299.677 85.2768L299.308 84.9062L297.968 87.1296L298.153 87.3612C300.324 89.77 304.434 91.2986 308.637 91.2986C316.396 91.2986 319.12 87.0833 319.12 83.4702C319.213 77.7264 314.086 76.4757 309.514 75.364Z" fill="white"/>
<path d="M321.015 63.5061H321.938V65.6832H322.539V63.5061H323.462V62.9966H321.015V63.5061Z" fill="white"/>
<path d="M326.558 62.9963L325.449 64.7102L324.341 62.9963H323.833V65.683H324.387V64.0154L325.311 65.4051H325.588L326.466 64.0154V65.683H327.02V62.9963H326.558Z" fill="white"/>
<path d="M108.617 66.1456C110.003 61.3745 110.788 56.5107 111.111 51.6007C111.989 37.0094 108.156 22.3255 99.9349 9.86497L99.3345 8.98486L98.3647 9.44808C85.3409 15.4236 74.7187 25.29 67.7449 37.4726C65.6667 37.2873 63.5884 37.2873 61.464 37.4263C59.3857 37.6116 57.3536 37.9358 55.4139 38.4454C46.5928 27.5598 34.4927 19.5462 20.6838 15.7478L19.6678 15.4699L19.2059 16.4426C11.0314 34.6007 11.2162 55.3527 19.6678 73.3718C25.256 85.2764 34.0771 95.1429 44.9764 101.998H53.8898C47.5165 97.6443 42.3439 91.6225 38.9725 84.4426C33.569 72.9086 33.3843 59.6606 38.5107 47.9876C48.5325 50.8132 57.0765 57.0666 62.8495 65.5434C62.0643 67.35 61.4178 69.2029 60.8636 71.102C57.9078 81.3854 58.6468 92.3173 62.7571 101.998H65.4819C61.233 92.5489 60.4017 81.8949 63.2651 71.7969C66.7751 59.568 75.3652 49.4699 86.9111 44.0503C93.8387 54.7505 95.8246 67.8595 92.3146 80.1347C89.8207 88.7969 84.7867 96.3936 77.9515 101.998H83.8168C95.7322 93.1511 104.461 80.6443 108.617 66.1456ZM38.8802 45.4399L37.1252 44.9767L36.3862 46.6443C30.798 59.0584 30.9366 73.2328 36.7095 85.5543C39.6191 91.8078 43.868 97.2274 49.0406 101.489C37.3099 94.865 27.7961 84.7669 21.9308 72.3527C13.941 55.399 13.6177 35.7587 21.0533 18.5271C33.569 22.1865 44.5607 29.459 52.7814 39.2328C48.394 40.7151 44.2836 42.9849 40.7275 46.0421C40.1271 45.8105 39.4805 45.6252 38.8802 45.4399ZM64.0964 62.9031C58.9239 55.7696 51.7654 50.211 43.4985 47.0148C48.7173 42.9849 54.9982 40.4835 61.6949 39.974C68.5762 39.4181 75.3652 40.993 81.2767 44.2819C73.8873 48.7751 67.9758 55.2137 64.0964 62.9031ZM87.1882 95.9767C90.5596 91.4835 93.1459 86.3418 94.7624 80.7832C98.5032 67.7206 96.3326 53.6851 88.8508 42.3364L87.8348 40.8078L86.1722 41.5489C85.3409 41.9195 84.5096 42.3364 83.7245 42.7533C79.6603 40.2056 75.1343 38.538 70.3774 37.7505C76.9355 26.726 86.5878 17.786 98.3647 12.1347C108.433 27.9767 111.296 47.3854 106.124 65.4045C102.798 77.3554 96.194 87.8704 87.1882 95.9767Z" fill="white"/>
</svg>
