<svg width="296" height="128" viewBox="0 0 296 128" fill="none" xmlns="http://www.w3.org/2000/svg">
<path d="M173.972 14.8786C175.059 14.0888 175.849 14.2863 176.737 15.0761C176.836 13.2003 176.342 11.3246 177.132 9.35006C177.429 9.94241 177.626 10.3373 177.725 10.7322C178.12 12.608 178.515 14.4837 178.91 16.3595C179.008 16.8531 179.107 17.3468 179.305 17.7416C180.49 19.42 180.391 21.3945 180.588 23.3689C180.687 24.4549 181.082 25.3434 182.07 26.1332C181.872 22.8753 181.675 19.8149 181.477 16.6557C182.761 17.0506 183.156 18.0378 183.255 19.0251C183.353 19.9136 183.255 20.8021 183.255 21.6906C183.057 23.7639 183.551 25.5409 184.736 27.1205C185.427 28.009 186.019 29.095 186.316 30.181C186.809 31.8593 187.896 32.8465 189.278 33.8338C189.574 34.0312 190.068 34.0312 190.463 33.9325C192.438 33.4389 194.314 33.5376 196.092 34.4261C198.363 35.6108 200.733 35.3146 203.102 34.6236C205.67 33.9325 208.336 33.1427 210.903 32.5503C213.471 31.958 216.038 31.7605 218.507 32.5503C219.988 32.9452 221.469 32.9452 222.95 32.3529C226.11 31.0695 229.566 30.7733 232.924 30.181C234.208 29.9835 235.491 29.4899 236.676 28.9963C238.849 28.1077 240.922 26.8243 243.292 26.7256C244.378 26.6269 245.366 26.7256 246.452 26.6269C247.44 26.6269 248.328 26.5281 249.217 26.4294C250.797 26.1332 252.377 25.7383 253.957 25.4422C256.524 25.0473 258.302 23.7638 259.092 21.2957C259.487 20.0123 259.684 18.7289 260.079 17.3468C259.98 17.3468 259.882 17.248 259.783 17.248C257.907 18.0378 256.03 18.9263 254.154 19.7161C254.154 19.6174 254.055 19.5187 254.055 19.5187C254.154 19.3212 254.154 19.2225 254.352 19.0251C256.623 16.7544 257.709 14.0888 258.104 10.9297C258.203 9.84368 258.697 8.85644 258.993 7.86919C253.957 7.47429 253.858 7.47429 252.377 5.99342C255.043 6.98067 257.413 7.17812 259.882 6.19087C259.882 5.59852 259.585 5.40107 258.993 5.4998C256.425 5.99342 253.957 5.99342 251.587 4.51255C251.389 4.3151 251.093 4.21638 250.896 4.01893C250.797 3.9202 250.599 3.9202 250.501 3.72276C253.167 4.21638 255.833 4.51255 258.499 3.82148C258.4 3.13041 258.005 3.03168 257.413 3.13041C255.24 3.32786 253.068 3.42658 250.896 2.63679C249.908 2.24189 249.019 1.74826 248.624 0.958467C250.896 1.15592 253.364 1.55081 255.734 1.45209C258.203 1.35337 260.77 0.958468 263.239 0.662294C264.325 0.563569 265.411 0.464844 266.596 0.464844C267.386 0.464844 267.682 0.958468 267.485 1.64954C267.189 2.43934 266.892 3.22913 266.596 4.11766C267.287 4.11766 267.979 4.21638 268.571 4.21638C270.645 4.3151 272.225 5.30235 273.607 6.78322C274.595 7.77047 275.483 8.75771 276.471 9.84368C275.878 10.0411 275.286 10.1399 274.693 10.3373C271.04 11.1271 267.485 12.1143 264.226 14.1876C264.128 14.2863 264.029 14.385 263.93 14.6812C264.226 14.6812 264.523 14.5825 264.72 14.5825C267.189 14.0888 269.657 13.4965 272.027 13.0029C272.719 12.9041 273.508 13.0029 274.2 13.1016C274.496 13.1016 274.891 13.4965 274.891 13.6939C274.792 14.4837 274.792 15.471 274.99 16.3595C275.088 17.0506 275.385 17.8404 275.878 18.4327C275.977 18.5314 276.076 18.7289 275.878 18.8276C275.681 18.9263 274.693 19.0251 274.595 19.2225C273.706 20.111 273.805 21.2957 273.706 22.5792C273.607 23.9613 272.916 24.5537 271.534 24.4549C271.237 24.4549 270.941 24.3562 270.645 24.2575C269.065 23.9613 268.077 24.5536 267.682 26.232C269.361 26.6269 271.139 26.8243 272.719 27.3179C274.595 27.9103 276.471 28.7988 278.347 29.3912C280.026 29.8848 281.803 30.2797 283.482 30.6746C286.642 31.3656 289.505 32.8465 292.369 34.3274C293.06 34.7223 293.751 35.0185 294.344 35.4134C295.529 36.2032 295.825 37.684 294.64 38.4738C291.678 40.3496 289.209 43.2126 285.556 44.0024C282.889 44.5947 280.124 44.5947 277.458 44.3973C274.595 44.1998 271.83 44.2986 269.065 45.3845C266.596 46.3718 263.93 46.668 261.264 46.3718C260.968 46.3718 260.671 46.2731 260.474 46.1743C259.882 46.0756 259.783 45.6807 260.079 45.2858C260.573 44.6935 261.264 44.1011 261.955 43.805C263.14 43.3113 264.424 43.1139 265.609 42.8177C265.905 42.719 266.201 42.6203 266.497 42.5215C266.497 42.4228 266.497 42.3241 266.497 42.2254C265.313 42.0279 264.128 41.9292 262.745 41.7317C262.943 42.1266 263.041 42.3241 263.14 42.6203C261.363 43.0151 259.585 43.5088 259.19 45.6807C259.092 46.1743 259.388 46.668 259.487 47.1616C259.585 47.1616 259.783 47.2603 259.882 47.2603C258.302 48.8399 256.722 50.5182 255.043 51.9991C252.772 53.8749 250.402 55.5532 248.131 57.4289C246.946 58.4162 245.958 59.6009 244.872 60.7856C243.983 61.8715 244.082 62.3652 245.168 63.3524C249.612 67.2027 253.858 71.2504 257.61 75.8904C258.302 76.6802 259.19 77.3713 259.98 78.0624C261.264 79.1484 262.153 80.4318 262.646 82.1101C263.239 84.0846 264.424 85.9604 265.115 87.9349C266.892 92.8711 268.571 97.906 270.349 102.842C270.842 104.224 271.237 105.705 271.632 107.087C271.83 107.68 272.027 107.877 272.62 107.778C273.508 107.68 274.298 107.581 275.187 107.581C276.372 107.581 276.767 108.075 276.273 109.161C275.878 110.148 275.385 111.135 274.792 112.122C274.496 112.616 274.496 112.912 274.792 113.307C276.668 115.479 277.853 118.046 279.137 120.514C279.828 121.896 281.112 122.982 282.099 124.167C282.593 124.759 283.284 125.351 283.877 125.944C284.568 126.734 284.469 127.227 283.383 127.425C281.704 127.721 280.223 127.425 278.841 126.339C278.248 125.845 277.656 125.351 277.261 124.759C276.175 123.081 274.595 122.291 272.62 122.094C271.929 121.995 271.139 121.797 270.447 121.6C269.065 121.106 268.67 120.218 269.065 118.836C269.361 117.947 269.855 117.059 270.151 116.071C270.349 115.676 270.349 115.282 270.546 114.788C267.584 115.084 264.819 115.084 262.548 113.11C266.399 113.899 268.472 113.899 269.954 112.715C269.657 112.616 269.262 112.419 268.966 112.517C266.497 112.912 264.128 112.912 261.955 111.629C261.461 111.333 261.066 111.036 260.573 110.543C263.239 111.135 265.905 111.431 268.571 110.642C268.571 110.543 268.67 110.444 268.67 110.345C268.374 110.247 268.077 110.049 267.682 110.049C265.806 109.95 264.029 110.049 262.153 109.852C260.77 109.654 259.585 109.062 258.598 107.68C261.461 108.272 264.029 108.667 266.892 108.371C265.708 106.89 264.621 105.607 263.535 104.323C262.153 102.842 260.77 101.361 259.388 99.7818C257.215 97.4124 256.129 94.3519 255.043 91.2915C254.549 89.7119 254.154 88.1323 253.562 86.5527C253.463 86.1578 253.167 85.7629 252.772 85.5655C245.465 82.1101 238.355 78.2598 231.541 73.8172C230.85 73.4223 230.356 73.4223 229.665 73.6198C226.308 74.5083 222.95 75.2981 219.593 75.8904C215.643 76.6802 211.595 76.6802 207.645 76.6802C205.571 76.6802 203.497 76.9764 201.523 76.3841C197.079 75.1994 192.537 74.0147 188.093 72.9287C183.452 71.744 178.811 70.658 174.071 69.5721C171.899 69.0784 169.825 69.3746 167.653 69.5721C165.48 69.7695 163.308 69.8682 161.234 69.6708C159.16 69.4733 157.284 69.7695 155.408 70.2631C154.519 70.4606 153.631 70.7568 152.742 70.8555C151.853 71.0529 151.557 70.658 151.853 69.7695C152.742 67.3014 154.618 66.018 157.186 65.8205C158.864 65.6231 160.247 65.1295 161.432 63.9448C161.728 63.6486 162.024 63.3524 162.32 63.155C164.197 61.6741 165.974 61.7728 167.455 63.7473C168.245 64.7346 169.134 65.2282 170.319 65.3269C170.714 64.3397 170.319 63.846 169.43 63.5499C167.751 62.9575 166.171 61.8716 164.987 60.4894C164.394 59.7983 164.098 59.0085 163.703 58.2187C165.381 60.1932 167.455 61.5754 170.121 62.069C170.418 61.3779 170.121 61.1805 169.529 60.983C166.863 59.9958 164.592 58.5149 163.407 55.7506C163.407 55.6519 163.308 55.5532 163.308 55.4544C163.308 55.3557 163.308 55.3557 163.308 55.0596C165.283 57.034 167.356 58.5149 170.023 59.206C170.319 58.4162 169.825 58.3175 169.43 58.0213C167.85 57.034 166.171 56.0468 164.69 54.8621C163.703 54.0723 163.11 52.9863 163.11 51.4067C165.381 53.6774 167.85 55.3557 170.615 56.6391C172.59 57.5277 174.664 58.4162 176.639 59.3047C177.33 59.6009 178.021 59.9958 178.712 60.4894C179.403 60.8843 179.403 61.4767 178.811 61.9703C177.824 62.7601 176.737 63.5499 175.75 64.3397C175.256 64.6358 174.861 65.0307 174.367 65.4256C174.565 65.5244 174.565 65.6231 174.664 65.6231C177.429 65.6231 180.292 65.9193 183.057 65.4256C188.982 64.4384 194.413 65.7218 199.745 67.8938C201.523 68.6836 203.102 68.6835 204.781 67.795C206.46 66.9065 208.336 66.1167 210.015 65.3269C213.668 63.4511 217.618 62.4639 221.667 62.069C222.358 61.9703 223.049 61.9703 223.74 61.8715C223.938 61.8715 224.333 61.6741 224.432 61.4767C225.913 58.9098 228.283 57.4289 230.751 56.0468C231.344 55.7506 231.838 55.3557 232.331 55.0596C233.615 54.171 234.306 52.9863 234.306 51.4067C234.405 47.5565 234.997 43.8049 235.886 40.0534C235.985 39.7572 235.985 39.4611 236.084 39.0662C235.59 39.0662 235.096 39.0662 234.701 39.0662C230.356 39.4611 226.11 38.9674 221.864 38.3751C219.988 38.0789 218.013 38.2764 216.137 38.5725C212.977 38.9674 209.817 39.0662 206.657 38.9674C203.201 38.8687 199.646 38.9674 196.19 39.0662C196.092 39.0662 195.993 39.0662 195.499 39.1649C196.684 39.9547 197.77 40.6458 198.758 41.2381C199.35 41.633 199.943 41.9292 200.535 42.2254C201.325 42.6203 202.016 43.1139 202.115 44.1011C202.214 44.3973 202.609 44.6935 202.806 44.9896C202.905 45.1871 203.004 45.4833 203.004 45.7794C202.708 45.8782 202.313 46.0756 202.115 45.9769C201.621 45.7794 201.226 45.4833 200.733 45.1871C196.882 42.719 192.932 40.2509 189.081 37.684C188.093 37.0917 187.303 36.2032 186.217 35.6108C185.131 34.9197 183.847 34.5248 182.662 34.0312C181.971 33.6363 181.28 33.2414 180.588 32.7478C179.897 32.2542 179.305 31.6618 178.515 31.1682C176.935 30.181 175.157 30.2797 173.479 30.9707C172.985 31.1682 172.392 31.3656 171.899 31.6618C169.726 33.044 167.356 32.6491 165.085 32.2542C164.789 32.2542 164.592 32.0567 164.197 31.8593C165.48 30.6746 166.863 29.9835 168.344 29.2924C169.331 28.8975 170.319 28.4039 171.306 28.009C171.602 27.9103 171.997 27.9103 172.294 27.8116C173.577 27.7128 174.861 27.8116 176.145 27.6141C177.034 27.5154 177.824 27.5154 178.515 28.009C180.095 29.2924 181.675 30.5759 183.255 31.8593C184.538 32.8465 185.822 33.8338 187.106 34.821C187.204 34.9197 187.501 34.821 187.698 34.9197C187.698 34.7223 187.698 34.4261 187.599 34.3274C185.131 32.1554 182.761 29.9835 180.292 28.009C178.91 26.8243 177.231 26.3307 175.355 26.3307C172.886 26.4294 170.516 26.0345 168.838 23.9613C168.146 23.0728 167.653 21.8881 167.455 20.8021C167.356 20.111 167.949 19.2225 168.245 18.334C167.653 18.1365 166.863 17.9391 166.073 17.7416C163.9 17.0506 162.617 15.5697 162.024 13.3978C161.925 13.0029 162.024 12.4105 162.222 12.0156C162.617 11.3246 163.11 10.6335 163.505 9.9424C163.9 9.25133 164.394 8.95516 165.184 8.75771C166.171 8.56026 167.06 7.86919 167.949 7.27684C169.331 6.2896 170.023 6.48704 170.911 7.86919C171.306 8.46154 171.899 8.95516 172.491 9.15261C173.38 9.54751 173.775 10.1399 173.775 11.0284C174.071 12.3118 173.972 13.4965 173.972 14.8786ZM248.131 79.8394L248.328 79.5433C248.131 79.2471 247.933 78.8522 247.637 78.6547C246.353 77.5688 244.971 76.5815 243.687 75.4955C241.218 73.3236 238.75 71.1517 236.38 68.881C235.096 67.5976 234.998 66.018 235.689 64.3397C236.281 63.0562 236.972 61.8716 238.256 61.0818C238.552 60.8843 238.947 60.6869 238.552 60.1932C237.071 58.2187 234.208 57.3302 232.035 58.5149C230.85 59.1073 229.764 59.9958 228.875 61.0818C226.999 63.2537 227.098 66.3142 229.171 68.4861C229.961 69.2759 230.85 70.0657 231.838 70.658C235.689 73.1262 239.639 75.5943 243.588 77.9637C244.675 78.6547 245.86 79.1484 247.045 79.7407C247.242 79.7407 247.637 79.7407 248.131 79.8394ZM245.563 33.6363C245.465 33.6363 245.366 33.6363 245.267 33.6363C245.07 34.0312 244.773 34.3274 244.576 34.7223C243.983 36.0057 242.996 36.8942 241.613 37.4866C241.021 37.684 240.429 38.0789 239.737 38.1776C238.947 38.3751 238.454 38.8687 238.355 39.6585C237.861 42.1266 237.269 44.5947 236.775 47.0629C236.577 48.2476 237.269 49.3335 238.355 49.7284C238.849 49.9259 238.947 49.531 239.145 49.2348C239.54 48.445 239.836 47.4578 240.429 46.8654C243.588 43.7062 247.242 41.7317 251.784 41.4356C252.179 41.4356 252.574 41.3368 252.871 41.2381C252.476 40.8432 252.081 40.7445 251.784 40.547C250.599 40.1521 249.414 39.856 248.229 39.3623C246.452 38.77 245.563 37.3878 245.563 35.5121C245.563 35.1172 245.563 34.7223 245.563 34.3274C245.662 34.2287 245.662 33.9325 245.563 33.6363ZM272.324 35.0185C271.632 37.4866 270.349 39.3623 268.374 40.7445C273.706 42.4228 278.051 40.4483 282.396 37.2891C278.841 36.993 275.483 36.598 272.324 35.0185ZM263.733 23.2702C261.758 22.6779 262.054 20.5059 261.264 18.9263C260.968 19.6174 260.77 20.2098 260.77 20.9008C260.573 23.1715 259.487 24.8498 257.314 25.7383C256.327 26.1332 255.24 26.5281 254.154 26.8243C252.969 27.2192 251.686 27.4167 250.501 27.8116C250.204 27.9103 250.106 28.3052 249.908 28.5026C250.204 28.6014 250.501 28.7988 250.698 28.7988C253.66 28.6014 256.524 28.4039 259.487 28.2065C260.869 28.1077 261.56 27.4167 262.054 26.0345C262.35 25.146 263.14 24.2575 263.733 23.2702ZM229.171 71.8427C229.171 71.744 229.171 71.6453 229.171 71.4478C228.875 71.2504 228.579 70.9542 228.381 70.7568C227.592 69.967 226.703 69.2759 226.012 68.3874C225.222 67.4001 225.024 67.2027 224.234 68.2887C222.062 71.1517 219.099 72.7313 215.643 73.4223C215.051 73.5211 214.36 73.7185 213.767 73.916C213.57 74.0147 213.372 74.2121 213.372 74.4096C213.372 74.607 213.668 74.7057 213.866 74.8045C214.063 74.9032 214.261 74.8045 214.557 74.8045C218.211 74.2121 221.766 73.5211 225.419 72.83C226.703 72.5338 227.888 72.1389 229.171 71.8427ZM164.493 12.3118C164.789 13.299 165.875 13.9901 167.159 14.0888C169.035 14.1876 170.319 13.4965 170.714 12.0156C171.01 11.2258 171.306 10.436 170.516 9.44878C170.22 10.1399 170.023 10.6335 169.825 11.1271C169.43 11.9169 168.64 12.2131 168.245 11.8182C167.751 11.4233 167.751 10.6335 168.245 10.0411C168.541 9.74496 168.838 9.44878 169.233 9.15261C167.751 8.75771 166.961 9.84368 166.566 12.8054C165.875 12.608 165.283 12.4105 164.493 12.3118ZM169.825 20.111C170.615 21.3945 171.899 21.9868 173.479 21.7894C174.861 21.6906 175.849 21.0983 176.244 19.7161C176.54 18.9263 176.836 18.0378 176.046 17.0506C175.75 17.7416 175.552 18.2353 175.355 18.7289C175.059 19.3212 174.565 19.9136 173.775 19.5187C173.084 19.1238 173.38 18.4327 173.577 17.8404C173.676 17.5442 173.775 17.3468 173.874 16.8531C172.195 17.6429 172.195 19.0251 172.096 20.5059C171.405 20.4072 170.714 20.2098 169.825 20.111Z" fill="#CBAD58"/>
<path d="M32.1735 125.449V126.831H17.2628C17.2628 126.436 17.1641 125.942 17.1641 125.449C17.8553 125.251 18.4478 125.153 19.139 124.955C20.7189 124.462 21.2127 123.672 21.2127 122.092C21.2127 117.551 21.2127 113.01 21.2127 108.567C21.2127 106.494 20.8177 105.901 18.744 105.309C18.5465 105.21 18.349 105.21 18.1515 105.112V103.828C19.0402 103.631 20.0277 103.433 20.8177 103.137C22.2001 102.643 23.5826 102.051 24.7675 101.261C25.755 100.57 26.7424 100.669 27.9274 100.669V104.223C28.3224 104.026 28.6186 103.927 28.9148 103.729C31.3835 102.249 34.0496 101.163 36.9133 100.866C42.2456 100.274 46.0967 103.532 46.0967 108.764C46.0967 113.108 46.1954 117.452 46.0967 121.895C46.0967 123.376 46.6891 124.264 47.9728 124.758C48.6641 125.054 49.3553 125.251 50.1453 125.548V126.93H35.2346C34.9384 125.646 34.9384 125.548 36.1233 125.251C36.4195 125.153 36.7158 125.054 37.012 124.955C38.4932 124.363 38.9869 123.672 38.9869 122.092C38.9869 119.624 38.9869 117.057 38.9869 114.589C38.9869 112.911 39.0857 111.134 38.8882 109.455C38.3945 105.21 36.0246 104.322 32.5684 105.013C31.581 105.21 30.6923 105.704 29.9023 106.198C28.7174 106.987 28.0261 107.975 28.0261 109.554C28.1249 113.701 28.0261 117.748 28.0261 121.895C28.0261 123.573 28.5199 124.363 30.0998 125.054C30.8898 125.054 31.4822 125.251 32.1735 125.449Z" fill="#CBAD58"/>
<path d="M133.191 125.45V126.832H118.675V125.45C119.465 125.252 120.156 125.055 120.946 124.759C122.131 124.265 122.724 123.475 122.625 122.192C122.625 117.058 122.625 111.925 122.625 106.791C122.625 106.001 122.427 105.705 121.637 105.804C121.045 105.902 120.452 105.804 119.86 105.804C118.576 105.804 118.576 105.804 118.675 104.52C118.675 104.323 118.675 104.125 118.774 103.73H122.724C122.724 103.138 122.724 102.644 122.724 102.052C122.822 99.8801 122.822 97.7082 123.02 95.4375C123.316 92.2783 124.698 89.6128 126.97 87.4408C129.241 85.1702 131.808 83.3931 134.968 82.8995C137.535 82.5046 140.103 82.5046 142.473 83.788C144.349 84.7753 145.139 86.2561 144.843 87.9344C144.645 89.2179 143.855 90.3038 142.67 90.6987C141.288 91.1923 139.905 91.0936 138.819 90.0077C138.128 89.3166 137.634 88.6255 137.042 87.8357C135.857 86.2561 134.376 85.6638 132.499 86.1574C131.018 86.5523 130.228 87.6383 129.932 89.1191C129.636 90.6 129.438 92.1796 129.34 93.7592C129.241 96.7209 129.241 99.7814 129.142 102.743C129.142 103.434 129.34 103.73 130.031 103.73C131.216 103.632 132.401 103.73 133.586 103.73C134.277 103.73 134.376 104.027 134.376 104.619C134.376 105.113 134.573 105.804 133.684 105.804C132.499 105.804 131.216 105.804 130.031 105.804C129.438 105.804 129.142 106.001 129.142 106.593C129.142 111.826 129.142 117.058 129.142 122.291C129.142 123.574 129.932 124.166 130.919 124.66C131.611 124.956 132.401 125.154 133.191 125.45Z" fill="#CBAD58"/>
<path d="M167.947 127.327C161.233 127.327 155.308 122.489 154.123 116.072C152.839 109.062 157.283 102.448 164.195 100.868C167.849 100.079 171.502 100.177 174.958 101.856C180.093 104.324 182.364 108.668 182.266 114.295C182.167 120.515 177.624 125.648 171.206 127.03C170.12 127.129 168.935 127.129 167.947 127.327ZM161.134 113.801C161.43 115.578 161.529 117.355 161.924 119.034C162.319 120.909 163.208 122.686 164.689 123.97C167.454 126.241 171.502 125.352 173.082 121.995C175.65 116.664 175.452 111.136 173.082 105.805C172.391 104.324 171.206 103.139 169.527 102.645C167.059 101.856 164.59 102.942 163.109 105.508C161.726 107.976 161.233 110.84 161.134 113.801Z" fill="#CBAD58"/>
<path d="M230.16 121.895C230.358 121.994 230.654 122.192 230.95 122.29C229.568 127.029 223.347 129.398 219.397 123.87C218.607 124.462 217.817 125.055 216.928 125.548C214.756 126.832 212.485 127.325 209.917 126.733C205.474 125.647 203.203 120.612 206.264 116.169C207.646 114.195 209.621 113.208 211.892 112.517C214.065 111.924 216.237 111.233 218.409 110.641C219.002 110.443 219.199 110.246 219.199 109.654C219.199 108.37 219.298 107.185 219.199 105.902C219.199 105.211 219.002 104.52 218.706 103.927C217.521 101.558 214.756 101.361 213.176 103.434C212.485 104.322 211.892 105.408 211.201 106.396C210.707 107.087 210.115 107.778 209.424 108.37C208.337 109.16 207.251 109.061 206.264 108.271C205.474 107.679 205.375 106.791 205.869 105.606C206.955 102.842 209.325 101.459 212.09 100.768C214.756 100.077 217.521 100.077 220.187 100.867C223.248 101.756 225.815 104.421 225.717 108.074C225.618 112.517 225.717 116.959 225.815 121.303C225.815 121.797 225.914 122.29 226.112 122.784C226.507 123.672 227.494 124.067 228.284 123.475C228.778 123.08 229.37 122.488 230.16 121.895ZM219.199 116.959C219.199 115.972 219.199 114.886 219.199 113.899C219.199 113.306 219.002 113.109 218.409 113.306C217.027 113.8 215.645 114.096 214.361 114.787C211.892 116.169 211.102 118.341 211.793 121.106C212.188 122.685 213.077 123.376 214.657 123.475C217.521 123.672 219.002 122.192 219.101 119.427C219.199 118.539 219.199 117.749 219.199 116.959Z" fill="#CBAD58"/>
<path d="M0.376314 126.833C0.376314 126.34 0.376312 125.945 0.277566 125.451C1.06753 125.254 1.75876 125.056 2.35124 124.859C3.73368 124.365 4.22741 123.575 4.22741 122.193C4.22741 111.827 4.22741 101.461 4.22741 90.9963C4.22741 88.6269 3.63494 87.8371 1.36378 87.2447C0.178822 86.9485 0.17882 86.9486 0.277566 85.5664H15.4845C15.682 86.8498 15.682 86.8498 14.497 87.2447C13.9045 87.4422 13.4108 87.6396 12.9171 87.8371C12.0283 88.3307 11.6334 89.0218 11.6334 90.1077C11.6334 98.4006 11.6334 106.693 11.6334 114.986C11.6334 117.257 11.7321 119.626 11.6334 121.897C11.5346 123.378 12.3246 124.266 13.5095 124.76C14.2008 125.056 14.892 125.254 15.5832 125.451V126.833H0.376314Z" fill="#CBAD58"/>
<path d="M94.1849 105.707C91.6175 107.78 89.3464 109.656 86.9765 111.532C84.3103 113.704 81.7429 115.876 79.0768 117.949C78.3856 118.442 78.4843 118.837 78.8793 119.43C80.4592 121.503 82.7304 122.293 85.1991 122.589C87.9639 122.984 90.6301 122.391 92.8025 120.614C92.9012 120.713 93 120.713 93.0987 120.812C94.1849 122.095 94.1849 122.095 93 123.181C90.6301 125.353 88.0627 127.031 84.8041 127.229C78.3856 127.624 71.4733 124.958 69.8934 116.764C68.4122 109.064 72.757 102.646 80.3605 100.968C84.3103 100.178 87.7664 101.166 91.0251 103.436C91.6175 103.831 92.21 104.127 92.7037 104.522C93.0987 104.818 93.5925 105.213 94.1849 105.707ZM77.3981 116.073C77.5956 115.974 77.7931 115.974 77.8918 115.876C80.953 113.407 84.1128 110.939 87.174 108.471C87.3715 108.274 87.6677 107.78 87.569 107.484C87.174 105.806 86.384 104.226 84.9028 103.239C82.6317 101.758 79.1755 102.844 77.9906 105.411C76.5094 108.866 76.7069 112.42 77.3981 116.073Z" fill="#CBAD58"/>
<path d="M139.509 94.7467V93.562C140.99 93.1671 142.372 92.7722 143.755 92.2786C144.742 91.8837 145.73 91.1926 146.717 90.699C147.013 90.6002 147.31 90.4028 147.606 90.4028C149.383 90.2053 149.383 90.2053 149.383 91.9824C149.383 101.954 149.383 111.925 149.383 121.896C149.383 123.476 150.075 124.265 151.358 124.858C151.951 125.154 152.642 125.351 153.432 125.549V126.931H138.719V125.549C139.607 125.253 140.397 125.055 141.187 124.759C142.175 124.364 142.669 123.574 142.669 122.39C142.669 114.393 142.669 106.297 142.669 98.3008C142.669 96.425 142.372 95.6352 140.2 94.9441C139.805 94.7467 139.706 94.7467 139.509 94.7467Z" fill="#CBAD58"/>
<path d="M193.919 100.375V106.002C194.018 106.002 194.117 106.002 194.215 106.002C194.413 105.607 194.61 105.213 194.808 104.818C195.598 103.238 196.783 101.955 198.461 101.165C200.733 100.178 203.498 101.362 203.991 103.534C204.288 104.719 203.991 105.805 203.004 106.595C201.918 107.384 200.733 107.681 199.449 107.088C199.35 106.99 199.153 106.891 199.054 106.891C196.882 105.607 195.894 105.904 194.907 108.273C194.61 109.063 194.314 109.951 194.314 110.84C194.215 114.394 194.314 118.047 194.215 121.601C194.215 123.18 194.808 124.069 196.19 124.661C196.882 124.957 197.474 125.155 198.264 125.352V126.734H183.551V125.352C184.341 125.056 185.229 124.859 185.921 124.563C187.007 124.168 187.501 123.378 187.402 122.193C187.402 117.553 187.402 112.913 187.402 108.372C187.402 106.298 187.106 105.805 185.131 105.213C184.933 105.114 184.736 105.114 184.44 105.015V103.732C185.328 103.534 186.217 103.435 187.007 103.041C188.488 102.448 189.969 101.56 191.45 100.967C192.142 100.671 192.932 100.671 193.919 100.375Z" fill="#CBAD58"/>
<path d="M97.1465 105.014V103.731C98.0352 103.533 99.0227 103.336 99.9114 103.039C101.195 102.546 102.578 101.953 103.763 101.262C104.651 100.67 105.441 100.571 106.626 100.67V105.902C106.725 105.902 106.824 105.902 106.922 105.902C107.317 105.211 107.614 104.619 108.009 103.928C109.194 102.151 110.773 100.868 113.045 100.868C114.921 100.868 116.501 102.348 116.698 104.027C116.797 105.211 116.303 106.1 115.316 106.791C114.23 107.482 113.143 107.581 111.958 107.087H111.86C110.872 106.594 109.984 105.705 108.897 106.396C107.614 107.186 107.021 108.568 106.922 109.95C106.824 113.109 106.824 116.17 106.824 119.329C106.824 120.316 106.922 121.205 106.824 122.192C106.725 123.278 107.317 123.969 108.107 124.463C108.601 124.759 109.095 124.956 109.589 125.055C110.872 125.45 110.872 125.45 110.576 126.733H96.2578V125.351C96.8503 125.154 97.4428 125.055 97.9365 124.858C99.6152 124.265 100.109 123.574 100.109 121.797C100.109 117.355 100.109 112.912 100.109 108.469C100.109 106.297 99.8127 105.804 97.739 105.113C97.6403 105.211 97.4428 105.113 97.1465 105.014Z" fill="#CBAD58"/>
<path d="M61.3032 103.63C61.3032 104.025 61.2044 104.42 61.2044 104.716C61.2044 109.949 61.2044 115.082 61.2044 120.315C61.2044 120.512 61.2044 120.71 61.2044 120.907C61.3032 122.092 61.6981 123.178 62.7843 123.671C63.8706 124.165 64.858 123.869 65.8455 123.178C65.9442 123.079 66.043 123.079 66.1417 122.98C66.6354 123.375 67.0304 123.671 67.6229 124.066C66.4379 126.238 64.463 127.225 62.1919 127.423C59.9207 127.62 57.7483 127.324 56.0696 125.448C55.0822 124.264 54.6872 122.783 54.6872 121.302C54.6872 115.872 54.6872 110.442 54.6872 105.012V103.828H51.1323C50.8361 102.84 51.0336 102.248 51.9223 101.754C54.7859 100.175 57.2546 98.2003 59.1307 95.4361C59.3282 95.0412 60.2169 95.1399 60.8094 95.1399C60.9082 95.1399 61.1057 95.7322 61.1057 96.0284C61.1057 97.4105 61.1057 98.7927 61.1057 100.274C61.1057 100.668 61.1057 101.063 61.2044 101.557H66.8329C66.8329 102.149 66.9317 102.742 66.8329 103.334C66.8329 103.531 66.3392 103.729 66.043 103.828C64.7593 103.828 63.5743 103.828 62.2906 103.828H61.3032V103.63Z" fill="#CBAD58"/>
<path d="M161.135 29.3918C160.147 29.2931 158.962 29.5893 158.37 28.2071C158.271 27.9109 157.58 27.8122 157.185 27.6148C155.803 26.9237 155.605 26.2326 156 24.8505C156.198 24.1594 156.198 23.3696 156.099 22.7773C155.901 21.4938 156.296 20.3092 157.382 19.6181C158.271 19.0257 159.259 18.4334 160.147 17.9398C161.629 17.0512 163.11 17.2487 164.196 18.5321C164.69 19.1245 165.183 19.9143 165.48 20.6053C166.27 22.4811 167.455 23.962 169.034 25.1467C169.429 25.4428 169.824 25.739 170.121 26.0352C171.009 27.0224 170.911 27.7135 169.627 28.0097C167.652 28.5033 165.578 28.8982 163.603 29.2931C162.813 29.3918 161.925 29.2931 161.135 29.3918ZM162.715 19.3219C162.616 19.3219 162.418 19.4206 162.32 19.4206C162.32 20.1117 162.418 20.8028 162.32 21.4938C162.221 22.0862 161.925 22.6785 161.135 22.6785C160.345 22.6785 160.246 21.9875 160.246 21.3951C160.246 21.0002 160.246 20.6053 160.147 20.2104H159.851C158.765 21.4938 159.259 22.876 159.95 24.3569C159.061 24.5543 158.37 24.7518 157.284 24.9492C158.567 25.9365 159.654 25.8377 160.839 25.4428C162.32 24.9492 163.505 24.1594 163.603 22.4811C163.702 21.1977 163.505 20.2104 162.715 19.3219Z" fill="#CBAD58"/>
<path d="M226.703 100.671C226.703 99.5849 227.592 98.5977 228.777 98.5977C229.962 98.5977 230.85 99.4862 230.85 100.671C230.85 101.757 229.962 102.744 228.777 102.744C227.592 102.744 226.703 101.856 226.703 100.671ZM230.554 100.671C230.554 99.6836 229.764 98.7951 228.678 98.7951C227.592 98.7951 226.802 99.5849 226.802 100.671C226.802 101.658 227.592 102.547 228.678 102.547C229.764 102.547 230.554 101.658 230.554 100.671ZM227.888 99.5849H228.876C229.172 99.5849 229.369 99.6836 229.567 99.7824C229.665 99.8811 229.764 100.079 229.764 100.276C229.764 100.671 229.567 100.868 229.271 100.967L229.863 101.757H229.369L228.876 100.967H228.481V101.757H228.086V99.5849H227.888ZM228.876 100.572C229.172 100.572 229.271 100.473 229.271 100.276C229.271 100.079 229.073 99.9798 228.876 99.9798H228.382V100.671H228.876V100.572Z" fill="#CBAD58"/>
<path d="M286.445 125.351C286.445 124.265 287.334 123.277 288.519 123.277C289.704 123.277 290.593 124.166 290.593 125.351C290.593 126.437 289.704 127.424 288.519 127.424C287.334 127.325 286.445 126.437 286.445 125.351ZM290.395 125.351C290.395 124.363 289.605 123.475 288.519 123.475C287.433 123.475 286.643 124.265 286.643 125.351C286.643 126.338 287.433 127.226 288.519 127.226C289.605 127.128 290.395 126.338 290.395 125.351ZM287.729 124.166H288.716C289.013 124.166 289.21 124.265 289.408 124.363C289.506 124.462 289.605 124.659 289.605 124.857C289.605 125.252 289.408 125.449 289.111 125.548L289.704 126.338H289.21L288.716 125.548H288.321V126.338H287.927V124.166H287.729ZM288.618 125.252C288.914 125.252 289.013 125.153 289.013 124.956C289.013 124.758 288.815 124.659 288.618 124.659H288.124V125.351H288.618V125.252Z" fill="#CBAD58"/>
</svg>
