<svg id="Layer_1" data-name="Layer 1" xmlns="http://www.w3.org/2000/svg" viewBox="0 0 360 360"><defs><style>.cls-1{fill:#4758a8;}.cls-2{fill:#fff;}.cls-3{fill:#ed5868;}</style></defs><title>AUSTRALIA</title><path class="cls-1" d="M360,1V360H1q0-100.92.05-201.85c0-4.66.09-9.32.15-14l15.73-.24c5.77,2.41,11.09,1.59,15.48-2.81,7.84-7.86,15.44-15.94,23.2-23.88a5.62,5.62,0,0,1,3.09-1.8c.64,0,1.95,1.41,2,2.25.46,6.41,1.3,12.89.81,19.25-.54,6.89-.32,7.81,6.64,7.9l10-.62c5.33,1.16,7-.1,7-5.46,0-7.13-.06-14.27.08-21.41,0-1.26,1-2.5,1.47-3.76,1.21.54,2.72.78,3.57,1.66,7.8,8.06,15.5,16.22,23.19,24.39,5.84,6.21,12.9,6.61,20.53,4.4,4.22,0,8.46-.21,12.67,0,3.17.17,3.57-1.49,3.36-3.93.61-.4,1.75-.82,1.74-1.21-.11-4.13-.31-8.26-.7-12.37a5.12,5.12,0,0,0-1.48-2.93q-17.4-17-34.89-34a29.52,29.52,0,0,1-2.13-2.85c2.71-.72,4.72-1.68,6.76-1.72,8.8-.17,17.61,0,26.42-.11,4.94-.07,6-1.92,4.15-6.53,2.8-3.57,2.92-7.37,1-11.36.22-7.41-.18-7.42-7.36-6.84-7.59.62-15.24.5-22.87.5-1.48,0-3-.9-5.09-1.6a32.45,32.45,0,0,1,2.62-3.67c9-9.06,17.77-18.36,27.15-27,5.17-4.76,6.61-10,5.49-16.47L151,1.2c2-.06,4-.15,6-.15ZM102.53,265c4.68,0,5.37-1.69,3.58-6.3-3-7.63-3.66-14.8,4.08-20.31a10.61,10.61,0,0,0,2.79-2.84,57.63,57.63,0,0,0,2.67-5.26c-2.39-.63-4.84-2-7.15-1.77-10.7.94-15.29-2.12-16.46-11-.35-2.62-2.5-5-3.83-7.49-1.51,2.1-3.66,4-4.43,6.33-3.44,10.51-5.35,12.22-14.53,12.66-2.74.12-6.82.29-7.86,2-2.2,3.52,1.7,5.77,3.9,8.12.46.49.93,1,1.41,1.41,5.62,5.43,7.07,11,3.78,18-1.21,2.54-2.45,5,.19,6.33,1.5.77,4.2-.74,6.34-1.28a4.6,4.6,0,0,0,1.24-.82c7.48-5.2,14.14-5,21.37.5A23,23,0,0,0,102.53,265ZM193,155.5l1.61.74c1.66-.41,3.73-.32,4.93-1.3,6.17-5.06,12-4.58,18.08.17,2.66,2.06,4.39.83,4.34-2.49a8.43,8.43,0,0,0-.76-3.31c-1.83-4-1.78-7.46,1.8-10.74a15.44,15.44,0,0,0,3.74-6.32c.24-.72-1.79-3.21-2.69-3.17-9.16.5-10.69-.56-13.2-9.18-.43-1.47-2.14-2.58-3.26-3.86-.84,1.23-2.09,2.35-2.46,3.7-1.9,7-5.1,9.83-12.17,10.25-1.28.07-2.54.22-3.91.34a21.2,21.2,0,0,0,0,2.31,3.8,3.8,0,0,0,.53,1.89C194.85,140.63,197.79,147.2,193,155.5ZM296,88.4c1.59,3.18,2.45,6.28,4.37,8.44,3.24,3.66,4.36,7.15,2.19,11.72-.7,1.47-.4,3.42-.68,6.42,3-1.26,5.23-1.82,7-3,5.4-3.46,9.59-3.51,14.88-.28,1.57,1,3.67,1,5.52,1.5,0-2,.35-4.13-.22-6-1.27-4.09-1.7-7.65,2.08-10.81a14,14,0,0,0,3.22-5c1.5-3.26.35-4.67-3.28-4.31a14.09,14.09,0,0,1-5.73-.26,8.93,8.93,0,0,1-6.56-8.47c-.11-1.53-2.12-2.93-3.26-4.39-.84,1.37-2.18,2.66-2.45,4.14a11.73,11.73,0,0,1-7.56,9.23C303,88.42,300,88.05,296,88.4ZM243.12,50l-1.37.39c-.28,1.41-.56,2.82-.85,4.23-1.1,5.36-5.69,9.45-10.59,9.68a29.68,29.68,0,0,0-5,1.07c.53,1.81,1,3.67,1.65,5.43a7.23,7.23,0,0,0,1.73,2.42c3.44,3.33,5.09,6.75,1.91,11.36-.73,1.07.22,3.3.39,5,1.65-.28,3.68,0,4.88-.93,5.58-4.1,9.78-4.33,15.94-.75,1.48.86,3.42.92,5.14,1.35.05-1.83.67-3.9,0-5.46-1.82-4.51-1.43-8.29,2.3-11.59a6.59,6.59,0,0,0,1.52-2c.77-1.58,1.4-3.24,2.09-4.87a32.07,32.07,0,0,0-4.94-1.48c-5.29-.71-9.54-2.38-11.05-8.33C246.36,53.49,244.41,51.81,243.12,50Zm49.79,134.66a2.45,2.45,0,0,0,1,.84c2.15.85,4.36,1.57,6.54,2.34.58-1.93,1.64-3.87,1.63-5.8,0-3.63.27-6.77,3.47-9.26,3-2.36,1.27-5.41-1.24-5.46-5.46-.12-7.34-3.26-9.22-7.41-.57-1.27-2.94-2.73-4.12-2.46s-2.51,2.42-2.87,4c-.86,3.66-2.21,6.11-6.6,5.7-1.4-.12-2.9.9-4.36,1.39.66,1.74,1.24,3.52,2,5.22.88,2,2.3,3.85,2.78,5.93.66,2.89-1.23,7.15,2.77,8.1C286.83,188.23,289.64,186,292.91,184.64Z"/><path class="cls-2" d="M360,1,157,1.05c-2,0-4,.09-6,.15H135c-1.08,2-1.66,4-3,5.24C121.43,17,110.52,27.29,100,38,94.61,43.52,89.9,49.73,84.8,55.58a39.75,39.75,0,0,1-3.65,3.31c-.71-1.62-2-3.24-2.05-4.86C78.94,38.2,79,22.37,79,6.54V1.43H67.48V56.69c-2.47-1-4.09-1.11-4.93-2C56.61,48.43,51,41.82,45,35.72,36.26,27,27.26,18.58,18.35,10.08c-3.48-3.32-6-1-8.19,1.71S7.49,17.11,10.5,20C18.9,28.1,27,36.52,35.32,44.66c5.83,5.69,12,11.07,17.81,16.74C54.37,62.6,55,64.46,55.85,66c-1.74.69-3.47,1.9-5.22,1.94-3,.07-5.93-.95-8.88-.9-12.14.19-24.28.6-36.42,1-1.29,0-2.57.18-3.9.27V79H7.78c15.66,0,31.33,0,47,.09,1.37,0,2.72,1.2,4.08,1.84-.85,1.26-1.47,2.81-2.6,3.71-1.78,1.43-4.26,2.1-5.85,3.68-14,13.94-27.94,28-41.91,42-2.09,2.09-4.37,4-7.29,6.61v7.2c-.06,4.66-.15,9.32-.15,14Q1,259.07,1,360a21.92,21.92,0,0,1-1-4.5Q0,250.58,0,145.65V0H7.74Q181.62,0,355.5,0A21.92,21.92,0,0,1,360,1ZM1.31,83.9V122c2.44-1.37,4.45-2,5.84-3.35Q21.53,105,35.65,91c1.14-1.13,2.42-3.89,1.92-4.53a7.34,7.34,0,0,0-5-2.5C22.29,83.79,12,83.9,1.31,83.9ZM85.94,39C98,27.2,108.8,16.66,119.49,6c1-1,1.18-2.91,1.81-4.6H83.87C83.88,13.86,83.42,26,85.94,39ZM1.19,61c9.87,0,19.31.11,28.75-.12,1.5,0,3-1.65,3.83-2.18-8.81-9-17-17.5-25.27-25.78-1.84-1.83-4.37-3-7.31-4.91ZM59.28,1.37H31.2c.22,4,20.27,26,28.08,30.91Z"/><path class="cls-3" d="M1.2,144.17V137c2.92-2.64,5.2-4.52,7.29-6.61,14-14,27.87-28.1,41.91-42,1.59-1.58,4.07-2.25,5.85-3.68,1.13-.9,1.75-2.45,2.6-3.71-1.36-.64-2.71-1.83-4.08-1.84C39.11,79,23.44,79,7.78,79H1.43V68.28C2.76,68.19,4,68,5.33,68c12.14-.35,24.28-.76,36.42-1,3,0,5.93,1,8.88.9,1.75,0,3.48-1.25,5.22-1.94-.89-1.56-1.48-3.42-2.72-4.62-5.85-5.67-12-11-17.81-16.74C27,36.52,18.9,28.1,10.5,20c-3-2.9-2.65-5.44-.34-8.22s4.71-5,8.19-1.71C27.26,18.58,36.26,27,45,35.72c6.08,6.1,11.66,12.71,17.6,19,.84.89,2.46,1,4.93,2V1.43H79V6.54c0,15.83-.06,31.66.1,47.49,0,1.62,1.34,3.24,2.05,4.86a39.75,39.75,0,0,0,3.65-3.31C89.9,49.73,94.61,43.52,100,38c10.49-10.7,21.4-21,32-31.55,1.29-1.28,1.87-3.27,3-5.24h16L150.84,12A49.1,49.1,0,0,0,145,15.36c-1.14.85-1.66,2.49-2.71,3.52-11.14,11-22.27,21.91-33.54,32.73C105.13,55,101.12,58,97.39,61.29A40.45,40.45,0,0,0,94.06,65c1.65.72,3.29,2.06,4.94,2.08,17.3.12,34.6,0,51.9,0,1.92,4,1.8,7.79-1,11.36-1.81.14-3.62.38-5.43.38Q119.75,79,95.05,79c-2.43,0-5.26-.49-5,3.26a47.86,47.86,0,0,1,5.38,3.9c5.38,5.2,10.61,10.56,15.93,15.82q19.3,19.08,38.64,38.14c.21,2.44-.19,4.1-3.36,3.93-4.21-.23-8.45,0-12.67,0-.77-1.44-1.29-3.12-2.38-4.26-1.35-1.41-3.38-2.17-4.74-3.58Q105.31,114,83.94,91.6c-2.53-2.66-4-1.79-5.19.79a10.37,10.37,0,0,0-.86,4.35c0,15.83.16,31.65.26,47.48l-10,.62c-.38-5.13-1-10.26-1.1-15.39-.17-11,0-22-.12-32.93,0-1.57-.75-3.13-1.16-4.75-6.84,7.45-13,14.51-19.53,21.15-8.83,9-18,17.56-26.94,26.44-1.16,1.15-1.61,3-2.38,4.57Z"/><path class="cls-2" d="M102.53,265a23,23,0,0,1-2.91-1.75c-7.23-5.52-13.89-5.7-21.37-.5a4.6,4.6,0,0,1-1.24.82c-2.14.54-4.84,2.05-6.34,1.28-2.64-1.37-1.4-3.79-.19-6.33,3.29-6.95,1.84-12.54-3.78-18-.48-.46-1-.92-1.41-1.41-2.2-2.35-6.1-4.6-3.9-8.12,1-1.66,5.12-1.83,7.86-2,9.18-.44,11.09-2.15,14.53-12.66.77-2.34,2.92-4.23,4.43-6.33,1.33,2.49,3.48,4.87,3.83,7.49,1.17,8.83,5.76,11.89,16.46,11,2.31-.2,4.76,1.14,7.15,1.77a57.63,57.63,0,0,1-2.67,5.26,10.61,10.61,0,0,1-2.79,2.84c-7.74,5.51-7,12.68-4.08,20.31C107.9,263.31,107.21,265,102.53,265Z"/><path class="cls-2" d="M150,140.13Q130.71,121.07,111.39,102c-5.32-5.26-10.55-10.62-15.93-15.82a47.86,47.86,0,0,0-5.38-3.9c-.29-3.75,2.54-3.25,5-3.26q24.71-.09,49.42-.19c1.81,0,3.62-.24,5.43-.38,1.87,4.61.79,6.46-4.15,6.53-8.81.12-17.62-.06-26.42.11-2,0-4,1-6.76,1.72a29.52,29.52,0,0,0,2.13,2.85q17.44,17,34.89,34a5.12,5.12,0,0,1,1.48,2.93c.39,4.11.59,8.24.7,12.37C151.78,139.31,150.64,139.73,150,140.13Z"/><path class="cls-2" d="M78.15,144.22c-.1-15.83-.22-31.65-.26-47.48a10.37,10.37,0,0,1,.86-4.35c1.22-2.58,2.66-3.45,5.19-.79q21.32,22.44,42.94,44.6c1.36,1.41,3.39,2.17,4.74,3.58,1.09,1.14,1.61,2.82,2.38,4.26-7.63,2.21-14.69,1.81-20.53-4.4-7.69-8.17-15.39-16.33-23.19-24.39-.85-.88-2.36-1.12-3.57-1.66-.51,1.26-1.44,2.5-1.47,3.76-.14,7.14,0,14.28-.08,21.41C85.14,144.12,83.48,145.38,78.15,144.22Z"/><path class="cls-2" d="M150.9,67.08c-17.3,0-34.6.11-51.9,0-1.65,0-3.29-1.36-4.94-2.08a40.45,40.45,0,0,1,3.33-3.7c3.73-3.27,7.74-6.25,11.32-9.68,11.27-10.82,22.4-21.78,33.54-32.73,1.05-1,1.57-2.67,2.71-3.52A49.1,49.1,0,0,1,150.84,12c1.12,6.47-.32,11.71-5.49,16.47-9.38,8.63-18.16,17.93-27.15,27a32.45,32.45,0,0,0-2.62,3.67c2.12.7,3.61,1.6,5.09,1.6,7.63,0,15.28.12,22.87-.5C150.72,59.66,151.12,59.67,150.9,67.08Z"/><path class="cls-2" d="M16.93,143.93c.77-1.54,1.22-3.42,2.38-4.57,8.92-8.88,18.11-17.48,26.94-26.44,6.55-6.64,12.69-13.7,19.53-21.15.41,1.62,1.15,3.18,1.16,4.75.11,11,0,22,.12,32.93.08,5.13.72,10.26,1.1,15.39-7-.09-7.18-1-6.64-7.9.49-6.36-.35-12.84-.81-19.25-.06-.84-1.37-2.29-2-2.25a5.62,5.62,0,0,0-3.09,1.8c-7.76,7.94-15.36,16-23.2,23.88C28,145.52,22.7,146.34,16.93,143.93Z"/><path class="cls-2" d="M193,155.5c4.79-8.3,1.85-14.87-3.4-21a3.8,3.8,0,0,1-.53-1.89,21.2,21.2,0,0,1,0-2.31c1.37-.12,2.63-.27,3.91-.34,7.07-.42,10.27-3.21,12.17-10.25.37-1.35,1.62-2.47,2.46-3.7,1.12,1.28,2.83,2.39,3.26,3.86,2.51,8.62,4,9.68,13.2,9.18.9,0,2.93,2.45,2.69,3.17a15.44,15.44,0,0,1-3.74,6.32c-3.58,3.28-3.63,6.72-1.8,10.74a8.43,8.43,0,0,1,.76,3.31c0,3.32-1.68,4.55-4.34,2.49-6.1-4.75-11.91-5.23-18.08-.17-1.2,1-3.27.89-4.93,1.3Z"/><path class="cls-2" d="M296,88.4c4-.35,7.06,0,9.55-1a11.73,11.73,0,0,0,7.56-9.23c.27-1.48,1.61-2.77,2.45-4.14,1.14,1.46,3.15,2.86,3.26,4.39a8.93,8.93,0,0,0,6.56,8.47,14.09,14.09,0,0,0,5.73.26c3.63-.36,4.78,1,3.28,4.31a14,14,0,0,1-3.22,5c-3.78,3.16-3.35,6.72-2.08,10.81.57,1.83.18,4,.22,6-1.85-.47-3.95-.55-5.52-1.5-5.29-3.23-9.48-3.18-14.88.28-1.8,1.16-4,1.72-7,3,.28-3,0-5,.68-6.42,2.17-4.57,1.05-8.06-2.19-11.72C298.42,94.68,297.56,91.58,296,88.4Z"/><path class="cls-2" d="M243.12,50c1.29,1.83,3.24,3.51,3.75,5.54,1.51,5.95,5.76,7.62,11.05,8.33a32.07,32.07,0,0,1,4.94,1.48c-.69,1.63-1.32,3.29-2.09,4.87a6.59,6.59,0,0,1-1.52,2c-3.73,3.3-4.12,7.08-2.3,11.59.64,1.56,0,3.63,0,5.46-1.72-.43-3.66-.49-5.14-1.35-6.16-3.58-10.36-3.35-15.94.75-1.2.88-3.23.65-4.88.93-.17-1.69-1.12-3.92-.39-5,3.18-4.61,1.53-8-1.91-11.36a7.23,7.23,0,0,1-1.73-2.42c-.68-1.76-1.12-3.62-1.65-5.43a29.68,29.68,0,0,1,5-1.07c4.9-.23,9.49-4.32,10.59-9.68.29-1.41.57-2.82.85-4.23Z"/><path class="cls-2" d="M292.91,184.64c-3.27,1.33-6.08,3.59-8.24,3.09-4-.95-2.11-5.21-2.77-8.1-.48-2.08-1.9-3.93-2.78-5.93-.75-1.7-1.33-3.48-2-5.22,1.46-.49,3-1.51,4.36-1.39,4.39.41,5.74-2,6.6-5.7.36-1.54,1.64-3.68,2.87-4s3.55,1.19,4.12,2.46c1.88,4.15,3.76,7.29,9.22,7.41,2.51,0,4.26,3.1,1.24,5.46-3.2,2.49-3.49,5.63-3.47,9.26,0,1.93-1.05,3.87-1.63,5.8-2.18-.77-4.39-1.49-6.54-2.34A2.45,2.45,0,0,1,292.91,184.64Z"/><path class="cls-1" d="M1.31,83.9c10.7,0,21-.11,31.25.11a7.34,7.34,0,0,1,5,2.5c.5.64-.78,3.4-1.92,4.53Q21.55,105,7.15,118.6c-1.39,1.31-3.4,2-5.84,3.35Z"/><path class="cls-1" d="M85.94,39c-2.52-13-2.06-25.14-2.07-37.62H121.3c-.63,1.69-.79,3.58-1.81,4.6C108.8,16.66,98,27.2,85.94,39Z"/><path class="cls-1" d="M1.19,61V28c2.94,1.94,5.47,3.08,7.31,4.91C16.82,41.19,25,49.66,33.77,58.69c-.87.53-2.33,2.14-3.83,2.18C20.5,61.1,11.06,61,1.19,61Z"/><path class="cls-1" d="M59.28,1.37V32.28C51.47,27.4,31.42,5.32,31.2,1.37Z"/></svg>