<svg id="Layer_1" data-name="Layer 1" xmlns="http://www.w3.org/2000/svg" viewBox="0 0 360 360"><defs><style>.cls-1{fill:#fdfcfc;}.cls-2{fill:#ec5565;}</style></defs><title>AUSTRIA</title><path class="cls-1" d="M1,360a21.92,21.92,0,0,1-1-4.5q-.08-106,0-212V0Q177.75,0,355.5,0A21.92,21.92,0,0,1,360,1H1.34V97.15c3.12.3,5.93.79,8.74.81,11.66.09,23.32,0,35,0l308.45.14c2.16,0,4.33-.09,6.49-.14V265H1Z"/><path class="cls-2" d="M360,98c-2.16,0-4.33.14-6.49.14L45.06,98c-11.66,0-23.32,0-35,0-2.81,0-5.62-.51-8.74-.81V1H360Z"/><path class="cls-2" d="M1,360V265H360v95Z"/></svg>