<svg id="Layer_1" data-name="Layer 1" xmlns="http://www.w3.org/2000/svg" viewBox="0 0 360 360"><defs><style>.cls-1{fill:#f5ba42;}.cls-2{fill:#434a53;}.cls-3{fill:#ec5565;}</style></defs><title>BELGIUM</title><path class="cls-1" d="M247,360H115V1.06h-6.07Q59.22,1.06,9.5,1A30.34,30.34,0,0,1,4,0Q179.76,0,355.5,0A21.92,21.92,0,0,1,360,1H254c-7,0-7,0-7,7.06Z"/><path class="cls-2" d="M4,0A30.34,30.34,0,0,0,9.5,1q49.71.11,99.43.05H115V360H1Q1,184.5,1,9A17.3,17.3,0,0,0,0,5V0Z"/><path class="cls-3" d="M247,360V8.07C247,1,247,1,254,1H360V360Z"/><path class="cls-1" d="M0,5A17.3,17.3,0,0,1,1,9q0,175.5,0,351a21.83,21.83,0,0,1-1-4.49Q0,248.65,0,141.81Z"/></svg>