<svg id="Layer_1" data-name="Layer 1" xmlns="http://www.w3.org/2000/svg" viewBox="0 0 360 360"><defs><style>.cls-1{fill:#57a763;}.cls-2{fill:#61ad6c;}.cls-3{fill:#fefefe;}.cls-4{fill:#edb745;}.cls-5{fill:#4858a8;}.cls-6{fill:#b1b8d0;}</style></defs><title>BRAZIL</title><path class="cls-1" d="M360,5v5c-.66,1.95-1.88,3.88-1.91,5.84-.45,30.14-1,60.28-1,90.42,0,30,.78,60,.87,89.93.16,49.32,0,98.65.14,148,0,2.62,1.24,5.23,1.91,7.84v5c-4.31.33-8.62,1-12.92,1q-163.74.07-327.49,0c-6.14,0-12.28-.63-18.43-1v-5c.94-1.88,2.67-3.76,2.71-5.66.5-30.63,1.07-61.26,1-91.89,0-41.46-.7-82.91-.88-124.37C3.88,92.45,4,54.8,4,17.15,4,14.52,5,11.23,1.17,10V5c4.14-.33,8.28-1,12.42-1Q180.33,4,347.08,4C351.38,4.05,355.69,4.67,360,5ZM181.1,302.75c2.29-1.27,4.17-2,5.65-3.19q33.78-27.3,67.46-54.71,35.46-28.83,70.88-57.72c6.42-5.27,6.16-7.49-.47-12.69-.65-.51-1.4-.91-2.05-1.43-11.69-9.31-23.42-18.59-35.06-28s-23.18-18.91-34.82-28.3Q221.79,91.82,190.82,67a62.51,62.51,0,0,0-5.49-4.3c-3.24-2.06-6.12-2.3-9.34.83C170.39,69,164.38,74,158.33,79q-38.64,31.64-77.42,63.13Q61,158.32,41.13,174.68c-6.4,5.26-6.67,6.85-.8,11.93,7.3,6.31,15,12.11,22.44,18.31,16.59,13.9,33.07,27.93,49.63,41.87q30.73,25.88,61.57,51.66C176,300.17,178.63,301.28,181.1,302.75Z"/><path class="cls-2" d="M360,5c-4.31-.33-8.62-1-12.92-1Q180.33,4,13.59,4c-4.14,0-8.28.64-12.42,1V1H360Z"/><path class="cls-2" d="M360,352c-.67-2.61-1.91-5.22-1.91-7.84-.12-49.32,0-98.65-.14-148-.09-30-.87-59.95-.87-89.93,0-30.14.56-60.28,1-90.42,0-2,1.25-3.89,1.91-5.84Z"/><path class="cls-2" d="M1.16,357c6.15.34,12.29,1,18.43,1q163.74.09,327.49,0c4.3,0,8.61-.63,12.92-1v3H1Z"/><path class="cls-3" d="M1.16,357,1,360a21.92,21.92,0,0,1-1-4.5Q0,250.58,0,145.65V0H7.74Q181.62,0,355.5,0A21.92,21.92,0,0,1,360,1H1.17v9C1.11,11.48,1,13,1,14.47Q1,181,1,347.53c0,1.49.1,3,.16,4.48Z"/><path class="cls-4" d="M181.1,302.75c-2.47-1.47-5.06-2.58-7.13-4.3q-30.85-25.74-61.57-51.66c-16.56-13.94-33-28-49.63-41.87-7.4-6.2-15.14-12-22.44-18.31-5.87-5.08-5.6-6.67.8-11.93Q61,158.34,80.91,142.08q38.7-31.58,77.42-63.13c6-5,12.06-10,17.66-15.41,3.22-3.13,6.1-2.89,9.34-.83a62.51,62.51,0,0,1,5.49,4.3q30.94,24.85,61.87,49.73c11.64,9.39,23.17,18.92,34.82,28.3s23.37,18.66,35.06,28c.65.52,1.4.92,2.05,1.43,6.63,5.2,6.89,7.42.47,12.69q-35.34,29-70.88,57.72-33.71,27.39-67.46,54.71C185.27,300.76,183.39,301.48,181.1,302.75Zm69-103.54c2.58-5.42,3.48-10.88.67-16.56-.44-.89-.19-2.2-.07-3.28.37-3.19,1.78-6.59,1.07-9.49-1.87-7.52-3.14-15.13-7.11-22.23a72.71,72.71,0,0,0-59.2-37.94c-12.76-.95-24.94.89-36,6.79-7.21,3.82-13.61,9.33-19.93,14.61-8.71,7.27-13.4,17.14-16.35,27.91l-1,7.42c-6.25,13.23-3,26.69.87,39.33,3.06,9.94,9.47,18.57,17.41,26.22,16.62,16,35.87,22.33,58.53,20.33,8.64-.76,16-4.49,23.89-7.4,12.22-4.52,19.8-14.06,27.62-23.3,3-3.6,4-9,5.92-13.5,2.7.4,4-.64,3.87-3.49C250.08,202.83,250.1,201,250.06,199.21Z"/><path class="cls-2" d="M1.17,352c-.06-1.49-.16-3-.16-4.48Q1,181,1,14.47c0-1.49.1-3,.16-4.48C5,11.23,4,14.52,4,17.15,4,54.8,3.88,92.45,4,130.09c.18,41.46.84,82.91.88,124.37,0,30.63-.54,61.26-1,91.89C3.84,348.25,2.11,350.13,1.17,352Z"/><path class="cls-5" d="M246.33,208.12c-1.91,4.55-2.88,9.9-5.92,13.5-7.82,9.24-15.4,18.78-27.62,23.3-7.87,2.91-15.25,6.64-23.89,7.4-22.66,2-41.91-4.33-58.53-20.33-7.94-7.65-14.35-16.28-17.41-26.22-3.88-12.64-7.12-26.1-.87-39.33,10.15-4,20.24-7.88,31.37-8.75,21-1.65,41.53-.46,60.93,8.65a146.25,146.25,0,0,1,17.38,9.09C233.88,183.27,240.76,195.25,246.33,208.12Z"/><path class="cls-5" d="M113.1,159c3-10.77,7.64-20.64,16.35-27.91,6.32-5.28,12.72-10.79,19.93-14.61,11.1-5.9,23.28-7.74,36-6.79a72.71,72.71,0,0,1,59.2,37.94c4,7.1,5.24,14.71,7.11,22.23.71,2.9-.7,6.3-1.07,9.49-.12,1.08-.37,2.39.07,3.28,2.81,5.68,1.91,11.14-.67,16.56-2.77-3.51-5.53-7-8.32-10.54-10.11-12.65-22-22.77-37.89-27.64-4-1.23-7.25-5-11.25-6-7.64-1.94-15.59-2.67-23.38-4.1-1.89-.34-3.6-1.8-5.49-2.07-3-.43-7.42-1.59-8.89-.11-2.85,2.86-5.71,1.93-8.65,2.21s-6.07-.06-8.88.71C129.18,153.9,121.16,156.54,113.1,159Z"/><path class="cls-6" d="M113.1,159c8.06-2.48,16.08-5.12,24.21-7.35,2.81-.77,5.92-.43,8.88-.71s5.8.65,8.65-2.21c1.47-1.48,5.88-.32,8.89.11,1.89.27,3.6,1.73,5.49,2.07,7.79,1.43,15.74,2.16,23.38,4.1,4,1,7.26,4.77,11.25,6,15.9,4.87,27.78,15,37.89,27.64,2.79,3.5,5.55,7,8.32,10.54,0,1.81,0,3.62.14,5.42.18,2.85-1.17,3.89-3.87,3.49-5.57-12.87-12.45-24.85-24.56-32.69a146.25,146.25,0,0,0-17.38-9.09c-19.4-9.11-39.91-10.3-60.93-8.65-11.13.87-21.22,4.74-31.37,8.75C112.43,164,112.76,161.5,113.1,159Z"/></svg>