<svg id="Layer_1" data-name="Layer 1" xmlns="http://www.w3.org/2000/svg" viewBox="0 0 360 360"><defs><style>.cls-1{fill:#fdfcfc;}.cls-2{fill:#ec5565;}</style></defs><title>CANADA</title><path class="cls-1" d="M247,360H109V1.38H1V360a21.92,21.92,0,0,1-1-4.5Q0,250.58,0,145.65V0H7.74Q181.62,0,355.5,0A21.92,21.92,0,0,1,360,1H247ZM198.59,162.61l-1.21-1.19V134.88c-6.84.3-10.94-2.66-13.61-8.38-1.33-2.83-4-5-6.58-8.23-2.21,3.78-4,6.71-5.66,9.76-2.46,4.59-6.46,7-11.36,6.4-4.06-.52-4.31,1.18-3.94,4.07.75,5.77,1.78,11.51,2.29,17.31.17,1.85-.93,3.81-1.46,5.72a38.52,38.52,0,0,1-5.38-2.9c-1.42-1.08-2.21-3.15-3.71-3.93-1.74-.9-4.62-1.87-5.84-1.06-4.59,3.05-9.46,3.46-14.71,3.41s-6.42,2.25-3.65,6.79c2.08,3.41,3.56,6.73.74,10.57-2.94,4-2.18,8.29,1.9,11.46,1.67,1.3,3.8,2,5.37,3.41,6.25,5.51,13.86,9.89,15.52,19.24.65,3.65,2.59,6.42,7.24,5.47,4-.82,8.18-1.13,12.23-1.91,6.85-1.33,9.25.54,9.26,7.52s0,14.16,0,21.23l2,.56c.71-1.56,1.95-3.11,2-4.7.25-5.66.09-11.33.1-17,0-6.84,2.9-9,9.7-7.39a65.18,65.18,0,0,0,9.29,1.52c6.36.56,7.06-.85,9.74-6.5A52.47,52.47,0,0,1,219,193.56c3.8-3.84,9-6.27,12.89-10.06,1.54-1.5,2.47-6.08,1.39-7.37-4-4.79-2.23-9-.06-13.41,1.7-3.4.64-5.06-2.81-5.48-2.3-.28-4.68,0-7-.3-2.5-.37-5.51-.5-7.29-2-3.8-3.14-6.7-2.64-9.89.56C203.8,158,201.16,160.26,198.59,162.61Z"/><path class="cls-2" d="M247,360V1H360V360Z"/><path class="cls-2" d="M1,360V1.38H109V360Z"/><path class="cls-2" d="M198.59,162.61c2.57-2.35,5.21-4.62,7.67-7.07,3.19-3.2,6.09-3.7,9.89-.56,1.78,1.46,4.79,1.59,7.29,2,2.29.34,4.67,0,7,.3,3.45.42,4.51,2.08,2.81,5.48-2.17,4.36-3.9,8.62.06,13.41,1.08,1.29.15,5.87-1.39,7.37-3.87,3.79-9.09,6.22-12.89,10.06a52.47,52.47,0,0,0-10.16,13.77c-2.68,5.65-3.38,7.06-9.74,6.5a65.18,65.18,0,0,1-9.29-1.52c-6.8-1.58-9.7.55-9.7,7.39,0,5.66.15,11.33-.1,17-.07,1.59-1.31,3.14-2,4.7l-2-.56q0-10.61,0-21.23c0-7-2.41-8.85-9.26-7.52-4.05.78-8.19,1.09-12.23,1.91-4.65.95-6.59-1.82-7.24-5.47-1.66-9.35-9.27-13.73-15.52-19.24-1.57-1.38-3.7-2.11-5.37-3.41-4.08-3.17-4.84-7.46-1.9-11.46,2.82-3.84,1.34-7.16-.74-10.57-2.77-4.54-1.66-6.84,3.65-6.79s10.12-.36,14.71-3.41c1.22-.81,4.1.16,5.84,1.06,1.5.78,2.29,2.85,3.71,3.93a38.52,38.52,0,0,0,5.38,2.9c.53-1.91,1.63-3.87,1.46-5.72-.51-5.8-1.54-11.54-2.29-17.31-.37-2.89-.12-4.59,3.94-4.07,4.9.62,8.9-1.81,11.36-6.4,1.62-3,3.45-6,5.66-9.76,2.61,3.18,5.25,5.4,6.58,8.23,2.67,5.72,6.77,8.68,13.61,8.38v26.54Z"/></svg>