<svg id="Layer_1" data-name="Layer 1" xmlns="http://www.w3.org/2000/svg" viewBox="0 0 360 360"><defs><style>.cls-1{fill:#ec5565;}.cls-2{fill:#f4b843;}</style></defs><title>CHINA</title><path class="cls-1" d="M360,1V360H1L1,9.6c0-1.67-.45-3.52.15-4.94A7.1,7.1,0,0,1,4.66,1.18C6.08.58,7.93,1,9.6,1ZM102.47,133c4.12.07,5.39-2.39,4-6.25-2.21-6.28-4.82-12.42-6.87-18.74-2.31-7.13-3.77-12,4.38-17.22,6.17-3.92,12.06-8.31,17.93-12.68,1.11-.83,1.56-2.55,2.31-3.85-1.37-.75-2.68-1.94-4.14-2.15-2.61-.37-5.31-.08-8-.2-6.64-.3-13.29-.52-19.92-1.07-3.54-.29-5.6-1.85-6.45-6.12-1.59-8.09-4.28-16-6.87-23.85-.5-1.5-3-3.69-3.94-3.41A7,7,0,0,0,71,41.6C69,48.26,67.57,55.12,65.56,61.8c-2.49,8.25-5.12,10-13.79,10.08-7.49.06-15,0-22.49.21-1.3,0-3.29.72-3.67,1.64s.63,2.67,1.42,3.78a11.72,11.72,0,0,0,3,2.55c5.22,3.58,10.54,7,15.69,10.68,8.13,5.81,8.07,5.87,4.26,14.81a44.47,44.47,0,0,0-1.34,4.29c-1.65,5.2-3.53,10.35-4.85,15.64-.52,2.11.19,4.52.34,6.79,2.18-.78,4.67-1.13,6.49-2.42,6.65-4.7,13-9.8,19.63-14.58,3.42-2.48,6.82-2.86,10.36.37,4.79,4.36,9.88,8.41,15,12.47C98,130.05,100.66,131.7,102.47,133Zm107.77,6.43c.8-1,2.82-2.49,2.57-3.29-1.67-5.32.57-9.24,3.54-13.27.77-1,.59-3.38-.08-4.64-.4-.76-2.81-1.2-3.9-.75-4.32,1.79-5.5-.69-6.77-4-.62-1.62-2.37-2.81-3.6-4.2-1.32,1.46-3.26,2.72-3.82,4.43-1.28,3.86-3,6.36-7.55,6.45-3.58.08-4.93,2.71-2.59,5.22a14.36,14.36,0,0,1,4,10.23c.1,4,2.45,5.13,6,3,2.83-1.66,5.39-2.38,8.32-.45C207.21,138.64,208.27,138.75,210.24,139.39Zm-44,11.58a88,88,0,0,0-9.36,1.2c-1.08.24-2.64,1.83-2.63,2.78a117.47,117.47,0,0,0,1.05,12,3.8,3.8,0,0,0,1.15,2.07c6.65,6.34,12.93,5.89,18.74-1.1,2.28-2.73,4.2-5.77,1.94-8.93C174.52,155.24,172.47,150.1,166.27,151ZM163.73,24.9c-1.91,0-2.91,0-3.91,0-5.65.21-6.07,1-4.62,6.5.46,1.72-.11,3.91-.76,5.68-1.83,5-1,6.39,4.37,7a13.57,13.57,0,0,1,5.09,1.48c7.31,4.3,7.62-4.27,11.35-6.4,1.59-.91,1.53-4.76,2.11-7.29.07-.27-.58-.77-1-1.08C172.4,27.67,168.81,23.54,163.73,24.9Zm36.91,58.73c2.85-1.52,5-3.09,7.49-3.88,3.38-1.09,4.07-3.13,3.9-6.39C211.4,61.9,211.5,61.89,200.09,62a21.15,21.15,0,0,0-3,.08c-4.06.61-8.23,10.43-5.48,13.35S197.69,81,200.64,83.63Z"/><path class="cls-2" d="M360,1,9.6,1C7.93,1,6.08.58,4.66,1.18A7.1,7.1,0,0,0,1.18,4.66C.58,6.08,1,7.93,1,9.6L1,360a21.92,21.92,0,0,1-1-4.5Q0,250.58,0,145.65V0H7.74Q181.62,0,355.5,0A21.92,21.92,0,0,1,360,1Z"/><path class="cls-2" d="M102.47,133c-1.81-1.26-4.47-2.91-6.89-4.85-5.07-4.06-10.16-8.11-15-12.47-3.54-3.23-6.94-2.85-10.36-.37-6.6,4.78-13,9.88-19.63,14.58-1.82,1.29-4.31,1.64-6.49,2.42-.15-2.27-.86-4.68-.34-6.79,1.32-5.29,3.2-10.44,4.85-15.64A44.47,44.47,0,0,1,50,105.55c3.81-8.94,3.87-9-4.26-14.81-5.15-3.68-10.47-7.1-15.69-10.68a11.72,11.72,0,0,1-3-2.55c-.79-1.11-1.81-2.86-1.42-3.78s2.37-1.61,3.67-1.64c7.5-.2,15-.15,22.49-.21,8.67-.07,11.3-1.83,13.79-10.08,2-6.68,3.41-13.54,5.47-20.2A7,7,0,0,1,75,37.42c.92-.28,3.44,1.91,3.94,3.41,2.59,7.86,5.28,15.76,6.87,23.85.85,4.27,2.91,5.83,6.45,6.12,6.63.55,13.28.77,19.92,1.07,2.67.12,5.37-.17,8,.2,1.46.21,2.77,1.4,4.14,2.15-.75,1.3-1.2,3-2.31,3.85-5.87,4.37-11.76,8.76-17.93,12.68-8.15,5.18-6.69,10.09-4.38,17.22,2.05,6.32,4.66,12.46,6.87,18.74C107.86,130.57,106.59,133,102.47,133Z"/><path class="cls-2" d="M210.24,139.39c-2-.64-3-.75-3.82-1.27-2.93-1.93-5.49-1.21-8.32.45-3.59,2.1-5.94,1-6-3a14.36,14.36,0,0,0-4-10.23c-2.34-2.51-1-5.14,2.59-5.22,4.53-.09,6.27-2.59,7.55-6.45.56-1.71,2.5-3,3.82-4.43,1.23,1.39,3,2.58,3.6,4.2,1.27,3.34,2.45,5.82,6.77,4,1.09-.45,3.5,0,3.9.75.67,1.26.85,3.6.08,4.64-3,4-5.21,8-3.54,13.27C213.06,136.9,211,138.41,210.24,139.39Z"/><path class="cls-2" d="M166.27,151c6.2-.87,8.25,4.27,10.89,8,2.26,3.16.34,6.2-1.94,8.93-5.81,7-12.09,7.44-18.74,1.1a3.8,3.8,0,0,1-1.15-2.07,117.47,117.47,0,0,1-1.05-12c0-.95,1.55-2.54,2.63-2.78A88,88,0,0,1,166.27,151Z"/><path class="cls-2" d="M163.73,24.9c5.08-1.36,8.67,2.77,12.67,6,.38.31,1,.81,1,1.08-.58,2.53-.52,6.38-2.11,7.29-3.73,2.13-4,10.7-11.35,6.4a13.57,13.57,0,0,0-5.09-1.48c-5.36-.66-6.2-2.09-4.37-7,.65-1.77,1.22-4,.76-5.68-1.45-5.46-1-6.29,4.62-6.5C160.82,24.87,161.82,24.9,163.73,24.9Z"/><path class="cls-2" d="M200.64,83.63c-2.95-2.65-6.21-5.22-9-8.2s1.42-12.74,5.48-13.35a21.15,21.15,0,0,1,3-.08c11.41-.11,11.31-.1,11.94,11.36.17,3.26-.52,5.3-3.9,6.39C205.68,80.54,203.49,82.11,200.64,83.63Z"/></svg>