<svg id="Layer_1" data-name="Layer 1" xmlns="http://www.w3.org/2000/svg" viewBox="0 0 360 360"><defs><style>.cls-1{fill:#fdfdfd;}.cls-2{fill:#f5bd47;}.cls-3{fill:#e9e9e8;}.cls-4{fill:#f4f4f4;}.cls-5{fill:#86c390;}</style></defs><title>CYPRUS</title><path class="cls-1" d="M23,0c-1.47,2.41-2.63,5.09-4.48,7.16A142.69,142.69,0,0,1,7.08,18.66C5.05,20.48,2.38,21.58,0,23V0Z"/><path class="cls-1" d="M360,23a44.67,44.67,0,0,1-5.08-3.71c-4.14-3.95-8.26-7.95-12.12-12.17C340.89,5,339.58,2.39,338,0h22Z"/><path class="cls-1" d="M0,339c2.24,1.17,5.47,1.78,6.54,3.63A33.28,33.28,0,0,0,18.29,355c1.64,1,2.49,3.28,3.71,5H0Z"/><path class="cls-1" d="M339,360c1.82-2.23,3.51-4.59,5.5-6.67,3.45-3.63,7-7.18,10.7-10.56,1.33-1.22,3.18-1.86,4.8-2.77v20Z"/><path class="cls-1" d="M180.25,354c-43.65,0-87.35,1.15-130.95-.43C23,352.62,9.81,340.51,9.44,314.33c-1.19-84-.21-168.12-.75-252.18-.07-9.84.45-19.28,3.15-28.5C16.56,17.48,29.27,11.16,44.69,9.08A130.7,130.7,0,0,1,62.05,8c82.81-.06,165.63-.49,248.44.23,24.85.22,40.4,14.21,42.45,38.62.69,8.26,1,16.57,1,24.86.07,79.81.27,159.63-.18,239.44-.08,13.68-4.72,26.79-17.29,34.6-8,5-16.89,8.29-26.77,8.26C266.56,353.93,223.41,354,180.25,354ZM198,258l-5.86,3.38c-1.54-.13-3.43-.89-4.56-.27a135.58,135.58,0,0,0-14.35,8.9c-2.06,1.49-3.35,4.07-5,6.15L168,276l.17.22L164,273c3.86-5.81,3.46-6.85-3-10.05-2.16-1.08-4-2.83-6-4.27-2.84-.47-5.68-.92-8.52-1.44-1.42-.26-3.84-.31-4.07-1-1.71-5.16-6.64-6.76-10.49-7.4-7.31-1.23-10.74-6.27-14.92-11.09-1.73-2-4.16-4-6.6-4.57-2.81-.61-3.55-1.88-4.59-4.2s-3-4.76-5.22-5.67c-2.51-1-5.71-.45-8.61-.57l-3-.84c-2.14-1.28-4.18-3-6.5-3.63-.79-.23-3.51,2.51-3.28,3.27.61,2,2.35,3.7,3.64,5.52l.06.06c0,4.1.35,8.23,0,12.31-.46,5.84,1.21,7.7,7.22,8.82,2,.37,5.15,2.74,5.19,4.27.17,6.74,1.2,8.12,8.11,8.56,4,.26,8,.95,12.61,1.53-2.43,5.87,1,8.07,4.48,9,4.24,1.12,9,.48,13.2,1.6,3.78,1,8.09,2.59,10.55,5.35,2.87,3.22,5.44,5,9.67,4.5,3.42-.38,6.51-.16,8.53,3.54.53,1,3.68,1.62,4.75,1,4.28-2.59,8.19-1.82,12.28.13,3.26,1.56,5.89,1.4,8.95-1.38,2.19-2,5.9-2.34,9-3.28,1.54-.48,3.5-.17,4.72-1,5-3.46,9.86-7.22,14.76-10.87h5c.41.4.83,1.15,1.24,1.14,4.28-.12,6.27-2.87,7.87-6.5.81-1.84,2.55-4.23,4.22-4.56,4.59-.91,9.45-.47,14-1.39,1.79-.36,4.69-3.36,4.4-4.43-1.38-5.08,2-6.13,5.27-7.18,4-1.26,5.66-3.89,6.12-8,.54-4.88,2.06-9.68,2.27-14.56.1-2.39-1.8-4.86-2.8-7.3L259,221.77,256.08,223c-15.26,2.43-23.47,13.17-30.67,25.66-3.72.17-8.91-3.61-11.46,3l-5.43,1.53C203.74,252.05,200.84,255,198,258Zm-44-53c3.42-.48,6.82-1.12,10.25-1.38,3.91-.3,8.8,2.68,10.74-3.53,6.32-2.71,12.63-5.44,19-8.12,3.2-1.36,6.34-3.24,9.68-3.79,6.53-1.08,10-4.62,10.58-11,.9-9.34,7.58-12,14.24-9.7,10.8,3.74,20.73-2.24,32.54-.29-1.44-2.87-2-4.73-3.11-6.08-4.15-4.92-9-9.32-12.67-14.57-5.32-7.59-4.75-10,1.66-16.58,2.49-.57,5.18-2,7.42-1.52,3.94.91,6-1.08,8-3.48,2.88-3.34,5.44-7,8.51-10.13,1-1.06,3.18-1,4.79-1.5a42.42,42.42,0,0,0,5.32-1.87c1.24-.6,2.18-2.14,3.43-2.37,4.24-.81,5.95-3.2,5.5-7.36,2.74-2.47,5.24-5.28,8.26-7.35,4.51-3.08,9.6-5.35,13.93-8.63,1.2-.91.56-4.22.77-6.43-1.84.17-3.84,0-5.5.59a71,71,0,0,0-7.41,3.92c-2.61,1.39-5.23,2.8-7.89,4.1-4.38,2.12-8.78,4.18-13.2,6.23-2.65,1.23-5.78,1.85-8,3.64a67.72,67.72,0,0,1-36.58,15.42c-4.14.46-8.84,1.64-11.94,4.15-3.25,2.63-6.62,2.81-10.12,3.57a36,36,0,0,1-4.85.75c-6.37.52-12.75,1.42-19.1,1.3a202.31,202.31,0,0,1-21.81-1.93c-7.6-1-15.9,2.2-22.72-3.8-.59-.51-2.13.07-2.41.09-.83,7.12-1.09,13.84-2.51,20.29-2,8.88-8.82,11.76-16.91,8a28.18,28.18,0,0,0-20.9-1.47,11.29,11.29,0,0,0-6.18,5.12c-5.6,11.6-9.89,13.42-21.57,8.61-1.24-.52-3,.17-4.47.31.37,1.46.63,3,1.13,4.38,1,2.8,2.28,5.52,3.14,8.36s.89,6.15,2.17,8.83c1.43,3,4.35,5.33,5.73,8.36,2.41,5.28,5.21,9.88,11,11.89a17.71,17.71,0,0,0,1.77,2.8c2.67,2.86,5.89,5.31,8.07,8.48,2.63,3.84,14.22,8.53,18.69,7.36a18.59,18.59,0,0,1,8.79-.32c3.64.9,6.87,3.37,10.5,4.35,2.65.72,6,.93,8.43-.05C155.27,219.89,157.28,213,154,205Z"/><path class="cls-2" d="M246.88,130c-6.41,6.56-7,9-1.66,16.58,3.67,5.25,8.52,9.65,12.67,14.57,1.14,1.35,1.67,3.21,3.11,6.08-11.81-2-21.74,4-32.54.29-6.66-2.3-13.34.36-14.24,9.7-.62,6.38-4.05,9.92-10.58,11-3.34.55-6.48,2.43-9.68,3.79-6.33,2.68-12.64,5.41-19,8.12l-7.2-.09c-5.88-.07-11.94-.81-16.1,4.84-4.5.25-5.41,3.28-6,7.06-.3,1.76-2.09,3.26-3.21,4.88a28.24,28.24,0,0,1-3.28-3.75c-2.07-3.35-3-8.11-8.12-7.9-4.37.18-8.71,1.19-13.06,1.84l-12-2-14-4.95c-5.79-2-8.59-6.61-11-11.89-1.38-3-4.3-5.35-5.73-8.36C74,177.15,74,173.9,73.09,171s-2.15-5.56-3.14-8.36c-.5-1.42-.76-2.92-1.13-4.38,1.5-.14,3.23-.83,4.47-.31,11.68,4.81,16,3,21.57-8.61a11.29,11.29,0,0,1,6.18-5.12,28.18,28.18,0,0,1,20.9,1.47c8.09,3.73,14.94.85,16.91-8,1.42-6.45,1.68-13.17,2.51-20.29.28,0,1.82-.6,2.41-.09,6.82,6,15.12,2.83,22.72,3.8A202.31,202.31,0,0,0,188.3,123c6.35.12,12.73-.78,19.1-1.3a36,36,0,0,0,4.85-.75c3.5-.76,6.87-.94,10.12-3.57,3.1-2.51,7.8-3.69,11.94-4.15a67.72,67.72,0,0,0,36.58-15.42c2.18-1.79,5.31-2.41,8-3.64,4.42-2.05,8.82-4.11,13.2-6.23,2.66-1.3,5.28-2.71,7.89-4.1a71,71,0,0,1,7.41-3.92c1.66-.64,3.66-.42,5.5-.59-.21,2.21.43,5.52-.77,6.43-4.33,3.28-9.42,5.55-13.93,8.63-3,2.07-5.52,4.88-8.26,7.35-5.85,2.67-11.81,5.12-17.49,8.11a22,22,0,0,0-6.74,5.74c-3.65,4.61-7.9,8-13.74,9.28C249.2,125.47,246.73,126.48,246.88,130Z"/><path class="cls-3" d="M92,222.73c2.9.12,6.1-.47,8.61.57,2.19.91,4.2,3.4,5.22,5.67s1.78,3.59,4.59,4.2c2.44.53,4.87,2.58,6.6,4.57,4.18,4.82,7.61,9.86,14.92,11.09,3.85.64,8.78,2.24,10.49,7.4.23.71,2.65.76,4.07,1,2.84.52,5.68,1,8.52,1.44-4.46,1.3-9.18,2.09-13.27,4.13-1.69.86-3.5,5.59-2.75,6.51a58.9,58.9,0,0,0,10.88,9.89,6.27,6.27,0,0,0,5.59.41c3.09-1.75,5.69-4.36,8.5-6.62l4.2,3.22-3.62,6.1,19.11,1.5,1.14-1.12a43,43,0,0,0-3.49-5.53c-4-4.59-8.58-2.7-13.11-1,1.64-2.08,2.93-4.66,5-6.15a135.58,135.58,0,0,1,14.35-8.9c1.13-.62,3,.14,4.56.27-1.07.9-2.13,1.82-3.21,2.72-1.32,1.11-3.59,2.05-3.8,3.33-.84,5.09,3.26,7.82,6.63,10.14,1.43,1,4.74-.3,7-1.11a26,26,0,0,0,5.78-3.44c1.81-1.26,3.47-2.73,5.19-4.11-1.84-1.06-3.63-2.21-5.53-3.15-2.08-1-5.92-.52-3.89-4.83L214.85,265q1.07,3.08,2.14,6.13c-4.9,3.65-9.73,7.41-14.76,10.87-1.22.84-3.18.53-4.72,1-3.08.94-6.79,1.3-9,3.28-3.06,2.78-5.69,2.94-8.95,1.38-4.09-1.95-8-2.72-12.28-.13-1.07.64-4.22,0-4.75-1-2-3.7-5.11-3.92-8.53-3.54-4.23.48-6.8-1.28-9.67-4.5-2.46-2.76-6.77-4.35-10.55-5.35-4.24-1.12-9-.48-13.2-1.6-3.51-.93-6.91-3.13-4.48-9-4.65-.58-8.61-1.27-12.61-1.53-6.91-.44-7.94-1.82-8.11-8.56,0-1.53-3.18-3.9-5.19-4.27-6-1.12-7.68-3-7.22-8.82.32-4.08,0-8.21,0-12.31.62.6,1.69,1.13,1.79,1.81.5,3.58.44,7.27,1.24,10.77.5,2.17,2.09,5.76,3.34,5.83,7.93.43,9.45,5.07,8.85,11.63,0,.22.4.47.83,1l11.71-.8,1,.14-.5-.6-4.39-8.06c2.35-.66,4.12-1.16,5.89-1.64l5-1.36c-.7-1.92-1-4.17-2.18-5.7-3.31-4.23-6.08-4.33-10.49-1a11.58,11.58,0,0,1-3.78,2.3,3.87,3.87,0,0,1-3.39-.89c-.53-.75-.15-2.44.32-3.5.35-.79,1.76-1.08,2.23-1.86,1-1.71,2.73-3.9,2.3-5.31s-3.14-2.63-5-2.8C94.69,226.74,92.62,225.92,92,222.73ZM139.08,259c-2.68-6.24-3.72-7.17-9.31-7.15-4.7,0-10.15-1.56-12.51,3.66,1.6,3.35,3.23,5.84,4,8.58,1.92,6.72,2.2,7,9.25,3.7C126.78,259.21,134.9,260.77,139.08,259Z"/><path class="cls-3" d="M214,251.69c2.55-6.61,7.74-2.83,11.46-3,7.2-12.49,15.41-23.23,30.67-25.66-.37.7-.57,1.66-1.14,2.07-4,2.81-8.64,5.26-3.38,11.05.77.85,0,3,.37,4.36a63.58,63.58,0,0,0,2.37,6.28c2-1.17,4.49-2,5.94-3.63,1.26-1.45,1.45-3.88,1.95-5.92.73-3,1.42-6,1.91-9.05.36-2.2.36-4.45.51-6.68l-5.66.26,5.65-3.34c1,2.44,2.9,4.91,2.8,7.3-.21,4.88-1.73,9.68-2.27,14.56-.46,4.06-2.1,6.69-6.12,8-3.31,1-6.65,2.1-5.27,7.18.29,1.07-2.61,4.07-4.4,4.43-4.59.92-9.45.48-14,1.39-1.67.33-3.41,2.72-4.22,4.56-1.6,3.63-3.59,6.38-7.87,6.5-.41,0-.83-.74-1.24-1.14,4.4-1.56,9.7-11.73,7.86-16.06-.65-1.51-3.13-2.87-4.94-3.13C221.31,251.45,217.6,251.74,214,251.69Zm26.8-3.11a45,45,0,0,0-2.88,3.81,40.8,40.8,0,0,0-1.71,3.74,31.37,31.37,0,0,0,4,.79c2,.16,4.13,0,6.19.14,2.54.16,4.71,0,4.81-3.35.16-5.32-5.43-14.53-10.48-16.37-1.35-.49-3.47.15-4.84.95a13.77,13.77,0,0,0-3.75,3.92c-.78,1.07-1.9,3-1.5,3.58a7.37,7.37,0,0,0,3.95,2.34C236.19,248.57,238,248.41,240.75,248.58Z"/><path class="cls-4" d="M92,200.08,106,205c4.7,6.79,8.34,7.38,12,2,4.35-.65,8.69-1.66,13.06-1.84,5.14-.21,6,4.55,8.12,7.9a28.24,28.24,0,0,0,3.28,3.75c1.12-1.62,2.91-3.12,3.21-4.88.63-3.78,1.54-6.81,6-7.06L154,205c3.27,7.94,1.26,14.87-5.77,17.68-2.45,1-5.78.77-8.43.05-3.63-1-6.86-3.45-10.5-4.35a18.59,18.59,0,0,0-8.79.32c-4.47,1.17-16.06-3.52-18.69-7.36-2.18-3.17-5.4-5.62-8.07-8.48A17.71,17.71,0,0,1,92,200.08Z"/><path class="cls-5" d="M92,222.73c.59,3.19,2.66,4,5.69,4.28,1.81.17,4.53,1.44,5,2.8s-1.28,3.6-2.3,5.31c-.47.78-1.88,1.07-2.23,1.86-.47,1.06-.85,2.75-.32,3.5a3.87,3.87,0,0,0,3.39.89,11.58,11.58,0,0,0,3.78-2.3c4.41-3.32,7.18-3.22,10.49,1,1.2,1.53,1.48,3.78,2.18,5.7l-5,1.36c-1.77.48-3.54,1-5.89,1.64l4.39,8.06-.46.46-11.7.8c-.43-.48-.85-.73-.83-1,.6-6.56-.92-11.2-8.85-11.63-1.25-.07-2.84-3.66-3.34-5.83-.8-3.5-.74-7.19-1.24-10.77-.1-.68-1.17-1.21-1.79-1.81l-.06-.06v-6.17l6.14,1Z"/><path class="cls-5" d="M164,273c-2.81,2.26-5.41,4.87-8.5,6.62a6.27,6.27,0,0,1-5.59-.41A58.9,58.9,0,0,1,139,269.33c-.75-.92,1.06-5.65,2.75-6.51,4.09-2,8.81-2.83,13.27-4.13,2,1.44,3.81,3.19,6,4.27C167.46,266.16,167.86,267.2,164,273Z"/><path class="cls-5" d="M214,251.69c3.65.05,7.36-.24,10.94.28,1.81.26,4.29,1.62,4.94,3.13,1.84,4.33-3.46,14.5-7.86,16.06h-5q-1.08-3.06-2.14-6.13c-.75-1.34-1.22-3.52-2.32-3.9-6.06-2.09-6.11-1.94-4-7.91Z"/><path class="cls-5" d="M200.3,261c-2,4.31,1.81,3.8,3.89,4.83,1.9.94,3.69,2.09,5.53,3.15-1.72,1.38-3.38,2.85-5.19,4.11a26,26,0,0,1-5.78,3.44c-2.26.81-5.57,2.09-7,1.11-3.37-2.32-7.47-5.05-6.63-10.14.21-1.28,2.48-2.22,3.8-3.33,1.08-.9,2.14-1.82,3.21-2.72L198,258Z"/><path class="cls-5" d="M259,221.77l5.66-.26c-.15,2.23-.15,4.48-.51,6.68-.49,3-1.18,6.05-1.91,9.05-.5,2-.69,4.47-1.95,5.92-1.45,1.67-3.92,2.46-5.94,3.63a63.58,63.58,0,0,1-2.37-6.28c-.39-1.4.4-3.51-.37-4.36-5.26-5.79-.66-8.24,3.38-11.05.57-.41.77-1.37,1.14-2.07Z"/><path class="cls-4" d="M246.88,130c-.15-3.5,2.32-4.51,5-5.1,5.84-1.27,10.09-4.67,13.74-9.28a22,22,0,0,1,6.74-5.74c5.68-3,11.64-5.44,17.49-8.11.45,4.16-1.26,6.55-5.5,7.36-1.25.23-2.19,1.77-3.43,2.37a42.42,42.42,0,0,1-5.32,1.87c-1.61.51-3.77.44-4.79,1.5-3.07,3.15-5.63,6.79-8.51,10.13-2.07,2.4-4.1,4.39-8,3.48C252.06,127.94,249.37,129.41,246.88,130Z"/><path class="cls-4" d="M200.3,261,198,258c2.85-3,5.75-6,10.53-4.82-2.1,6-2.05,5.82,4,7.91,1.1.38,1.57,2.56,2.32,3.9Z"/><path class="cls-3" d="M154,205l-2.31-.16c4.16-5.65,10.22-4.91,16.1-4.84l7.2.09c-1.94,6.21-6.83,3.23-10.74,3.53C160.83,203.9,157.43,204.54,154,205Z"/><path class="cls-3" d="M89,221.89l-6.14-1v6.17c-1.29-1.82-3-3.5-3.64-5.52-.23-.76,2.49-3.5,3.28-3.27C84.86,218.92,86.9,220.61,89,221.89Z"/><path class="cls-3" d="M118,207c-3.64,5.42-7.28,4.83-12-2Z"/><path class="cls-5" d="M139.08,259c-4.18,1.74-12.3.18-8.56,8.79-7.05,3.27-7.33,3-9.25-3.7-.78-2.74-2.41-5.23-4-8.58,2.36-5.22,7.81-3.65,12.51-3.66C135.36,251.86,136.4,252.79,139.08,259Z"/><path class="cls-5" d="M168.23,276.2c4.53-1.72,9.15-3.61,13.11,1a43,43,0,0,1,3.49,5.53l-1.14,1.12-19.11-1.5,3.62-6.1L168,276Z"/><path class="cls-5" d="M111.17,256.84l.5.6-1-.14C110.86,257.14,111,257,111.17,256.84Z"/><path class="cls-5" d="M240.75,248.58c-2.76-.17-4.56,0-6.19-.45a7.37,7.37,0,0,1-3.95-2.34c-.4-.58.72-2.51,1.5-3.58a13.77,13.77,0,0,1,3.75-3.92c1.37-.8,3.49-1.44,4.84-.95,5.05,1.84,10.64,11,10.48,16.37-.1,3.37-2.27,3.51-4.81,3.35-2.06-.12-4.14,0-6.19-.14a31.37,31.37,0,0,1-4-.79,40.8,40.8,0,0,1,1.71-3.74A45,45,0,0,1,240.75,248.58Z"/></svg>