<svg id="Layer_1" data-name="Layer 1" xmlns="http://www.w3.org/2000/svg" viewBox="0 0 359.93 359.93"><defs><style>.cls-1{fill:#fdfbfb;}.cls-2{fill:#ec5565;}</style></defs><title>DENMARK</title><path class="cls-1" d="M359.93,359.93H0V0H359.93ZM269,3H184.55c-5.83,0-6.14.45-5.31,6.38a49.09,49.09,0,0,1,.56,7q0,62.7,0,125.42a40.87,40.87,0,0,1-.39,6c-1.12,7.59-.43,8.43,7.33,8.43q74.44,0,148.9,0c5.32,0,10.66-.19,16-.7,7.19-.7,7.16-.86,6.54-7.86-.12-1.32,0-2.66,0-4q0-63.46,0-126.93a46.79,46.79,0,0,1,.79-7.36c.75-4.53-.68-6.26-5.47-6.26ZM179.94,359H350c9.19,0,9.18,0,8.12-9a27.05,27.05,0,0,1,0-3q-.08-64.71-.1-129.42a101.43,101.43,0,0,1,1-10.1c-8.9-.53-17.29-1.48-25.68-1.44-48.62.2-97.24.65-145.86,1-7.92.06-7.91,0-7.62,8,.05,1.33,0,2.67,0,4l.12,121.92C180,346.73,179.94,352.53,179.94,359ZM65.86,359c19.16,0,38.31-.11,57.46.09,4.29.05,5.76-1.05,5.74-5.56-.16-40.8-.1-81.6-.09-122.4,0-6.75,0-13.49.15-20.23,0-2.61-.39-4.74-3.48-4.9-2.73-.14-5.48,0-8.22,0L12,205.83c-9.29,0-9.28,0-8.27,9a31.22,31.22,0,0,1,.09,3.49c.05,36,.18,71.95.1,107.92,0,9.11-.69,18.22-1,27.33-.14,3.47.78,5.48,5,5.44C27.22,358.85,46.54,359,65.86,359ZM66.47,4C47,4,27.5,4.06,8,3.9c-4.33,0-5.69,1.34-4.79,5.59a40.81,40.81,0,0,1,.58,8.43q0,62.69,0,125.39c0,1.83.19,3.68,0,5.49-.7,7.14-.75,7.15,6.56,7.16q54.45.07,108.91.13c2.15,0,4.6.29,6.37-.61a6.49,6.49,0,0,0,3-4.68c.18-4.2-.64-8.44-.64-12.66q0-61.45.11-122.9c0-2-.56-4.21.11-5.94,1.82-4.69-.19-5.41-4.3-5.38C104.77,4,85.62,4,66.47,4Z"/><path class="cls-2" d="M269,3h84.46c4.79,0,6.22,1.73,5.47,6.26a46.79,46.79,0,0,0-.79,7.36q-.08,63.47,0,126.93c0,1.33-.09,2.67,0,4,.62,7,.65,7.16-6.54,7.86-5.29.51-10.63.69-16,.7q-74.44.07-148.9,0c-7.76,0-8.45-.84-7.33-8.43a40.87,40.87,0,0,0,.39-6q0-62.71,0-125.42a49.09,49.09,0,0,0-.56-7c-.83-5.93-.52-6.37,5.31-6.38Z"/><path class="cls-2" d="M179.94,359c0-6.43,0-12.23,0-18L179.82,219c0-1.33,0-2.67,0-4-.29-8-.3-8,7.62-8,48.62-.34,97.24-.79,145.86-1,8.39,0,16.78.91,25.68,1.44a101.43,101.43,0,0,0-1,10.1q0,64.71.1,129.42a27.05,27.05,0,0,0,0,3c1.06,9,1.07,9-8.12,9H179.94Z"/><path class="cls-2" d="M65.86,359c-19.32,0-38.64-.11-57.95.09-4.25,0-5.17-2-5-5.44.35-9.11,1-18.22,1-27.33.08-36,0-71.94-.1-107.92a31.22,31.22,0,0,0-.09-3.49c-1-9.05-1-9.05,8.27-9l105.42.11c2.74,0,5.49-.12,8.22,0,3.09.16,3.53,2.29,3.48,4.9-.12,6.74-.15,13.48-.15,20.23,0,40.8-.07,81.6.09,122.4,0,4.51-1.45,5.61-5.74,5.56C104.17,358.85,85,359,65.86,359Z"/><path class="cls-2" d="M66.47,4c19.15,0,38.3.07,57.45-.05,4.11,0,6.12.69,4.3,5.38-.67,1.73-.11,3.94-.11,5.94Q128,76.69,128,138.14c0,4.22.82,8.46.64,12.66a6.49,6.49,0,0,1-3,4.68c-1.77.9-4.22.61-6.37.61q-54.45,0-108.91-.13c-7.31,0-7.26,0-6.56-7.16.18-1.81,0-3.66,0-5.49q0-62.7,0-125.39a40.81,40.81,0,0,0-.58-8.43C2.32,5.24,3.68,3.86,8,3.9,27.5,4.06,47,4,66.47,4Z"/></svg>