<svg id="Layer_1" data-name="Layer 1" xmlns="http://www.w3.org/2000/svg" viewBox="0 0 359.97 359.88"><defs><style>.cls-1{fill:#fdfdfd;}.cls-2{fill:#4859aa;}</style></defs><title>FINLAND</title><path class="cls-1" d="M130,359.88H0V0H360V156.88c-4,.05-8,.15-12,.14l-160.4-.14c-10.07,0-10.13-.08-9.81-9.78,0-1,0-2,0-3V1.11H129.62c.18,2.16.47,4.12.47,6.07q0,69.72-.12,139.43C130,157,130,157,119.32,157Q66.6,157,13.87,156.84c-4.19,0-8.39-.51-12.64-.78v49.71c3.81-.37,7.39-1,11-1q53-.12,105.94,0a32.05,32.05,0,0,1,9.36,1,6,6,0,0,1,3.25,4.47c.17,5.26-.59,10.54-.6,15.81Q130,292.95,130,359.88Z"/><path class="cls-2" d="M130,359.88q.08-66.94.19-133.88c0-5.27.77-10.55.6-15.81a6,6,0,0,0-3.25-4.47,32.05,32.05,0,0,0-9.36-1q-53-.09-105.94,0c-3.59,0-7.17.63-11,1V156.06c4.25.27,8.45.77,12.64.78q52.73.16,105.45.19C130,157,130,157,130,146.61q.06-69.72.12-139.43c0-1.95-.29-3.91-.47-6.07h48.19v143c0,1,0,2,0,3-.32,9.7-.26,9.77,9.81,9.78L348,157c4,0,8-.09,12-.14v49a44,44,0,0,0-6.37-1q-84.66-.15-169.31-.25c-4.77,0-6.39,1.8-6.39,6.5.06,45.27-.07,90.55,0,135.83,0,4.29.72,8.59,1.11,12.88Z"/><path class="cls-1" d="M179,359.88c-.39-4.29-1.1-8.59-1.11-12.88,0-45.28.1-90.56,0-135.83,0-4.7,1.62-6.52,6.39-6.5q84.65.21,169.31.25a44,44,0,0,1,6.37,1v154Z"/></svg>