<svg id="Layer_1" data-name="Layer 1" xmlns="http://www.w3.org/2000/svg" viewBox="0 0 360 360"><defs><style>.cls-1{fill:#fdfdfd;}.cls-2{fill:#4758a8;}.cls-3{fill:#ec5565;}</style></defs><title>FRANCE</title><path class="cls-1" d="M246,360H116V1h-6Q60.49,1,11,1A26.82,26.82,0,0,1,6,0Q180.75,0,355.5,0A21.92,21.92,0,0,1,360,1H246Z"/><path class="cls-2" d="M6,0a26.82,26.82,0,0,0,5,1q49.49.09,99,0h6V360H1Q1,186.26,1,12.51A32.3,32.3,0,0,0,0,7V0Z"/><path class="cls-3" d="M246,360V1H360V360Z"/><path class="cls-1" d="M0,7a32.3,32.3,0,0,1,1,5.51Q1,186.26,1,360a21.83,21.83,0,0,1-1-4.49Q0,248.16,0,140.81Z"/></svg>