<svg id="Layer_1" data-name="Layer 1" xmlns="http://www.w3.org/2000/svg" viewBox="0 0 361 361"><defs><style>.cls-1{fill:#f5ba42;}.cls-2{fill:#434a54;}.cls-3{fill:#ec5565;}</style></defs><title>GERMANY</title><path class="cls-1" d="M361,241V361H0V7a30.34,30.34,0,0,1,1,5.5Q1.19,66.74,1.23,121c-.07,2-.21,4-.21,6q0,53.49,0,107c0,7,0,7,7,7Z"/><path class="cls-2" d="M1.23,121Q1.14,66.74,1,12.5A30.34,30.34,0,0,0,0,7V0H6a21.43,21.43,0,0,0,4.5,1c10.67.09,21.34.05,32,.05L361,1V121Z"/><path class="cls-3" d="M1.23,121,361,121V241H8.05c-7,0-7,0-7-7q0-53.49,0-107C1,125,1.16,123,1.23,121Z"/><path class="cls-1" d="M361,1,42.5,1.06c-10.66,0-21.33,0-32-.05A21.43,21.43,0,0,1,6,0Q181.25,0,356.5,0A21.92,21.92,0,0,1,361,1Z"/></svg>