<svg id="a4d0a6c8-6dc3-479b-9857-4466c8004ccd" data-name="Layer 1" xmlns="http://www.w3.org/2000/svg" viewBox="0 0 514.55 514.55"><title>GLOBE</title><path d="M276.37,0H238.18Q30,30,0,238.18v38.19Q30,484.54,238.18,514.55h38.19q208.17-30,238.18-238.18V238.18Q484.52,30,276.37,0ZM441.19,128.64H378.88a241.7,241.7,0,0,0-49.24-83.42A209.28,209.28,0,0,1,441.19,128.64ZM273.36,38.19c4.14-1.25,8.12,3.51,11.05,6,24.4,20.92,45.42,52.38,60.3,83.41-21.77,2.35-47.9.34-71.35,1Zm1,122.61h82.41c6.9,23.92,10.68,50.95,13.07,79.39-30.15,2.35-64.66.34-96.48,1C274,214.73,272,185.59,274.36,160.8ZM183.91,44.22c-16.78,23.42-38,51.09-48.24,84.42H73.36C99.2,89.49,136.93,62.22,183.91,44.22ZM55.27,160.8h69.35C118,185,114.05,211.87,112.56,241.2H33.16C35.59,209.45,42.43,182.13,55.27,160.8ZM33.16,273.36h79.4c1.49,29.32,5.42,56.22,12.06,80.4H54.27A208,208,0,0,1,33.16,273.36Zm40.2,112.56h62.31a241.52,241.52,0,0,0,49.25,83.41A209.3,209.3,0,0,1,73.36,385.92ZM241.2,476.36c-4.15,1.25-8.12-3.51-11.06-6-24.39-20.9-45.44-52.38-60.3-83.41,21.78-2.34,47.91-.34,71.36-1Zm0-122.6H157.78c-6.24-23.91-12.48-53.18-12.06-80.4H241.2Zm0-112.56H144.72c2.59-28.9,5.27-57.71,14.07-80.4H241.2Zm0-112.56H169.84c16.84-37.43,39.8-68.74,70.35-92.46C242.54,65,240.53,98.15,241.2,128.64Zm33.16,144.72h95.48c-2.24,28.91-6.11,56.2-13.07,80.4H273.36C274,327.29,272,298.15,274.36,273.36Zm-1,204V385.92h71.35C327.75,422.55,304.16,457.93,273.36,477.37Zm57.28-7c16.8-23.39,38-51.11,48.24-84.41h62.31C415.35,425.07,377.63,452.33,330.64,470.33ZM460.28,353.76H389.94c7.4-23.76,9.28-53,13.06-80.4h78.39A208.75,208.75,0,0,1,460.28,353.76ZM402,241.2c-1.59-29.23-5.37-56.28-12.06-80.4h70.34a208.65,208.65,0,0,1,21.11,80.4Z" style="fill:#b3994e;fill-rule:evenodd"/></svg>