<svg id="Layer_1" data-name="Layer 1" xmlns="http://www.w3.org/2000/svg" viewBox="0 0 360 360"><defs><style>.cls-1{fill:#f8f9fc;}.cls-2{fill:#4b5cac;}</style></defs><title>GREECE</title><path class="cls-1" d="M1,360a21.92,21.92,0,0,1-1-4.5Q0,250.58,0,145.65V0H7.74Q181.62,0,355.5,0A21.92,21.92,0,0,1,360,1H92.58a4.18,4.18,0,0,0,2.76,1c6.66.18,6.64.17,6.66,6.9q.06,25.5.16,51c0,7.12,1,8,8.12,8q29.5,0,59,.15c2,0,4.69-.7,4.7,2.77,0,8.28,0,16.55,0,25.21H168q-28.25,0-56.49,0c-2,0-4.26-.26-5.87.59s-3.5,3-3.51,4.52c-.19,18.82,0,37.66,0,56.49,0,4.61,2.23,6.35,6.85,6.35q125.49-.08,251,0v35H1.33v30.52c3.12-.16,5.92-.45,8.73-.45Q185,229,360,229v36H1.33v30.55c4-.17,7.58-.48,11.21-.48Q186.27,295,360,295v36H1ZM1,164.86c3.72-.32,6.86-.81,10-.82,19.15,0,38.31-.09,57.46.13,4.41.05,5.68-1.39,5.63-5.75q-.32-28.47,0-56.95c.05-4.4-1.25-5.75-5.63-5.71-20.65.19-41.3.08-61.94.09-.67,0-1.56-.26-2,.08C3.29,97,1.18,98.28,1.16,99.5,1,121.13,1,142.76,1,164.86ZM1,1.18c0,20.4.13,40.34-.09,60.28C.87,66.31,2.65,67.93,7.3,67.9c20.47-.12,40.94-.17,61.4,0,4.41,0,5.25-1.65,5.21-5.57-.15-18-.09-35.94,0-53.91,0-2.37.39-4.74.61-7.28Z"/><path class="cls-2" d="M360,164q-125.49,0-251,0c-4.62,0-6.84-1.74-6.85-6.35,0-18.83-.19-37.67,0-56.49,0-1.57,1.93-3.68,3.51-4.52s3.89-.59,5.87-.59q28.24,0,56.49,0H174c0-8.66,0-16.93,0-25.21,0-3.47-2.66-2.76-4.7-2.77q-29.49-.12-59-.15c-7.07,0-8.08-.87-8.12-8q-.12-25.5-.16-51c0-6.73,0-6.72-6.66-6.9a4.18,4.18,0,0,1-2.76-1H360V32q-89.44-.06-178.9-.16c-3.82,0-5.34,1.11-5.18,5.17.29,7.65.37,15.33,0,23-.26,4.91,1.44,6.12,6.2,6.11q89-.22,177.9-.1V98H176c0,10.73-.13,20.94.21,31.14,0,1,2.89,2.83,4.45,2.84,36.13.12,72.27.05,108.4,0H360Z"/><path class="cls-2" d="M360,295q-173.73,0-347.46.07c-3.63,0-7.26.31-11.21.48V265H360Z"/><path class="cls-2" d="M360,229q-175,0-349.94.07c-2.81,0-5.61.29-8.73.45V199H360Z"/><path class="cls-2" d="M1,360V331H360v29Z"/><path class="cls-1" d="M360,132H289.07c-36.13,0-72.27.1-108.4,0-1.56,0-4.42-1.8-4.45-2.84-.34-10.2-.21-20.41-.21-31.14H360Z"/><path class="cls-1" d="M360,66q-89,0-177.9.1c-4.76,0-6.46-1.2-6.2-6.11.39-7.65.31-15.33,0-23-.16-4.06,1.36-5.18,5.18-5.17Q270.54,32,360,32Z"/><path class="cls-2" d="M1,164.86c0-22.1-.05-43.73.15-65.36,0-1.22,2.13-2.5,3.41-3.57.4-.34,1.29-.08,2-.08,20.64,0,41.29.1,61.94-.09,4.38,0,5.68,1.31,5.63,5.71q-.34,28.47,0,56.95c0,4.36-1.22,5.8-5.63,5.75C49.31,164,30.15,164,11,164,7.87,164.05,4.73,164.54,1,164.86Z"/><path class="cls-2" d="M1,1.18H74.48c-.22,2.54-.6,4.91-.61,7.28-.05,18-.11,35.94,0,53.91,0,3.92-.8,5.62-5.21,5.57-20.46-.21-40.93-.16-61.4,0-4.65,0-6.43-1.59-6.38-6.44C1.14,41.52,1,21.58,1,1.18Z"/></svg>