<svg id="a144b451-59ff-4046-a396-05a3c6babdf5" data-name="Layer 1" xmlns="http://www.w3.org/2000/svg" viewBox="0 0 360 360"><title>HOLLAND</title><path d="M0,123V0H360V121H99.35c-31.29,0-62.58,0-93.87.09C3.65,121.09,1.83,122.33,0,123Z" style="fill:#ec5565"/><path d="M0,123c1.83-.67,3.65-1.91,5.48-1.91C36.77,121,68.06,121,99.35,121H360V241H1.17c-.06-1.83-.16-3.66-.16-5.49Q1,184.26,1,133a26.82,26.82,0,0,0-1-5Z" style="fill:#fdfdfd"/><path d="M1.17,241H360V360H1V344.56Q1.09,292.78,1.17,241Z" style="fill:#4758a9"/><path d="M1.17,241Q1.08,292.78,1,344.56V360a21.92,21.92,0,0,1-1-4.5Q0,241.76,0,128a26.82,26.82,0,0,1,1,5q.09,51.26.05,102.5C1,237.34,1.11,239.17,1.17,241Z" style="fill:#fdfdfd"/></svg>