<svg id="Layer_1" data-name="Layer 1" xmlns="http://www.w3.org/2000/svg" viewBox="0 0 360 360"><defs><style>.cls-1{fill:#ec5565;}.cls-2{fill:#faeff0;}</style></defs><title>HONG-KONG</title><path class="cls-1" d="M360,1V360H1V1c2.88,0,5,0,7.17,0ZM219.12,132.61l-.5-1c-7.27,3-14.55,6-21.79,9.07-.51.22-.86,1-1.14,1.58-4.22,8.61-12.18,15.4-11.94,26.26.06,3-1.52,6.26,1.55,8,2.73,1.53,5.41.19,8-2,7-5.92,14.59-10.31,24.33-6.74,1.87.69,3.88.93,5.79,1.52,4.73,1.46,9.25,1.44,13-2.29,6.6-6.64,13.19-7.1,20.44-.87,1.44,1.23,4.19.94,6.33,1.34.14-2.39.34-4.79.35-7.19,0-.57-.67-1.12-.95-1.72-2.9-6.2-5.74-12.44-8.72-18.61a3.71,3.71,0,0,0-2.21-1.72c-7.58-1.94-15.14-4-22.8-5.5C225.72,132.08,222.36,132.61,219.12,132.61ZM103.78,168.73c.17,16.21,9.4,31.37,23.72,36.68a45.37,45.37,0,0,0,18,2.53c11.38-.69,21.6-5.1,28.87-14.28,1.53-1.94,1.37-5.65,1-8.39-.1-.65-4.46-1.37-6.61-.91-9.84,2.11-18.49.92-25.21-7.38-1.36-1.67-2.7-3.58-4.49-4.63-3-1.77-6.41-4.18-9.6-4.11-8.41.17-14.94-2.15-19-9.82a4.57,4.57,0,0,0-.6-.79c-2.52-2.93-4.52-2-5.23,1.21S104,165.43,103.78,168.73Zm28.28,75.66a9.83,9.83,0,0,0,6,8.94c19,9.27,49.2,1,54-26.58a46.76,46.76,0,0,0-4-29.55c-.78-1.61-2.37-2.83-3.58-4.23-1.18,1.6-3.14,3.09-3.4,4.82-1.49,10.28-7.24,17.18-16.75,20.44-8.26,2.83-13.75,7.51-16,16.13-1.42,5.33-4.81,9-11,9.18A41.25,41.25,0,0,0,132.06,244.39Zm93,5.8a20,20,0,0,0,3.3-1.09c11.19-6.45,15.37-16.44,15.93-29,1-23.58-24.27-45.45-47.74-39.05-1.69.46-3.05,2.11-4.57,3.2a22.66,22.66,0,0,0,3.33,3.18c8,5.12,14.08,12.2,14.34,21.6.27,9.84,2.91,17.27,11.14,22.91,3.74,2.56,6.36,6.26,4.38,11.59C224.5,245.32,225.07,247.63,225.07,250.19ZM185.31,104.12c-10.59-.35-19.19-1.41-26.83,5.76-12.67,11.89-15.14,26.46-11.4,42a30.4,30.4,0,0,0,20.39,22.24c1.48.51,3.34-.09,5-.17a42.51,42.51,0,0,0-.39-5.67c-.46-2.36-1.62-4.61-1.9-7-.84-7.17,1.6-13.6,5.92-19s4.68-11.47,3.36-17.87a34.13,34.13,0,0,0-1.43-5.29c-1.42-3.69-.94-6.68,2.36-9.25C182,108.67,183.06,106.83,185.31,104.12Z"/><path class="cls-2" d="M360,1,8.17,1C6,1.05,3.88,1,1,1V360a21.92,21.92,0,0,1-1-4.5Q0,250.58,0,145.65V0H7.74Q181.62,0,355.5,0A21.92,21.92,0,0,1,360,1Z"/><path class="cls-2" d="M219.12,132.61c3.24,0,6.6-.53,9.72.1,7.66,1.53,15.22,3.56,22.8,5.5a3.71,3.71,0,0,1,2.21,1.72c3,6.17,5.82,12.41,8.72,18.61.28.6,1,1.15.95,1.72,0,2.4-.21,4.8-.35,7.19-2.14-.4-4.89-.11-6.33-1.34-7.25-6.23-13.84-5.77-20.44.87-3.72,3.73-8.24,3.75-13,2.29-1.91-.59-3.92-.83-5.79-1.52-9.74-3.57-17.37.82-24.33,6.74-2.6,2.22-5.28,3.56-8,2-3.07-1.72-1.49-5-1.55-8-.24-10.86,7.72-17.65,11.94-26.26.28-.59.63-1.36,1.14-1.58,7.24-3.07,14.52-6.06,21.79-9.07Z"/><path class="cls-2" d="M103.78,168.73c.24-3.3.12-6.69.82-9.89s2.71-4.14,5.23-1.21a4.57,4.57,0,0,1,.6.79c4.09,7.67,10.62,10,19,9.82,3.19-.07,6.58,2.34,9.6,4.11,1.79,1.05,3.13,3,4.49,4.63,6.72,8.3,15.37,9.49,25.21,7.38,2.15-.46,6.51.26,6.61.91.4,2.74.56,6.45-1,8.39-7.27,9.18-17.49,13.59-28.87,14.28a45.37,45.37,0,0,1-18-2.53C113.18,200.1,104,184.94,103.78,168.73Z"/><path class="cls-2" d="M132.06,244.39a41.25,41.25,0,0,1,5.34-.85c6.15-.13,9.54-3.85,11-9.18,2.29-8.62,7.78-13.3,16-16.13,9.51-3.26,15.26-10.16,16.75-20.44.26-1.73,2.22-3.22,3.4-4.82,1.21,1.4,2.8,2.62,3.58,4.23a46.76,46.76,0,0,1,4,29.55c-4.8,27.57-35,35.85-54,26.58A9.83,9.83,0,0,1,132.06,244.39Z"/><path class="cls-2" d="M225.07,250.19c0-2.56-.57-4.87.11-6.71,2-5.33-.64-9-4.38-11.59-8.23-5.64-10.87-13.07-11.14-22.91-.26-9.4-6.35-16.48-14.34-21.6A22.66,22.66,0,0,1,192,184.2c1.52-1.09,2.88-2.74,4.57-3.2,23.47-6.4,48.78,15.47,47.74,39.05-.56,12.61-4.74,22.6-15.93,29A20,20,0,0,1,225.07,250.19Z"/><path class="cls-2" d="M185.31,104.12c-2.25,2.71-3.33,4.55-4.9,5.77-3.3,2.57-3.78,5.56-2.36,9.25a34.13,34.13,0,0,1,1.43,5.29c1.32,6.4,1,12.32-3.36,17.87s-6.76,11.88-5.92,19c.28,2.36,1.44,4.61,1.9,7a42.51,42.51,0,0,1,.39,5.67c-1.68.08-3.54.68-5,.17a30.4,30.4,0,0,1-20.39-22.24c-3.74-15.58-1.27-30.15,11.4-42C166.12,102.71,174.72,103.77,185.31,104.12Z"/></svg>