<svg id="Layer_1" data-name="Layer 1" xmlns="http://www.w3.org/2000/svg" viewBox="0 0 360 360"><defs><style>.cls-1{fill:#fcfcfc;}.cls-2{fill:#ec5565;}.cls-3{fill:#57a763;}</style></defs><title>HUNGARY</title><path class="cls-1" d="M1,360a21.92,21.92,0,0,1-1-4.5Q0,250.58,0,145.65V0H7.74Q181.62,0,355.5,0A21.92,21.92,0,0,1,360,1H1V6.05C1,42.7,1.1,79.36.9,116c0,4.94,1.55,6.08,6.25,6.08Q183.58,121.91,360,122V241H1Z"/><path class="cls-2" d="M360,122q-176.43,0-352.85.09C2.45,122.09.87,121,.9,116,1.1,79.36,1,42.7,1,6.05V1H360Z"/><path class="cls-3" d="M1,360V241H360V360Z"/></svg>