<svg id="Layer_1" data-name="Layer 1" xmlns="http://www.w3.org/2000/svg" viewBox="0 0 360.29 360.05"><defs><style>.cls-1{fill:#fb6e51;}.cls-2{fill:#57a763;}.cls-3{fill:#fbfbfa;}.cls-4{fill:#fb775c;}.cls-5{fill:#47a964;}.cls-6{fill:#499d55;}.cls-7{fill:#fb6042;}.cls-8{fill:#969799;}.cls-9{fill:#6f6d6f;}.cls-10{fill:#eaebeb;}.cls-11{fill:#d9d8d7;}</style></defs><title>INDIA</title><path class="cls-1" d="M360,116v6H1.17v-7c.94-1.47,2.7-2.94,2.7-4.42q.24-48.09,0-96.18c0-1.48-1.76-2.95-2.7-4.42V5c7-.33,13.93-1,20.89-1Q184.32,4,346.61,4c4.46,0,8.93.63,13.39,1v5c-.67,1.72-1.91,3.44-1.91,5.16q-.18,47.83,0,95.67C358.09,112.56,359.33,114.28,360,116ZM3.8,117.79c4.45,2.89,349.81,2.93,354.46,0a50.51,50.51,0,0,0-5.88-.8q-82.69-.56-165.39-1c-11,0-21.91.88-32.86.91-48.16.1-96.32,0-144.48.07A50.62,50.62,0,0,0,3.8,117.79Z"/><path class="cls-2" d="M360,246q0,55.25-.07,110.5c0,1.22,1.6,4-1.93,3.5-.93-4.66-4.69-2.92-7.3-2.93Q181,357,11.3,357c-1.34,0-2.83-.35-4,.14S5.1,359,4,360H1q0-12.19,0-24.4.09-44.31.19-88.62c51.29,0,102.58.09,153.86-.08,6.21,0,12.41-1.42,18.61-2.23a12.55,12.55,0,0,0,2.29-.76l-1-1.19L169,241c8.31-.32,16.62-.71,24.94-.9a34.72,34.72,0,0,1,6.09.9l-6.6,2c7.88,1.44,14.89,3.79,21.91,3.84,45.43.33,90.86.19,136.29.13A74.65,74.65,0,0,0,360,246Z"/><path class="cls-3" d="M1.23,247Q1.14,291.29,1,335.6,1,347.8,1,360a21.92,21.92,0,0,1-1-4.5Q0,250.58,0,145.65V0H7.74Q181.62,0,355.5,0A21.92,21.92,0,0,1,360,1H1.16V122H360V241l-160,0a34.72,34.72,0,0,0-6.09-.9c-8.32.19-16.63.58-24.94.9H1.23ZM175.05,128.11c-13-.12-21.29,7.89-29.07,16.78l-1.09,1c-2.63,3.24-6.17,6.09-7.72,9.78-5.56,13.31-5.74,26.93-1.45,40.83C139.6,209,149,216.53,158.78,224c1,.78,2.71,1.09,3.24,2.08,2,3.71,5.22,4.23,8.86,4.22,8.48,0,17,.46,25.41-.2,4.25-.32,8.51-2.32,12.44-4.23,2-1,3.29-3.43,4.88-5.23q6.31-7.17,12.61-14.36c.63-.44,1.54-.74,1.85-1.34,7.4-14.59,9-29.88,3.58-45.28-2.88-8.18-6.43-16.77-15.17-18.27-3.07-3.48-4.84-6.61-7.52-8.3a37.29,37.29,0,0,0-22-6Z"/><path class="cls-4" d="M1.16,5V1H360V5c-4.46-.33-8.93-1-13.39-1Q184.33,4,22.05,4C15.09,4.05,8.12,4.68,1.16,5Z"/><path class="cls-5" d="M4,360c1.1-1,2.06-2.3,3.34-2.86,1.13-.49,2.62-.14,4-.14q169.7,0,339.4.07c2.61,0,6.37-1.73,7.3,2.93Z"/><path class="cls-6" d="M200,241l160,0v5a74.65,74.65,0,0,1-8.38,1c-45.43.06-90.86.2-136.29-.13-7-.05-14-2.4-21.91-3.84Z"/><path class="cls-4" d="M360,116c-.67-1.72-1.91-3.44-1.91-5.17q-.18-47.83,0-95.67c0-1.72,1.24-3.44,1.91-5.16Z"/><path class="cls-7" d="M3.8,117.79A50.62,50.62,0,0,1,9.65,117c48.16,0,96.32,0,144.48-.07,11,0,21.91-.95,32.86-.91q82.7.33,165.39,1a50.51,50.51,0,0,1,5.88.8C353.61,120.72,8.25,120.68,3.8,117.79Z"/><path class="cls-4" d="M1.17,115V10c.94,1.47,2.69,2.94,2.7,4.42q.24,48.09,0,96.18C3.87,112.07,2.11,113.54,1.17,115Z"/><path class="cls-6" d="M1.23,247v-6H169l6,1.76,1,1.19a12.55,12.55,0,0,1-2.29.76c-6.2.81-12.4,2.21-18.61,2.23C103.81,247.07,52.52,247,1.23,247Z"/><path class="cls-8" d="M226.22,206.24q-6.3,7.17-12.61,14.36c-1.59,1.8-2.88,4.25-4.88,5.23-3.93,1.91-8.19,3.91-12.44,4.23-8.42.66-16.93.18-25.41.2-3.64,0-6.89-.51-8.86-4.22-.53-1-2.21-1.3-3.24-2.08-9.74-7.43-19.18-14.93-23.06-27.5-4.29-13.9-4.11-27.52,1.45-40.83,1.55-3.69,5.09-6.54,7.72-9.78-.44,1.37-.57,3-1.37,4.08a44.22,44.22,0,0,0-7.86,20.18c-2.7,18.09,1.8,33.3,16.26,45,1.08.87,2.64,1.17,4,1.74l1.32-1.63L148,205l8.91,4c.07,4.64,2.24,7.45,7,8,2.2,3,11.78,6.78,14.73,5.58.95-.38,1.51-1.75,2.24-2.67l.42-5.06c.56,2,1.15,4.07,1.66,6.13.44,1.77,0,4.47,3.33,2.72L204,221c2.53-.63,5.66-.55,7.48-2,5-4.09,9.43-8.85,14.09-13.34Z"/><path class="cls-8" d="M187,127.08a37.29,37.29,0,0,1,22,6c2.68,1.69,4.45,4.82,7.52,8.3,8.74,1.5,12.29,10.09,15.17,18.27,5.43,15.4,3.82,30.69-3.58,45.28-.31.6-1.22.9-1.85,1.34l-.69-.67c1.18-3.75-.82-3.36-3.21-2.45-.11-.38-.23-.76-.35-1.14a41.63,41.63,0,0,0,3-6.11c1.61-5.2,6.14-10.49.09-15.76L223,176l5.79-2.15c-1-4.17-1.72-8.39-3.11-12.37-3.41-9.72-11.77-15.86-17.75-23.72-1-1.49-1.64-3.75-3-4.32-4.41-1.82-9.1-3-13.66-4.5C189.78,128.44,188.39,127.7,187,127.08Z"/><path class="cls-9" d="M148,205l9.21,10.24-1.32,1.63c-1.33-.57-2.89-.87-4-1.74-14.46-11.73-19-26.94-16.26-45a44.22,44.22,0,0,1,7.86-20.18c.8-1.1.93-2.71,1.37-4.08l1.09-1c2-1,3.92-2.11,5.92-3.08,1.42-.69,2.64-3.89,4.51-.48-1.23,3.58-2.1,7.4-6.67,8.4-.44.1-.61,1.42-.9,2.17l-4,4.86a24.28,24.28,0,0,0-5.46,17.93l-.24,6.47A37.84,37.84,0,0,0,148,205Z"/><path class="cls-9" d="M187,127.08c1.42.62,2.81,1.36,4.28,1.84,4.56,1.51,9.25,2.68,13.66,4.5,1.37.57,2,2.83,3,4.32l-10.82-3a13.51,13.51,0,0,0-2.27-1.65c-4.81-2.16-9,.34-13.28,1.93-.59-.7-1.22-2-1.76-2-2.6.17-5.17.7-7.76,1.11L169.61,132l5.44-3.92Z"/><path class="cls-8" d="M175.05,128.11,169.61,132l2.42,2.13a1,1,0,0,1,0,.82l-11.13,4.91-2,1-2.49.46c-1.87-3.41-3.09-.21-4.51.48-2,1-4,2.05-5.92,3.08C153.76,136,162.06,128,175.05,128.11Z"/><path class="cls-10" d="M148,205a37.84,37.84,0,0,1-8.87-23.85c10.62-.4,21.24-.86,31.87-1.13,1.34,0,3.85.89,3.88,1.49.25,4.24,4.18,4.56,6.42,6.61l-.25.08-.11-.24c-1.62.92-3.48,1.58-4.8,2.81-6.49,6-12.83,12.15-19.23,18.25Z"/><path class="cls-3" d="M156.91,209c6.4-6.1,12.74-12.25,19.23-18.25,1.32-1.23,3.18-1.89,4.8-2.81l.33,26.94-.42,5.06c-6.8,2.33-7.92-3.56-10.41-7.73l-6.56,4.82C159.15,216.48,157,213.67,156.91,209Z"/><path class="cls-9" d="M181.27,214.91,180.94,188l.11.24.25-.08,5.79-.12q-.15,12.88-.28,25.78c-.53,1.26-1.48,2.51-1.49,3.77a36.89,36.89,0,0,0,.94,6.2c-3.29,1.75-2.89-.95-3.33-2.72C182.42,219,181.83,217,181.27,214.91Z"/><path class="cls-9" d="M222.32,203.12c2.39-.91,4.39-1.3,3.21,2.45-4.66,4.49-9.1,9.25-14.09,13.34-1.82,1.49-4.95,1.41-7.48,2L208.1,216l2.91-3c3.07-2.49,6.17-4.94,9.2-7.48A20.44,20.44,0,0,0,222.32,203.12Z"/><path class="cls-11" d="M208.1,216,204,221l-17.7,2.81a36.89,36.89,0,0,1-.94-6.2c0-1.26,1-2.51,1.49-3.77,2.6,7.66,3.13,7.9,8.58,6C199.54,218.27,203.86,217.26,208.1,216Z"/><path class="cls-10" d="M163.88,217.06l6.56-4.82c2.49,4.17,3.61,10.06,10.41,7.73-.73.92-1.29,2.29-2.24,2.67C175.66,223.84,166.08,220,163.88,217.06Z"/><path class="cls-10" d="M197.1,134.76l10.82,3c6,7.86,14.34,14,17.75,23.72,1.39,4,2.08,8.2,3.11,12.37L223,176l-5-.13c-5-.33-10.12-1.49-15-.82-7.38,1-11.28-2.94-14.94-8.05,2.62-2,5.54-3.67,7.81-6,5-5.15,9.72-10.63,14.58-16-2.24-4.38-6.68-6.65-11.81-8-1-.27-1.8-1.21-2.7-1.84Z"/><path class="cls-3" d="M225.06,180.11c6.05,5.27,1.52,10.56-.09,15.76a41.63,41.63,0,0,1-3,6.11c-.8.17-1.8.09-2.38.54-3.44,2.67-5.27,1.61-7.73-1.84s-6.45-5.86-9.77-8.73c-2.34-1.69-4.8-3.25-7-5.12-.94-.8-2-2.33-1.8-3.34s1.72-2,2.87-2.38,2.57-.18,3.88-.22Z"/><path class="cls-11" d="M202.09,192c3.32,2.87,7.29,5.27,9.77,8.73s4.29,4.51,7.73,1.84c.58-.45,1.58-.37,2.38-.54.12.38.24.76.35,1.14a20.44,20.44,0,0,1-2.11,2.42c-3,2.54-6.13,5-9.2,7.48-.26-1.59,0-3.71-.87-4.69-3.54-3.77-7.52-7.13-11.23-10.75a29.35,29.35,0,0,1-2.82-3.7C198.21,193.62,201.65,197.46,202.09,192Z"/><path class="cls-9" d="M225.06,180.11l-25,.78L194.71,177c4,0,6.64.13,9.31,0,4.67-.27,9.33-.72,14-1.1l5,.13Z"/><path class="cls-3" d="M158.9,140.87l2-1c4.49.12,10,2.66,11.13-4.91a1,1,0,0,0,0-.82c2.59-.41,5.16-.94,7.76-1.11.54,0,1.17,1.29,1.76,2-.2,10-.37,20.08-.62,30.12-.08,3.49-6,9.65-9.7,9.7-10,.16-20.1,0-30.15,0-.36-3.76-.42-7.23,4.22-8.81.79-.27,1.24-2.76,1.13-4.17-.14-1.74-1-3.41-1.6-5.1l4-4.86c2,1,4.08,2.1,6.17,3,1.69.74,3.47,1.26,5.2,1.88,3.49,3.58,6.84,7.3,10.55,10.62,1,.92,3.14.61,4.76.86-.47-1.58-.44-3.71-1.48-4.65-4.52-4-9.34-7.77-14.06-11.6C157.88,148.48,157.12,144.8,158.9,140.87Z"/><path class="cls-8" d="M141.08,174.84c10,0,20.1.17,30.15,0,3.73,0,9.62-6.21,9.7-9.7.25-10,.42-20.08.62-30.12,4.29-1.58,8.47-4.08,13.28-1.92a13.51,13.51,0,0,1,2.27,1.65l-1.12.34c-1-.24-1.92-.51-2.89-.7-5.4-1-6-.52-6.07,5,0,3.63-.13,7.28,0,10.91.24,5.56.69,11.12,1,16.68,3.66,5.11,7.56,9.07,14.94,8.05,4.86-.67,10,.49,15,.82-4.67.38-9.33.83-14,1.1-2.67.16-5.34,0-9.31,0l5.34,3.91c-1.31,0-2.72-.21-3.88.22s-2.71,1.43-2.87,2.38.86,2.54,1.8,3.34c2.19,1.87,4.65,3.43,7,5.12-.44,5.51-3.88,1.67-6,1.93-1.57-1.58-3.73-2.91-4.55-4.81-1.25-2.9-2.67-2-4.45-1.06l-5.79.12c-2.24-2-6.17-2.37-6.42-6.61,0-.6-2.54-1.52-3.88-1.49-10.63.27-21.25.73-31.87,1.13l.24-6.47Z"/><path class="cls-11" d="M160.21,156.8c-1.73-.62-3.51-1.14-5.2-1.88-2.09-.92-4.12-2-6.17-3,.29-.75.46-2.07.9-2.17,4.57-1,5.44-4.82,6.67-8.4l2.49-.46c-1.78,3.93-1,7.61,1.08,11.16C156,153.81,160.59,155.19,160.21,156.8Z"/><path class="cls-11" d="M141.08,174.84l-1.71-.15a24.28,24.28,0,0,1,5.46-17.93c.57,1.69,1.46,3.36,1.6,5.1.11,1.41-.34,3.9-1.13,4.17C140.66,167.61,140.72,171.08,141.08,174.84Z"/><path class="cls-11" d="M172,135c-1.09,7.57-6.64,5-11.13,4.91Z"/><path class="cls-3" d="M187.09,188c1.78-1,3.2-1.84,4.45,1.06.82,1.9,3,3.23,4.55,4.81a29.35,29.35,0,0,0,2.82,3.7c3.71,3.62,7.69,7,11.23,10.75.91,1,.61,3.1.87,4.69l-2.91,3c-4.24,1.22-8.56,2.23-12.71,3.71-5.45,1.94-6,1.7-8.58-6Z"/><path class="cls-3" d="M188.1,167c-.36-5.56-.81-11.12-1-16.68-.16-3.63-.05-7.28,0-10.91,0-5.51.67-6,6.07-5,1,.19,1.93.46,2.89.7.9.63,1.71,1.57,2.7,1.84,5.13,1.38,9.57,3.65,11.81,8-4.86,5.38-9.56,10.86-14.58,16C193.64,163.31,190.72,165,188.1,167Z"/><path class="cls-8" d="M160.21,156.8c.38-1.61-4.19-3-.23-4.77,4.72,3.83,9.54,7.55,14.06,11.6,1,.94,1,3.07,1.48,4.65-1.62-.25-3.73.06-4.76-.86C167.05,164.1,163.7,160.38,160.21,156.8Z"/></svg>