<svg id="Layer_1" data-name="Layer 1" xmlns="http://www.w3.org/2000/svg" viewBox="0 0 360 360"><defs><style>.cls-1{fill:#fdfdfd;}.cls-2{fill:#57a763;}.cls-3{fill:#fb6e51;}</style></defs><title>IRELAND</title><path class="cls-1" d="M247,360H114a54.7,54.7,0,0,0,1-7.26q.08-173,0-345.95V1.32H1V360a21.92,21.92,0,0,1-1-4.5Q0,250.58,0,145.65V0H7.74Q181.62,0,355.5,0A21.92,21.92,0,0,1,360,1H247Z"/><path class="cls-2" d="M1,360V1.32H115V6.79q0,173,0,346a54.7,54.7,0,0,1-1,7.26Z"/><path class="cls-3" d="M247,360V1H360V360Z"/></svg>