<svg id="Layer_1" data-name="Layer 1" xmlns="http://www.w3.org/2000/svg" viewBox="0 0 360 360"><defs><style>.cls-1{fill:#fcfdfd;}.cls-2{fill:#495aaa;}.cls-3{fill:#f9fafc;}.cls-4{fill:#394a9e;}.cls-5{fill:#5868b3;}.cls-6{fill:#e9e9e8;}.cls-7{fill:#fff;}</style></defs><title>ISRAEL</title><path class="cls-1" d="M0,326V258c1.54.45,3.84,1.75,4.46,1.19a13.74,13.74,0,0,0,4-6C9,251.27,8,249,8,246.82q0-63.23,0-126.44c0-3.79.77-7.59.67-11.37a5.44,5.44,0,0,0-2.42-4.12C4.46,104,2.12,104.24,0,104V36l1.05,1.12L1.17,40C1.11,58,1.09,76,1,94.05c0,2.29.51,3.52,3,2.9,6.23,0,12.45,0,18.68,0h163.5Q266.11,97,346,97c4,0,8-.06,12-.1l2,.1v6c-6.73,1.18-7.67,2.77-5.7,8.83a19.51,19.51,0,0,1,.67,5.87q.06,61.23,0,122.45a48.63,48.63,0,0,1-.81,7.88c-1.11,6.68.16,9.37,5.85,12v5l-2,.1c-19-.05-37.95-.14-56.92-.14q-106.59,0-213.19,0Q45.94,265,4,265.1C.16,264.17,1,267,1,269q0,28,0,55.92ZM197.91,136.16c.3-2.89.06-5.38-3.83-5.16-2.17-4-4.23-8-6.6-11.92-.73-1.2-2.32-1.87-3.52-2.79l-5.9,2.74-5.88,1.54c-.39,4.55-.73,8.59-1.07,12.63-.66,1-1.33,1.91-2,2.86-1.19,1-2.84,1.68-3.51,2.92-2.79,5.17-6.83,7.31-12.64,6.19a18.23,18.23,0,0,0-3.45.11c-6.25.05-12.51,0-18.76.14-4.14.12-9-1.51-11.74,3.76,3,3.73,5.43,7.8,8.8,10.85,6.26,5.68,9.88,12.18,9.18,20.77-.32,3.79-.61,7.57-.92,11.35l-6,10.91c-2.42,2.08-5.11,3.93-7.15,6.34-1.08,1.26-2,4.4-1.29,5.09a9.09,9.09,0,0,0,5.89,2.4c11.6.16,23.2,0,34.8-.08l5.54,4.44c1,1.95,1.83,3.94,2.87,5.84,1.45,2.66,3,5.26,4.52,7.88,1,2.56,1.54,5.34,2.95,7.63,2.17,3.54,7,3.05,9.15-.62,1-1.68,2.18-3.25,3-5,2.9-6,5.69-12,8.53-18l0,0c6.54-6.43,14.84-5,22.78-5,4.3,0,8.61,0,12.91,0,4.52,0,6.48-3.3,4.13-7.13-2.46-4-5.18-7.85-7.79-11.77-.23-1.12-.17-2.44-.75-3.33-3.73-5.69-6.15-11.36-1.47-17.8.64-.89.15-2.6.18-3.93q1.55-3.42,3.08-6.84L234,160l0,0,1.74-.11L238,157h0c5.2-.55,3.93-5.07,4.49-8.09.19-1-2.2-3.53-3.59-3.67-4.07-.4-8.23.12-12.35.13-9.41,0-19.55,2.91-26.56-6.7-.31-.42-1.2-.43-1.82-.63Z"/><path class="cls-2" d="M1.05,324.89q0-28,0-55.92c0-2-.86-4.8,3-3.87-.85,5.18,1.91,6,6.38,6q171-.13,342.08-.08c1.62,0,3.25-.15,5.52-.26V265.1l2-.1v60l-2-.16v-5.39H4v5.39Z"/><path class="cls-2" d="M4,97c-2.53.62-3.06-.61-3-2.9.12-18,.14-36,.2-54.07,5.63,4.59,12.31,3,18.63,3q165.66.09,331.3,0c3,0,5.93-1.25,8.9-1.92V97l-2-.1V91.31H4Z"/><path class="cls-3" d="M1.05,37.12,0,36V22c3.75.53,6-1.26,8.26-4.2,3-3.87,7-6.93,10.25-10.63C20.34,5.08,21.52,2.41,23,0H38c0,5.25,3.67,5,7.31,5H316.69c.66,0,1.33,0,2,0,3.44.1,5.37-1.4,5.31-5h14c1.33,2.16,2.35,4.61,4.05,6.42,4.35,4.66,8.93,9.1,13.59,13.45,1.13,1.06,2.89,1.44,4.36,2.13V37H7C5,37,3,37.08,1.05,37.12Z"/><path class="cls-3" d="M1.05,324.89l3-.05c1.33.05,2.66.16,4,.16H354c1.33,0,2.66-.11,4-.16l2,.16v14c-2.28,1.62-4.8,3-6.77,4.93-2.72,2.66-5,5.77-7.5,8.64-2.2,2.51-4.48,4.95-6.73,7.43H325c-2.25-4.44-6.64-3.92-10.35-3.92q-134.53-.16-269.06,0a21.87,21.87,0,0,0-6.82,1.09C37.65,357.5,36.91,359,36,360H22c-1.42-1.71-2.78-3.46-4.26-5.11-3.26-3.66-7.19-6.89-9.68-11C6,340.46,4.06,338.41,0,339V326Z"/><path class="cls-4" d="M1.05,37.12c2,0,4-.11,6-.11H360v4c-3,.67-5.93,1.91-8.9,1.92q-165.65.15-331.3,0c-6.32,0-13,1.61-18.63-3Z"/><path class="cls-2" d="M232,163.08q-1.53,3.42-3.08,6.84a122.4,122.4,0,0,0-7.71,10c-.62,1,.13,3.26.88,4.58,2.11,3.67,4.55,7.16,6.85,10.72,2.55,5.05,5.09,10.11,7.9,15.71a68.69,68.69,0,0,1-7.62,1c-6.61.14-13.23,0-19.85.07-5.62.1-9.41,2.72-10.44,6.92l0,0-5.81,1.65a23.43,23.43,0,0,1,.62-3c1.61-4.57.38-6.75-4.3-6.55-3.16.14-6.29,1.18-9.43,1.82l-4,.16c-3-2.28-3.69-.15-4,2.21-.61,4.54,3.33,10.71,8,12.73h0q1.49,5.22,3,10.44l-1,.69L175.28,235c-1.51-2.62-3.07-5.22-4.52-7.88-1-1.9-1.92-3.89-2.87-5.84-1.57-3.13-2.75-6.56-4.9-9.22-.79-1-3.9.12-5.88-.19a11.71,11.71,0,0,1-3.42-1.6c2.2-2.74,5.15-4.84,4.93-6.52-.31-2.4-3-4.5-4.61-6.72l-7-5.16c-3.81-4-.59-6.92,1.89-9.74a21.73,21.73,0,0,0-3.2-3.95c-.39-.32-1.8.62-2.74,1L138,169l-1.82-3L130,157c.15-5.36,2-7,7-6.82,8.33.35,16.67.55,25,.81l-2.89,6.06a34.89,34.89,0,0,0-5.61-2c-2.69-.51-6.18.39-8-1-3.16-2.42-5.4-.9-6.5,1.08-.69,1.24,1.14,3.88,1.84,5.9-.61,3.53,1.9,5.13,4.23,6.85.48,5.12,4,3.39,6.94,3.12l1,4c-.48,2.59-1.07,5.17-1.38,7.78-.13,1.17-.09,3.14.55,3.48,5.18,2.73,6.28,8.16,9.11,12.5,2.39,3.65,6.24,8.23,9.94,8.74,7.91,1.08,16.16,0,24.23-.65a11.08,11.08,0,0,0,6.31-3,33.65,33.65,0,0,0,5.37-7.55c2.43-4.25,5.23-8.46,6.56-13.07.74-2.57-.62-6.19-2-8.83-2.36-4.46-6.06-8.26-8.16-12.81-2.44-5.3-6.26-7.47-11.64-7.59-6.31-.14-12.63-.07-18.95-.08l-3.22-7.74L165,149l-.06-4.14q2.09-4.4,4.18-8.8c.66-.95,1.33-1.9,2-2.86l4.25-6.16,1.65-2,1.05-6,5.9-2.74a35.55,35.55,0,0,0,1.36,5.21c1.49,3.54,3.22,7,5.23,11.27l3.22.26a1.81,1.81,0,0,1,.26.9c-2.2,4.23-5.54.38-8.23,1.17-4.1-.43-7.24,1.12-8.26,5.16-.54,2.18-.23,6.59.33,6.7a16.8,16.8,0,0,0,8.8-.38c1.39-.53,1.81-3.62,2.67-5.56h8.59l6,6.16c1.29.95,2.54,2.64,3.89,2.74,8,.56,16,.74,23.95,1.09,1.68.07,3.35.29,5.14.45L234,160l0,0Zm-7.77,42.45c.12-.11.32-.2.36-.33.23-.8.41-1.61.62-2.41,1.21-4.47-.31-8.38-4.45-10.25-3.89-1.76-6.7-.13-8.55,3.53-.28.57-1.06.91-1.3,1.49-.87,2.08-2.8,5.53-2.18,6.09a13.36,13.36,0,0,0,7.27,3.17C218.71,207.08,221.51,206,224.26,205.53ZM217.35,168c4.15,0,8-3.43,7.55-7.32s-3.55-4.93-6.93-4.74-7.5-.53-7.88,4.39C209.77,164.4,213.5,168,217.35,168Z"/><path class="cls-4" d="M358,265.1v5.63c-2.27.11-3.9.26-5.52.26q-171,0-342.08.08c-4.47,0-7.23-.79-6.38-6Q45.95,265,87.88,265q106.59,0,213.19,0C320,265,339,265.05,358,265.1Z"/><path class="cls-4" d="M4,97V91.31H358V96.9c-4,0-8,.1-12,.1q-79.9,0-159.82,0H22.69C16.46,97,10.24,97,4,97Z"/><path class="cls-5" d="M154,197c1.65,2.22,4.3,4.32,4.61,6.72.22,1.68-2.73,3.78-4.93,6.52a11.71,11.71,0,0,0,3.42,1.6c2,.31,5.09-.79,5.88.19,2.15,2.66,3.33,6.09,4.9,9.22l-5.54-4.44c-1.86-1-3.7-2.69-5.59-2.75-8.81-.28-17.64,0-26.47-.19-1.38,0-2.85-1.07-4-2-.22-.18.9-2,1.37-3.08.83-1.91,1.63-3.83,2.44-5.74l6-10.91c5.89-2.44,6.67-7.58,6.89-13,.94-.36,2.35-1.3,2.74-1a21.73,21.73,0,0,1,3.2,3.95c-2.48,2.82-5.7,5.7-1.89,9.74a52.57,52.57,0,0,1-3.39,4.77c-2.07,2.36-4.67,5.83-1,7.26s8.58.08,12.92-.26a12.35,12.35,0,0,0-.05-3.62A12.59,12.59,0,0,0,154,197Z"/><path class="cls-5" d="M175.28,235l6.68,4.16,1-.69q-1.5-5.22-3-10.44c7,.31,10-2.77,10-9.68,0-3.27-1.31-4.37-4.44-4.35-1.86,0-3.73-.7-5.6-1.08,3.14-.64,6.27-1.68,9.43-1.82,4.68-.2,5.91,2,4.3,6.55a23.43,23.43,0,0,0-.62,3l5.81-1.65c-2.84,6-5.63,12-8.53,18-.84,1.74-2,3.31-3,5-2.14,3.67-7,4.16-9.15.62C176.82,240.31,176.24,237.53,175.28,235Z"/><path class="cls-6" d="M143,179.13c-.22,5.44-1,10.58-6.89,13,.31-3.78.6-7.56.92-11.35.7-8.59-2.92-15.09-9.18-20.77-3.37-3.05-5.83-7.12-8.8-10.85,2.78-5.27,7.6-3.64,11.74-3.76,6.25-.18,12.51-.09,18.76-.14a18.23,18.23,0,0,1,3.45-.11c5.81,1.12,9.85-1,12.64-6.19.67-1.24,2.32-2,3.51-2.92q-2.09,4.41-4.18,8.81c-4.41,3.82-9.75,3.25-15,3.21-6.3,0-12.6-.15-18.89.08-1.68.07-4.7,1.22-4.73,2-.1,2.73-.45,6.2,3.67,6.91l6.21,9,1.82,3Z"/><path class="cls-6" d="M204,147.19l-6-6.16c.07-1,.13-2,.19-3,.62.2,1.51.21,1.82.63,7,9.61,17.15,6.73,26.56,6.7,4.12,0,8.28-.53,12.35-.13,1.39.14,3.78,2.64,3.59,3.67-.56,3,.71,7.54-4.49,8.09,3.14-8.88,3.14-8.77-6.7-8.91C222.15,147.9,213.07,147.48,204,147.19Z"/><path class="cls-5" d="M199,218.92c1-4.2,4.82-6.82,10.44-6.92,6.62-.11,13.24.07,19.85-.07a68.69,68.69,0,0,0,7.62-1c-2.81-5.6-5.35-10.66-7.9-15.71l2-.22c2.61,3.92,5.33,7.76,7.79,11.77,2.35,3.83.39,7.09-4.13,7.13-4.3,0-8.61,0-12.91,0C213.8,214,205.5,212.49,199,218.92Z"/><path class="cls-6" d="M130.1,203.06c-.81,1.91-1.61,3.83-2.44,5.74-.47,1.08-1.59,2.9-1.37,3.08,1.15.92,2.62,2,4,2,8.83.16,17.66-.09,26.47.19,1.89.06,3.73,1.79,5.59,2.75-11.6.06-23.2.24-34.8.08a9.09,9.09,0,0,1-5.89-2.4c-.68-.69.21-3.83,1.29-5.09C125,207,127.68,205.14,130.1,203.06Z"/><path class="cls-5" d="M204,147.19c9.09.29,18.17.71,27.27.85,9.84.14,9.84,0,6.7,8.91h0l-2.24,2.89L234,160l3-8.48c-1.79-.16-3.46-.38-5.14-.45-8-.35-16-.53-23.95-1.09C206.52,149.83,205.27,148.14,204,147.19Z"/><path class="cls-6" d="M231,195l-2,.22c-2.3-3.56-4.74-7-6.85-10.72-.75-1.32-1.5-3.61-.88-4.58a122.4,122.4,0,0,1,7.71-10c0,1.33.46,3-.18,3.93-4.68,6.44-2.26,12.11,1.47,17.8C230.82,192.54,230.76,193.86,231,195Z"/><path class="cls-5" d="M193.77,133l-3.22-.26c-2-4.3-3.74-7.73-5.23-11.27a35.55,35.55,0,0,1-1.36-5.21c1.2.92,2.79,1.59,3.52,2.79,2.37,3.87,4.43,7.93,6.6,11.92C194,131.67,193.88,132.35,193.77,133Z"/><path class="cls-5" d="M198.12,138c-.06,1-.12,2-.19,3h-8.59l-3.54-5.92c2.69-.79,6,3.06,8.23-1.17l3.88,2.23Z"/><path class="cls-6" d="M175.36,127l-4.25,6.16c.34-4,.68-8.08,1.07-12.63l5.88-1.54L177,125Z"/><path class="cls-6" d="M197.91,136.16,194,133.93a1.81,1.81,0,0,0-.26-.9c.11-.68.21-1.36.31-2C198,130.78,198.21,133.27,197.91,136.16Z"/><path class="cls-5" d="M232,163.08,234,160Z"/><path class="cls-6" d="M235.71,159.84,238,157Z"/><path class="cls-4" d="M358,324.84c-1.33.05-2.66.16-4,.16H8c-1.33,0-2.66-.11-4-.16v-5.39H358Z"/><path class="cls-5" d="M172.94,153.93c6.32,0,12.64-.06,18.95.08,5.38.12,9.2,2.29,11.64,7.59,2.1,4.55,5.8,8.35,8.16,12.81,1.39,2.64,2.75,6.26,2,8.83-1.33,4.61-4.13,8.82-6.56,13.07a33.65,33.65,0,0,1-5.37,7.55,11.08,11.08,0,0,1-6.31,3c-8.07.64-16.32,1.73-24.23.65-3.7-.51-7.55-5.09-9.94-8.74-2.83-4.34-3.93-9.77-9.11-12.5-.64-.34-.68-2.31-.55-3.48.31-2.61.9-5.19,1.38-7.78,2.94-4,7.18-7.64,8.52-12.12C163.44,156.55,167.48,154.78,172.94,153.93Zm10.41,3v-.12c-3.32,0-6.77-.55-9.93.16-2.84.64-6.16,2.05-7.86,4.23-3.54,4.54-6.14,9.83-9.13,14.8a8.27,8.27,0,0,0-.05,9.34c2.66,4.39,4.88,9,7.4,13.5,2.27,4,5.54,6.48,10.45,6.34,5.81-.15,11.63-.29,17.44-.11,5,.14,8.18-2.12,10.43-6.25s4.28-8.27,6.73-12.21c2.75-4.44,3.53-8.4-.66-12.51-1.47-1.44-2.31-3.64-3.12-5.62-3.35-8.21-8.55-13.33-18.22-11.58A20.19,20.19,0,0,1,183.35,157Z"/><path class="cls-7" d="M224.26,205.53c-2.75.49-5.55,1.55-8.23,1.29a13.36,13.36,0,0,1-7.27-3.17c-.62-.56,1.31-4,2.18-6.09.24-.58,1-.92,1.3-1.49,1.85-3.66,4.66-5.29,8.55-3.53,4.14,1.87,5.66,5.78,4.45,10.25-.21.8-.39,1.61-.62,2.41C224.58,205.33,224.38,205.42,224.26,205.53Z"/><path class="cls-6" d="M180,212.89c1.87.38,3.74,1.09,5.6,1.08,3.13,0,4.44,1.08,4.44,4.35,0,6.91-3.06,10-10,9.68h0c-2.83-4.58-6.51-8.93-4-14.94Z"/><path class="cls-4" d="M172.94,153.93c-5.46.85-9.5,2.62-11.41,9C160.19,167.38,156,171,153,175l-1-4c2-4.84,7.53-7.86,7.13-13.92q1.44-3,2.89-6.06l3-2,4.72-2.81Z"/><path class="cls-6" d="M217.35,168c-3.85,0-7.58-3.59-7.26-7.67.38-4.92,4.63-4.2,7.88-4.39s6.48.87,6.93,4.74S221.5,168,217.35,168Z"/><path class="cls-5" d="M165,149l-3,2c-8.34-.26-16.68-.46-25-.81-5-.22-6.86,1.46-7,6.82-4.12-.71-3.77-4.18-3.67-6.91,0-.73,3.05-1.88,4.73-2,6.29-.23,12.59-.12,18.89-.08,5.25,0,10.59.61,15-3.21Z"/><path class="cls-6" d="M154,197a12.59,12.59,0,0,1,1.52,3,12.35,12.35,0,0,1,.05,3.62c-4.34.34-9.18,1.71-12.92.26s-1.1-4.9,1-7.26a52.57,52.57,0,0,0,3.39-4.77Z"/><path class="cls-5" d="M159.12,157.07c.4,6.06-5.15,9.08-7.13,13.92-2.9.27-6.46,2-6.94-3.12a10,10,0,0,0,10.52-7.4,3.4,3.4,0,0,0-1-2.87c-2.06-1.6-12.06,1-13.77,3.42-.7-2-2.53-4.66-1.84-5.9,1.1-2,3.34-3.5,6.5-1.08,1.85,1.4,5.34.5,8,1A34.89,34.89,0,0,1,159.12,157.07Z"/><path class="cls-6" d="M185.8,135.1l3.54,5.92c-.86,1.94-1.28,5-2.67,5.56a16.8,16.8,0,0,1-8.8.38c-.56-.11-.87-4.52-.33-6.7C178.56,136.22,181.7,134.67,185.8,135.1Z"/><path class="cls-6" d="M140.82,161c1.71-2.39,11.71-5,13.77-3.42a3.4,3.4,0,0,1,1,2.87,10,10,0,0,1-10.52,7.4C142.72,166.15,140.21,164.55,140.82,161Z"/><path class="cls-5" d="M176,213.05c-2.53,6,1.15,10.36,4,14.94-4.65-2-8.59-8.19-8-12.73C172.33,212.9,173,210.77,176,213.05Z"/><path class="cls-5" d="M138,169l-1.82-3Z"/><path class="cls-5" d="M175.36,127l1.65-2Z"/><path class="cls-3" d="M183.35,157a20.19,20.19,0,0,0,3.48,0c9.67-1.75,14.87,3.37,18.22,11.58.81,2,1.65,4.18,3.12,5.62,4.19,4.11,3.41,8.07.66,12.51-2.45,3.94-4.51,8.12-6.73,12.21s-5.48,6.39-10.43,6.25c-5.81-.18-11.63,0-17.44.11-4.91.14-8.18-2.31-10.45-6.34-2.52-4.47-4.74-9.11-7.4-13.5a8.27,8.27,0,0,1,.05-9.34c3-5,5.59-10.26,9.13-14.8,1.7-2.18,5-3.59,7.86-4.23,3.16-.71,6.61-.16,9.93-.16Z"/></svg>