<svg id="Layer_1" data-name="Layer 1" xmlns="http://www.w3.org/2000/svg" viewBox="0 0 360 360"><defs><style>.cls-1{fill:#fdfdfd;}.cls-2{fill:#57a763;}.cls-3{fill:#ec5565;}</style></defs><title>ITALY</title><path class="cls-1" d="M246,360H116V1h-6Q60,1,10,1A26.13,26.13,0,0,1,5,0H245a47.55,47.55,0,0,1,1,6.74Q246,183.38,246,360Z"/><path class="cls-2" d="M5,0a26.13,26.13,0,0,0,5,1q50,.09,100,0h6V360H1Q1,185.76,1,11.53A32.19,32.19,0,0,0,0,6V0Z"/><path class="cls-3" d="M246,360q0-176.62,0-353.26A47.55,47.55,0,0,0,245,0h2a26.33,26.33,0,0,0,5,1q54,.09,108,0V360Z"/><path class="cls-1" d="M0,6a32.19,32.19,0,0,1,1,5.53Q1,185.76,1,360a21.83,21.83,0,0,1-1-4.49Q0,248.16,0,140.81Z"/><path class="cls-1" d="M360,1Q306,1,252,1a26.33,26.33,0,0,1-5-1q54.5,0,109,0A17.63,17.63,0,0,1,360,1Z"/></svg>