<svg id="Layer_1" data-name="Layer 1" xmlns="http://www.w3.org/2000/svg" viewBox="0 0 359.85 359.69"><defs><style>.cls-1{fill:#fdfdfd;}.cls-2{fill:#ec5565;}</style></defs><title>JAPAN</title><path class="cls-1" d="M0,359.69V0H359.85V359.69ZM180.83,271c29.3-.36,53.19-13.34,67.51-30.34,17.38-20.63,25.1-44.08,21.72-71.13-2.74-22-12.63-40-28.59-55-22-20.65-48.41-26-77.22-21.7C128.57,98.09,88.87,132.07,91,186.54,92.84,234.06,134.08,271.84,180.83,271Z"/><path class="cls-2" d="M180.83,271c-46.75.88-88-36.9-89.84-84.42-2.12-54.47,37.58-88.45,73.26-93.73,28.81-4.26,55.24,1,77.22,21.7,16,15,25.85,33,28.59,55,3.38,27-4.34,50.5-21.72,71.13C234,257.62,210.13,270.6,180.83,271Z"/></svg>