<svg id="Layer_1" data-name="Layer 1" xmlns="http://www.w3.org/2000/svg" viewBox="0 0 360 360"><defs><style>.cls-1{fill:#fcf9fa;}.cls-2{fill:#ec5868;}.cls-3{fill:#ee4555;}.cls-4{fill:#ea5060;}.cls-5{fill:#4a59a8;}.cls-6{fill:#ecb547;}</style></defs><title>MALAYSIA</title><path class="cls-1" d="M360,295v36H18.49c-2.16,0-4.32.11-6.48.17H1.26V359L1,360a21.92,21.92,0,0,1-1-4.5Q0,250.58,0,145.65V0H7.74Q181.62,0,355.5,0A21.92,21.92,0,0,1,360,1Q305.64,1,251.28,1q-38.16,0-76.3.21c-.83-.07-1.66-.2-2.49-.2q-84,0-168,0a25.37,25.37,0,0,0-3.21.39v162c2.6-.13,4.92-.35,7.24-.35q70,0,140,0c8.83,0,17.66-.13,26.49-.2h2l181-1,2,.17v37H12.79c-3.26,0-6.51.06-9.77.1-.67.82-1.89,1.64-1.9,2.47C1,210.05,1,218.52,1.15,227c0,.66,1.87,1.29,2.86,1.93.83,0,1.67.08,2.5.08H354c1.33,0,2.66-.1,4-.16l2,.17v36H3c-.66.85-1.87,1.68-1.88,2.54C1,276,1,284.5,1.15,293c0,.67,1.87,1.29,2.86,1.94.83,0,1.67.08,2.5.08H354c1.33,0,2.66-.1,4-.16Z"/><path class="cls-2" d="M1,360l.26-1c4.46.72,6.2-.91,5.84-5.63C6.67,347.94,7,342.46,7,337q171,0,342-.08c3.68,0,7.35-1.25,11-1.92v20H205.76c-4.42,0-8.95-.61-13.21.22-3.37.66-8.35-.65-9.55,4.78Z"/><path class="cls-1" d="M360,97v36q-88,0-176,0c-3.28,0-6.57-.6-9.85-.93q0-16,0-32.06l3.8-3.08q71.57,0,143.13.1c12.29,0,24.59-.1,36.89-.16Z"/><path class="cls-1" d="M360,31V67q-87.24,0-174.48,0c-3.45,0-6.9-.56-10.35-.85q0-17.07,0-34.14l2.88-.83c2.16-.05,4.33-.13,6.49-.13L352,31c2,0,4-.13,6-.2Z"/><path class="cls-2" d="M4,228.92c-1-.64-2.84-1.27-2.86-1.93-.19-8.47-.18-16.94,0-25.41,0-.83,1.23-1.65,1.9-2.47-.9,4.95,1.36,6,6,6q170-.19,339.93-.18c3.67,0,7.34-1.25,11-1.92v19c-8.54-.67-17.07-1.9-25.61-1.91q-143.13-.21-286.25-.05c-13,0-25.9.68-38.85.92-2.85.06-4.49.95-4.3,4Z"/><path class="cls-2" d="M4,294.92c-1-.65-2.84-1.27-2.86-1.94-.19-8.48-.18-17,0-25.44,0-.86,1.22-1.69,1.88-2.54v6h7q169.52,0,339.05-.08c3.67,0,7.33-1.25,11-1.92v19c-4.54-.67-9.07-1.91-13.61-1.92q-149.13-.16-298.25,0c-13,0-25.9.68-38.84.92-2.86.06-4.5,1-4.31,4Z"/><path class="cls-2" d="M360,31l-2-.21c.58-4.33-2.41-3.8-5.09-3.8H251.14c-22.77,0-45.55,0-68.33,0-3.05,0-5.39.25-4.77,4.18l-2.88.83L175,1.24q38.15-.12,76.3-.21Q305.64,1,360,1Z"/><path class="cls-2" d="M178,96.89l-3.8,3.08c-.1-5.15-.35-10.31-.23-15.45.1-4.21.66-8.4,1-12.6a44.14,44.14,0,0,0,6.78,1q83.64.09,167.27,0c3.67,0,7.33-1.25,11-1.92V89c-12.93-.33-25.86-.88-38.79-1q-39.18-.23-78.34,0-27.63.18-55.26,1.08c-3.06.1-7.28-.79-8.62,3.87Z"/><path class="cls-2" d="M177,162.84h-2c-.29-3.76-.83-7.53-.79-11.28.06-4.85.58-9.7.9-14.54l4.2,3.06-.17-1.07H360v15H268.62c-26.47,0-52.94-.11-79.4.13-3.42,0-6.82,1.87-10.22,2.86Z"/><path class="cls-3" d="M360,269c-3.67.67-7.33,1.91-11,1.92q-169.53.15-339,.08H3v-6H360Z"/><path class="cls-3" d="M360,203c-3.67.67-7.34,1.91-11,1.92q-170,.15-339.93.18c-4.68,0-6.94-1-6-6,3.26,0,6.51-.1,9.77-.1H360Z"/><path class="cls-3" d="M360,335c-3.67.67-7.34,1.91-11,1.92Q178,337.07,7,337l-2.15-3.1L12,331.18c2.16-.06,4.32-.17,6.48-.17H360Z"/><path class="cls-4" d="M5,291c-.19-3.08,1.45-4,4.31-4,12.94-.24,25.89-.91,38.84-.92q149.12-.12,298.25,0c4.54,0,9.07,1.25,13.61,1.92v7l-2-.17c.58-4.82-2.92-3.81-5.58-3.81Q178.71,291,5,291Z"/><path class="cls-4" d="M5,225c-.19-3.08,1.45-4,4.3-4,13-.24,25.9-.9,38.85-.92q143.12-.12,286.25.05c8.54,0,17.07,1.24,25.61,1.91v7l-2-.17c.58-4.82-2.92-3.81-5.58-3.81Q178.71,225,5,225Z"/><path class="cls-3" d="M360,139H179.15l.17,1.07-4.2-3.06-.93-5c3.28.33,6.57.93,9.85.93q88,.09,176,0Z"/><path class="cls-3" d="M360,71c-3.67.67-7.33,1.91-11,1.92q-83.62.18-167.27,0a44.14,44.14,0,0,1-6.78-1c.07-1.94.15-3.88.22-5.81,3.45.29,6.9.85,10.35.85q87.24.09,174.48,0Z"/><path class="cls-4" d="M179,157c3.4-1,6.8-2.83,10.22-2.86,26.46-.24,52.93-.13,79.4-.13H360v8l-2-.17c-.09-4.38-3.48-2.76-5.55-2.77-55.33-.08-110.66,0-166-.14C184,158.91,181.48,157.66,179,157Z"/><path class="cls-4" d="M183,360c1.2-5.43,6.18-4.12,9.55-4.78,4.26-.83,8.79-.22,13.21-.22H360v5Z"/><path class="cls-4" d="M179,93c1.34-4.66,5.56-3.77,8.62-3.87q27.63-.87,55.26-1.08,39.17-.24,78.34,0c12.93.08,25.86.63,38.79,1v8l-2-.17c.58-4.82-2.92-3.81-5.58-3.81Q265.71,93,179,93Z"/><path class="cls-5" d="M175.17,66.11C175.1,68,175,70,175,71.92c-.35,4.2-.91,8.39-1,12.6-.12,5.14.13,10.3.23,15.45q0,16,0,32.06l.93,5c-.32,4.84-.84,9.69-.9,14.54,0,3.75.5,7.52.79,11.28-8.83.07-17.66.19-26.49.2q-70,0-140,0c-2.32,0-4.64.22-7.24.35V1.44a25.37,25.37,0,0,1,3.21-.39q84,0,168,0c.83,0,1.66.13,2.49.2L175.16,32Q175.18,49,175.17,66.11Zm-33.7,8.1,3.25-3.09c-1.7-.73-3.63-2.36-5.08-2-3.77.9-5.9-.76-7.83-3.43-2-2.92-3.89-5.88-5.94-8.74-.69-1-1.82-2.39-2.59-2.3A4.57,4.57,0,0,0,120.47,57c-2.62,5.16-2.61,5.28-7.6,1.69-3.12-2.25-4.49-1.49-4.66,2.19a10.46,10.46,0,0,1-.28,3.44c-.55,1.29-1.4,2.86-2.54,3.34-.69.3-2.27-1.07-3.25-1.93-2.2-1.92-4.34-3.5-6.64-1.59,2.3,5,4.47,9.75,6.63,14.49-.77,2.5-2.38,5.1-2.11,7.48.47,4.13,2.12,8.12,3.44,12.79,3.92.7,7.19,3.18,6.68,10l7-3.39c1.64,1.29,3.33,2.53,4.89,3.9a16.37,16.37,0,0,1,1.88,2.39,12,12,0,0,0,1.94-2.31c2.09-4.26,10.39-8.19,14.85-7.38,1.58.29,3.39-.7,5.7-1.25-6-6.88-6-6.88-1.31-14.38ZM91,136.76l-.16-1.38a63.76,63.76,0,0,0-6.58-2.89c-4.77-1.51-10.07-2-14.36-4.31a55.61,55.61,0,0,1-20.71-18.67,42.58,42.58,0,0,1-6.34-31.2C45,66.13,52.65,56.7,62,48.61c6.46-5.58,14.41-7.33,22.06-10a55,55,0,0,0,7.1-3.68l-.11-1.6c-1.51-.72-2.95-1.9-4.52-2.1-24.7-3-47.54,8.94-58.67,31.45-8.67,17.54-7.38,35.14,2.34,52a45.91,45.91,0,0,0,21.6,18.89c11.4,5.07,23.69,4.59,35.83,4.43C88.76,137.92,89.86,137.17,91,136.76Z"/><path class="cls-3" d="M5,225q173.72,0,347.42,0c2.66,0,6.16-1,5.58,3.81-1.33.06-2.66.16-4,.16H6.51c-.83,0-1.67-.05-2.5-.08C4.34,227.61,4.67,226.3,5,225Z"/><path class="cls-3" d="M5,291q173.72,0,347.42,0c2.66,0,6.16-1,5.58,3.81-1.33.06-2.66.16-4,.16H6.51c-.83,0-1.67-.06-2.5-.08C4.34,293.61,4.67,292.3,5,291Z"/><path class="cls-3" d="M179,157c2.48.67,5,1.92,7.45,1.93,55.33.11,110.66.06,166,.14,2.07,0,5.46-1.61,5.55,2.77l-181,1Z"/><path class="cls-4" d="M12,331.18,4.85,333.9,7,337c0,5.46-.33,10.94.1,16.36.36,4.72-1.38,6.35-5.84,5.63V331.18Z"/><path class="cls-3" d="M179,93q86.72,0,173.42,0c2.66,0,6.16-1,5.58,3.81-12.3.06-24.6.17-36.89.16q-71.57,0-143.13-.1Z"/><path class="cls-3" d="M178,31.14c-.62-3.93,1.72-4.19,4.77-4.18,22.78.07,45.56,0,68.33,0H352.89c2.68,0,5.67-.53,5.09,3.8-2,.07-4,.2-6,.2L184.53,31C182.37,31,180.2,31.09,178,31.14Z"/><path class="cls-6" d="M91,136.76c-1.1.41-2.2,1.16-3.31,1.18-12.14.16-24.43.64-35.83-4.43a45.91,45.91,0,0,1-21.6-18.89c-9.72-16.84-11-34.44-2.34-52C39,40.13,61.85,28.17,86.55,31.19c1.57.2,3,1.38,4.52,2.1l.11,1.6a55,55,0,0,1-7.1,3.68C76.43,41.28,68.48,43,62,48.61,52.65,56.7,45,66.13,42.81,78.31a42.58,42.58,0,0,0,6.34,31.2,55.61,55.61,0,0,0,20.71,18.67c4.29,2.34,9.59,2.8,14.36,4.31a63.76,63.76,0,0,1,6.58,2.89Z"/><path class="cls-6" d="M117.16,105.48l-7,3.39c.51-6.77-2.76-9.25-6.68-10-1.32-4.67-3-8.66-3.44-12.79-.27-2.38,1.34-5,2.11-7.48,1.08-1.26,2.61-2.36,3.17-3.83,1.71-4.46,7.26-9.88,10.17-9.73,5.44.29,10.89.4,16.34.58,1.93,2.67,4.06,4.33,7.83,3.43,1.45-.34,3.38,1.29,5.08,2l-3.24,3.09c-.28,1.84-1.45,4.25-.7,5.44,4.11,6.54-.43,12.41-3.14,16.42-3.78,5.6-10.19,10.6-18.68,7.58C118.62,103.53,117.77,104.83,117.16,105.48Z"/><path class="cls-2" d="M131.81,65.67c-5.45-.18-10.9-.29-16.34-.58-2.91-.15-8.46,5.27-10.17,9.73-.56,1.47-2.09,2.57-3.17,3.83C100,73.91,97.8,69.18,95.5,64.16c2.3-1.91,4.44-.33,6.64,1.59,1,.86,2.56,2.23,3.25,1.93,1.14-.48,2-2.05,2.54-3.34a10.46,10.46,0,0,0,.28-3.44c.17-3.68,1.54-4.44,4.66-2.19,5,3.59,5,3.47,7.6-1.69a4.57,4.57,0,0,1,2.81-2.39c.77-.09,1.9,1.35,2.59,2.3C127.92,59.79,129.84,62.75,131.81,65.67Z"/><path class="cls-2" d="M117.16,105.48c.61-.65,1.46-2,1.8-1.83,8.49,3,14.9-2,18.68-7.58,2.71-4,7.25-9.88,3.14-16.42-.75-1.19.42-3.6.7-5.44,1.15,3.91,2.31,7.81,3.63,12.24-4.73,7.5-4.73,7.5,1.31,14.38-2.31.55-4.12,1.54-5.7,1.25-4.46-.81-12.76,3.12-14.85,7.38a12,12,0,0,1-1.94,2.31,16.37,16.37,0,0,0-1.88-2.39C120.49,108,118.8,106.77,117.16,105.48Z"/></svg>