<svg id="Layer_1" data-name="Layer 1" xmlns="http://www.w3.org/2000/svg" viewBox="0 0 360 360"><defs><style>.cls-1{fill:#fdfdfd;}.cls-2{fill:#ec5766;}.cls-3{fill:#58a865;}.cls-4{fill:#ee4b5b;}.cls-5{fill:#d5d1b1;}.cls-6{fill:#e1e0d9;}.cls-7{fill:#997154;}.cls-8{fill:#f5f1ec;}.cls-9{fill:#c29b72;}.cls-10{fill:#81624c;}.cls-11{fill:#b09b8e;}.cls-12{fill:#57ac5d;}.cls-13{fill:#4ca057;}.cls-14{fill:#9dc1c0;}.cls-15{fill:#ddd4bb;}</style></defs><title>MEXICO</title><path class="cls-1" d="M246,360H116c-.11-2.15-.32-4.3-.32-6.46q0-172.89,0-345.8V1.38H1V108.15Q1,234.08,1,360a21.92,21.92,0,0,1-1-4.5Q0,250.58,0,145.65V0H7.74Q181.62,0,355.5,0A21.92,21.92,0,0,1,360,1c-2,.1-4,.28-6,.28q-51,0-101.91,0h-5.87V6.65l0,180q0,83.67,0,167.35C246.28,356,246.1,358,246,360ZM218,211l1-3.95,2-3c7.24-1.82,8.67-3.58,9.13-10.55.09-1.49.59-3.64,1.62-4.24,3.75-2.15,4.53-5.38,4.38-9.21l-1-6.24L224,176.13c0-2.55.06-5.55,0-8.54-.07-2.69,0-5.58-3.9-5.63l0-.05c-.14-6.58-2.11-9.72-6.89-11L212.8,149c-4.6-6.53-10.4-11.21-18.64-12.15L188,134.07c-1.91-.53-4.05-1.89-5.65-1.41-2.43.72-4.6,2.57-6.67,4.21-4.75,3.73-9.37,7-16.09,6.31-4.65-.48-6.88,2.5-6.5,7.3.18,2.3,1.13,4.55,1.73,6.82l-1.15-1.09c-2.71,1.65-7.09,2.84-7.71,5.06-.8,2.89,1.4,6.6,2.57,10.91L140,174c-6.5.1-7.89,1-6.83,7.42,1,6,3.29,11.85,5.61,17.52.74,1.79,3.4,2.78,5.19,4.14,7.34,12.72,17.3,21,33,20.11,2.46-.14,5,1.76,7.49,1.64,5.51-.25,11-1.18,16.49-1.84.69.17,1.6.7,2.05.44,4.32-2.51,8.68-5,12.74-7.86C217,214.66,217.26,212.51,218,211Z"/><path class="cls-2" d="M246,360c.1-2,.28-4,.28-6q0-83.68,0-167.35l0-180V1.29h5.87q51,0,101.91,0c2,0,4-.18,6-.28V360H250c2.91-2.09,3.06-5.05,3.05-8.32-.07-49.64,0-99.28-.13-148.92,0-5.91-1.29-11.81-1.68-17.73a41.48,41.48,0,0,1,.69-7.82c.27-2.11,1-4.2,1-6.3Q253,90.71,253,10.5A12.11,12.11,0,0,0,252.87,7c-.23-.74-1.19-1.73-1.84-1.74s-1.65,1-1.88,1.68a12.09,12.09,0,0,0-.14,3.47c-.33,46.1-.94,92.2-.9,138.3.06,70.42.57,140.84.89,211.26Z"/><path class="cls-3" d="M1,360Q1,234.08,1,108.15V1.38H115.67V7.74q0,172.91,0,345.8c0,2.16.21,4.31.32,6.46ZM55,2c-10.77,0-21-.13-31.31.05-5.16.09-10.07.09-15.37,2.15C2.72,6.39,2,9.09,2,14Q2.06,182.5,2,351c0,1-.29,2.12.06,3a28.87,28.87,0,0,0,2.38,4,18.48,18.48,0,0,0,2.46-3.88c.42-1.19.09-2.64.09-4Q7,190.35,7,30.6c0-4.29,0-8.76-1.17-12.82-1.48-5.21,1.33-7.58,5-9.4A17,17,0,0,1,18,7.06C28.32,6.92,38.66,7,49,7,51.82,7,54.35,6.74,55,2ZM111.5,3.9l-1.2.57c-.1,1.43-.28,2.87-.29,4.31q-.53,84.56-1,169.11c0,10.39.88,20.79.9,31.19.11,47.49,0,95,.13,142.46,0,2.11,1.26,4.21,1.93,6.31.64-2.12,1.85-4.24,1.86-6.35Q114,181.28,114,11.08c0-1.33.29-2.77-.11-4S112.31,5,111.5,3.9Z"/><path class="cls-4" d="M249,360c-.32-70.42-.83-140.84-.89-211.26,0-46.1.57-92.2.9-138.3A12.09,12.09,0,0,1,249.15,7c.23-.73,1.24-1.7,1.88-1.68s1.61,1,1.84,1.74A12.11,12.11,0,0,1,253,10.5q0,80.21-.05,160.41c0,2.1-.75,4.19-1,6.3a41.48,41.48,0,0,0-.69,7.82c.39,5.92,1.66,11.82,1.68,17.73.14,49.64.06,99.28.13,148.92,0,3.27-.14,6.23-3.05,8.32Z"/><path class="cls-5" d="M201,223c-5.5.66-11,1.59-16.49,1.84-2.47.12-5-1.78-7.49-1.64-15.74.91-25.7-7.39-33-20.11.35-2.78-4.19-6.81,2.06-8.08l8,8c.07,1-.25,2.51.26,2.86,4.89,3.39,8.63,9.22,15.78,8.11,2.65-.41,5.25-1.18,7.87-1.78,2.81-.07,5.63-.26,8.43-.18,3.05.1,5.17-.86,5.79-4.08l4.86.14c.93,1.45,1.54,3.62,2.84,4.18,2.49,1.07,5.37,1.23,8.09,1.77a31.81,31.81,0,0,1-2.71,5A35.47,35.47,0,0,1,201,223Z"/><path class="cls-6" d="M207.93,214c-2.72-.54-5.6-.7-8.09-1.77-1.3-.56-1.91-2.73-2.84-4.18a43.79,43.79,0,0,1,5.61-3.06c7.14-2.61,8.35-4.27,8.15-12.05,2.21-4.21,2.14-7.72-2.45-10.51a59.7,59.7,0,0,1-9.12-6.85c-1.22-1.12-1.57-3.21-2.62-5.53,7.62.21,11.5,4.41,16,7.81,1.63,1.24,4.77,2,6.48,1.31,3.84-1.66,4.3-12,1.11-15.29l0-1.93c3.92,0,3.83,2.94,3.9,5.63.08,3,0,6,0,8.54l11.13-2.33c.33,2.08.67,4.16,1,6.24l-4.33-4.82c-1.59,2.36-3.25,4.67-4.71,7.1-.37.61.11,1.68-.13,2.43-.62,2-.85,4.64-2.25,5.74-4.75,3.76-5.48,8.22-3.71,13.55l-2,3c-5.91-2.08-6.89-1.4-7,4.9C212.38,215.94,209.39,213.49,207.93,214Z"/><path class="cls-7" d="M220.08,162l0,1.93c-.93,2.6-1.41,7.08-2.86,7.42-3.4.81-8.28.89-10.71-1.05-4-3.21-7.89-3.51-12.37-3C192,156.17,190,154.62,181,157c-.45-5.1,1.24-8.75,7.23-9.67a34.46,34.46,0,0,0-1.34-4.44c-1.45-3.15.61-4.62,2.85-5.65,1.26-.58,2.93-.27,4.42-.36,8.24.94,14,5.62,18.64,12.15-1.79-1-3.65-1.94-5.34-3.11-4.23-2.93-8-7.07-14.33-5.38-.3,4.77-.49,10,3.85,12.13,5.29,2.56,11.1,6.47,17.54,2.22l5.54,7Z"/><path class="cls-8" d="M154,203l-8-8c-.29-1.41-.22-3.05-.94-4.2-4.2-6.75-4.27-6.71,1.66-11.39L140,174l8.53-1.78c-1.17-4.31-3.37-8-2.57-10.91.62-2.22,5-3.41,7.71-5.06l1.15,1.09c-.6-2.27-1.55-4.52-1.73-6.82-.38-4.8,1.85-7.78,6.5-7.3,6.72.69,11.34-2.58,16.09-6.31,2.07-1.64,4.24-3.49,6.67-4.21,1.6-.48,3.74.88,5.65,1.41-3.07,0-5.56.58-7.41,3.64-1.07,1.75-3.61,2.58-5.44,3.9-2.43,1.74-4.82,3.55-7.22,5.33L166,147c-1.39-.34-2.81-1.05-4.16-.94-1.85.16-5.11.76-5.2,1.48-.26,2.19.06,5,1.33,6.71,3.74,4.93,4,4.76-1,8.75-5.49,1-5.7,1.36-3.41,6.2,1.47,3.09,3.81,6.07,1.38,9.72-6.62,2.09-8.14,5.72-4.11,11.53,1.65,2.38,4.71,3.78,7.12,5.63C160.92,203,160.92,203,154,203Z"/><path class="cls-9" d="M167.92,146.94c2.4-1.78,4.79-3.59,7.22-5.33,1.83-1.32,4.37-2.15,5.44-3.9,1.85-3.06,4.34-3.64,7.41-3.64l6.17,2.81c-1.49.09-3.16-.22-4.42.36-2.24,1-4.3,2.5-2.85,5.65a34.46,34.46,0,0,1,1.34,4.44c-6,.92-7.68,4.57-7.23,9.67-.37,2.33-.73,4.66-1.1,7-.84,2.1-1.8,4.16-2.51,6.3-1.51,4.53,2,11.71,6.63,13.71,0,.31,0,.62,0,.93l-7.2-.18a2.06,2.06,0,0,0-.7.07v-.11L172.08,179c1-2.74,2.73-5.47,2.71-8.2,0-4.74-1-9.37,1.88-13.77.71-1.1.1-3.06.1-4.49C172.84,151.38,167.25,153.85,167.92,146.94Z"/><path class="cls-6" d="M140,174l6.75,5.41c-5.93,4.68-5.86,4.64-1.66,11.39.72,1.15.65,2.79.94,4.2-6.25,1.27-1.71,5.3-2.06,8.08-1.79-1.36-4.45-2.35-5.19-4.14-2.32-5.67-4.62-11.52-5.61-17.52C132.1,174.94,133.49,174.06,140,174Z"/><path class="cls-10" d="M214.52,154.89c-6.44,4.25-12.25.34-17.54-2.22-4.34-2.11-4.15-7.36-3.85-12.13,6.36-1.69,10.1,2.45,14.33,5.38,1.69,1.17,3.55,2.08,5.34,3.11.12.64.25,1.28.37,1.92Z"/><path class="cls-5" d="M221,204c-1.77-5.33-1-9.79,3.71-13.55,1.4-1.1,1.63-3.75,2.25-5.74.24-.75-.24-1.82.13-2.43,1.46-2.43,3.12-4.74,4.71-7.1l4.33,4.82c.15,3.83-.63,7.06-4.38,9.21-1,.6-1.53,2.75-1.62,4.24C229.67,200.46,228.24,202.22,221,204Z"/><path class="cls-8" d="M207.93,214c1.46-.52,4.45,1.93,4.09-2.11l5.95-1c-.71,1.56-1,3.71-2.2,4.58-4.06,2.89-8.42,5.35-12.74,7.86-.45.26-1.36-.27-2.05-.44a35.47,35.47,0,0,0,4.24-4A31.81,31.81,0,0,0,207.93,214Z"/><path class="cls-6" d="M214.52,154.89,213.17,151c4.78,1.24,6.75,4.38,6.89,11Z"/><path class="cls-11" d="M218,211l-5.95,1c.1-6.3,1.08-7,7-4.9Z"/><path class="cls-12" d="M55,2c-.66,4.73-3.19,5-6,5-10.33,0-20.67-.09-31,0a17,17,0,0,0-7.24,1.32c-3.63,1.82-6.44,4.19-5,9.4C7,21.84,7,26.31,7,30.6Q7,190.35,7,350.1c0,1.33.33,2.78-.09,4A18.48,18.48,0,0,1,4.45,358a28.87,28.87,0,0,1-2.38-4c-.35-.85-.06-2-.06-3Q2,182.51,2,14c0-4.91.77-7.61,6.38-9.79,5.3-2.06,10.21-2.06,15.37-2.15C34,1.88,44.24,2,55,2Z"/><path class="cls-13" d="M111.5,3.9c.81,1.06,1.93,2,2.34,3.21s.11,2.64.11,4q0,170.21-.08,340.42c0,2.11-1.22,4.23-1.86,6.35-.67-2.1-1.92-4.2-1.93-6.31-.11-47.49,0-95-.13-142.46,0-10.4-.94-20.8-.9-31.19q.33-84.55,1-169.11c0-1.44.19-2.88.29-4.31Z"/><path class="cls-14" d="M158,196.07c-2.41-1.85-5.47-3.25-7.12-5.63-4-5.81-2.51-9.44,4.11-11.53,1.35,1.37,2.65,2.79,4.06,4.09,2.61,2.38,5.3,4.69,7.95,7,1.38.33,2.74.73,4.14,1,4.3.75,8.61,1.44,12.92,2.16L184,194H168.65c7.13,5,13.33,6.44,20.22,4a21.43,21.43,0,0,0,4.47-.13c2.56-.61,4.42-1.87,2.55-4.91L199,190,210.76,193c.2,7.78-1,9.44-8.15,12.05a43.79,43.79,0,0,0-5.61,3.06l-4.86-.14c-1.19-4.32-4.81-3.79-8-4l-8-3.6c-.68,2.22-1.36,4.45-2.05,6.67Z"/><path class="cls-6" d="M158,196.07,174,207c.3,2.08-1.17,5.22,3,5,.31,0,.62.1.93.17-2.62.6-5.22,1.37-7.87,1.78-7.15,1.11-10.89-4.72-15.78-8.11-.51-.35-.19-1.88-.26-2.86C160.92,203,160.92,203,158,196.07Z"/><path class="cls-9" d="M177.92,212.18c-.31-.07-.62-.13-.93-.17a5.86,5.86,0,0,1-.8-1.78c-.17-1.82-.94-4.42-.06-5.29,1.11-1.11,3.61-.86,5.52-1.11a15.33,15.33,0,0,1,2.44.06c3.24.24,6.86-.29,8,4-.62,3.22-2.74,4.18-5.79,4.08C183.55,211.92,180.73,212.11,177.92,212.18Z"/><path class="cls-11" d="M210.76,193,199,190l2.2-.21L200,187.2a6.08,6.08,0,0,0,1.94.28c1.6-.3,3.16-.76,4.74-1.16-.82-1.27-1.37-2.86-2.49-3.75-2.95-2.35-6.14-4.4-9.24-6.57-.33-2.67-.67-5.33-1-8a3.62,3.62,0,0,0,.18-.79c4.48-.46,8.35-.16,12.37,3,2.43,1.94,7.31,1.86,10.71,1.05,1.45-.34,1.93-4.82,2.86-7.42,3.19,3.28,2.73,13.63-1.11,15.29-1.71.73-4.85-.07-6.48-1.31-4.45-3.4-8.33-7.6-16-7.81,1.05,2.32,1.4,4.41,2.62,5.53a59.7,59.7,0,0,0,9.12,6.85C212.9,185.23,213,188.74,210.76,193Z"/><path class="cls-10" d="M194.17,167.21a3.62,3.62,0,0,1-.18.79c-4.71,1.33-8.92.74-12.34-3.12-.4-.46-1.16-.6-1.75-.89.37-2.33.73-4.66,1.1-7C190,154.62,192,156.17,194.17,167.21Z"/><path class="cls-15" d="M167,190c-2.65-2.34-5.34-4.65-7.95-7-1.41-1.3-2.71-2.72-4.06-4.09,2.43-3.65.09-6.63-1.38-9.72-2.29-4.84-2.08-5.23,3.41-6.2a78.73,78.73,0,0,0,7.65,6c2.21,1.36,4.87,2,7.33,2.93l-4.67,3.29c1.06,3.37,1.06,3.37,4.77,3.73l4.09,5.72C167.41,184.39,167.41,184.39,167,190Z"/><path class="cls-5" d="M172.08,179c-3.71-.36-3.71-.36-4.77-3.73L172,172c.67-4-1.13-6.75-3.88-9.55-3.56-3.64-6.49-7.91-9.62-11.81L166,147l1.92-.05c-.67,6.91,4.92,4.44,8.85,5.59,0,1.43.61,3.39-.1,4.49-2.88,4.4-1.91,9-1.88,13.77C174.81,173.52,173,176.25,172.08,179Z"/><path class="cls-6" d="M166,147l-7.52,3.62c3.13,3.9,6.06,8.17,9.62,11.81,2.75,2.8,4.55,5.56,3.88,9.55-2.46-.95-5.12-1.57-7.33-2.93a78.73,78.73,0,0,1-7.65-6c4.94-4,4.71-3.82,1-8.75-1.27-1.68-1.59-4.52-1.33-6.71.09-.72,3.35-1.32,5.2-1.48C163.19,145.94,164.61,146.65,166,147Z"/><path class="cls-7" d="M179.9,164c.59.29,1.35.43,1.75.89,3.42,3.86,7.63,4.45,12.34,3.12.33,2.67.67,5.33,1,8-6.64.12-8.53,1.5-11,8-4.61-2-8.14-9.18-6.63-13.71C178.1,168.15,179.06,166.09,179.9,164Z"/><path class="cls-10" d="M184,184c2.44-6.5,4.33-7.88,11-8,3.1,2.17,6.29,4.22,9.24,6.57,1.12.89,1.67,2.48,2.49,3.75-1.58.4-3.14.86-4.74,1.16a6.08,6.08,0,0,1-1.94-.28l-11.71.52c0-3.14-2.26-2.76-4.27-2.79C184.06,184.62,184,184.31,184,184Z"/><path class="cls-6" d="M184.06,184.93c2,0,4.29-.35,4.27,2.79-.26,2.74-.49,5.49-4.29,5.44-4.31-.72-8.62-1.41-12.92-2.16-1.4-.24-2.76-.64-4.14-1,.43-5.64.43-5.64,9.19-5.32v.11l.39.63.31-.7Z"/><path class="cls-15" d="M176.86,184.75l-.31.7-.39-.63A2.06,2.06,0,0,1,176.86,184.75Z"/><path class="cls-3" d="M188.86,198c-6.88,2.44-13.08,1-20.21-4H184l2.93,1Z"/><path class="cls-9" d="M186.91,195,184,194l.06-.86c3.8.05,4-2.7,4.29-5.44L200,187.2c.36.82.73,1.63,1.17,2.63L199,190,195.89,193Z"/><path class="cls-5" d="M184.09,203.89a15.33,15.33,0,0,0-2.44-.06c-1.91.25-4.41,0-5.52,1.11-.88.87-.11,3.47.06,5.29A5.86,5.86,0,0,0,177,212c-4.15.18-2.68-3-3-5q1-3.34,2.05-6.68Z"/><path class="cls-11" d="M186.91,195l9-2.05c1.87,3,0,4.3-2.55,4.91a21.43,21.43,0,0,1-4.47.13Z"/></svg>