<svg id="Layer_1" data-name="Layer 1" xmlns="http://www.w3.org/2000/svg" viewBox="0 0 360 360"><defs><style>.cls-1{fill:#4758a8;}.cls-2{fill:#f5ebf2;}.cls-3{fill:#ed5c6c;}</style></defs><title>NEW-ZEALAND</title><path class="cls-1" d="M360,1V360H1q0-101.43.05-202.85c0-4.32.1-8.65.15-13L17,144c7.19,2.91,12.79.36,17.8-4.91,7-7.35,14.18-14.51,21.21-21.81,1.75-1.82,4.13-3.19,4.59.12a93.69,93.69,0,0,1,.87,19.79c-.48,6.38-.14,7.47,6.58,7.61l10.15-.61c5.35,1.16,7-.1,7-5.49,0-7.16-.1-14.33.1-21.48,0-1.51,1.22-3,1.88-4.47l-.39,2c9.06,8.27,18.4,16.27,27.11,24.91,6,6,12.66,6.39,20.12,4.37,4.23,0,8.46-.21,12.67,0,3.16.17,3.58-1.48,3.37-3.92,2.29-2.65,1.91-13.7-1.12-16.8-10.43-10.67-21.11-21.11-31.64-31.68a48.12,48.12,0,0,1-3.48-4.38c2-.76,4-2.11,6-2.17,8.65-.25,17.3,0,26-.14,4.91,0,6-1.91,4.14-6.52,2.86-3.62,2.85-7.48,1-11.5.25-7.31-.14-7.3-7.46-6.69-7.57.63-15.22.48-22.83.48-1.48,0-3-.94-5-1.65a35.88,35.88,0,0,1,2.69-3.67c9-9.05,17.75-18.34,27.12-27,5.16-4.75,6.59-10,5.47-16.46,0-3.6.11-7.2.16-10.8,2.16-.05,4.32-.15,6.48-.15ZM193.12,126.14l-6,2.5c.94,2,1.4,4.56,2.92,6,4.5,4.1,5.61,8.57,3.6,14.32-.65,1.85.28,4.25.49,6.41,2.07-.57,4.45-.67,6.16-1.79a15.1,15.1,0,0,1,16.92.4C220,156,221.52,155,222,152a9.46,9.46,0,0,0-.23-4c-1.77-6.36-.25-11.31,5.46-15.06a5,5,0,0,0,1.39-4.66c-.49-1.17-2.85-2.29-4.33-2.22-9.81.48-9.65.53-12.7-7.93-.59-1.66-2.82-2.74-4.29-4.08-1.1,1.46-2.79,2.78-3.19,4.42C202.51,125.11,200.48,126.87,193.12,126.14Zm107.2-15.75c.9,1.3,1.6,3.15,2.27,3.13A9.56,9.56,0,0,0,307.5,112c5.48-3.71,13.1-3.82,18.26.07,2.39,1.8,3.67.77,4.17-1.68a8,8,0,0,0-.06-4c-2.09-6.46,0-11.19,5.25-15.21,1.2-.93,2.06-3.87,1.47-5.14s-3.34-2.06-5-1.84c-8.09,1.11-9.48.21-11.87-7.31-.61-1.91-2.82-3.3-4.3-4.93-1.16,1.82-3,3.51-3.36,5.48-.95,4.71-3.82,6.82-8.2,7.36-1.64.2-3.34-.07-5,0-3.77.25-5.39,2.61-2.91,5.06C302,95.91,305,102.15,300.32,110.39ZM262.5,64.12c-5.25-1.31-10-1.3-13-3.58-2.85-2.17-3.88-6.72-6.47-11.66-.95,2.94-2.08,4.68-1.93,6.31.47,5.4-2.73,7-7.1,7.59-2.56.33-5.16.35-9.42.62,7,7.53,9.91,15.26,5.63,24.72,16.34-4.64,16.34-4.64,26.59-1-.35-4.51-1.66-8.77-.71-12.45S260.26,67.64,262.5,64.12Zm21.85,122c2.21-1.22,4.61-3.51,7.16-3.7,2.72-.2,5.59,1.58,9.12,2.73.44-2,.84-4.54,1.58-7,.89-2.94,2.07-5.79,3.12-8.67.48-1.32,1.73-3.18,1.27-3.84-.91-1.3-2.76-2.67-4.24-2.68-3.52,0-5.8-.91-7.49-4.37-1.79-3.7-4-3.54-5.9.18a8.71,8.71,0,0,1-7.75,5.28c-1.1.11-3.05,3.15-2.73,4.36C280,174.14,282.12,179.66,284.35,186.15Z"/><path class="cls-2" d="M360,1l-202.52.05c-2.16,0-4.32.1-6.48.15H135c-1.08,2-1.67,4-3,5.24C121.43,17,110.56,27.3,100.05,38c-5.32,5.4-10,11.41-15,17.11-1.19,1.35-2.53,2.55-3.8,3.82-.74-1.78-2.08-3.54-2.1-5.33-.17-15.65-.1-31.3-.1-46.95V1.35H67.18c-.66,18.33.46,36.45-.7,55.82L17,6.31l-.9-4.93H1c0,4,0,7.6,0,11.23,0,5.92.18,6,5.86,4.59l49,47.93,0,1.66c-8.88.43-17.81.15-26.72.2C20,67,10.72,67,1.47,67V79h7.9c15.15,0,30.3,0,45.45.09,1.35,0,2.7,1.24,4,1.9-.86,1.25-1.51,2.78-2.65,3.69-1.92,1.53-4.5,2.31-6.21,4-13.91,13.82-27.67,27.79-41.51,41.68-2.08,2.09-4.37,4-7.29,6.6v7.2c-.05,4.33-.15,8.66-.15,13Q1,258.58,1,360a21.92,21.92,0,0,1-1-4.5Q0,250.58,0,145.65V0H7.74Q181.62,0,355.5,0A21.92,21.92,0,0,1,360,1ZM1.22,121.91c2.5-1.41,4.63-2.11,6.11-3.51Q21.55,105,35.48,91.2c1.18-1.17,2.67-3.8,2.19-4.5A7,7,0,0,0,32.79,84c-6.46-.27-12.95-.06-19.42,0-4.06,0-8.13,0-12.15,0ZM83.85,1.25c.15,12.66-.68,24.83,2,37.34,8-5.05,34.68-33.9,34.86-37.34ZM33.78,59C24.65,49.41,16.3,40.5,7.74,31.8c-1.53-1.55-3.95-2.22-6.41-3.54V61H5.49c8.14,0,16.27.11,24.41-.1C31.38,60.85,32.82,59.49,33.78,59ZM57.69,32.76c2.57-3.66,3.28-22.3,1.72-31.5H30.27C36.91,14.65,50.91,20.35,57.69,32.76Z"/><path class="cls-3" d="M17,6.31l49.5,50.86c1.16-19.37,0-37.49.7-55.82H79V6.62c0,15.65-.07,31.3.1,47,0,1.79,1.36,3.55,2.1,5.33,1.27-1.27,2.61-2.47,3.8-3.82,5-5.7,9.73-11.71,15-17.11,10.51-10.67,21.38-21,32-31.53,1.29-1.28,1.88-3.27,3-5.24h16c-.05,3.6-.11,7.2-.16,10.8a60,60,0,0,0-6.25,3.74c-1.13.86-1.57,2.57-2.62,3.59-9.44,9.13-18.84,18.3-28.46,27.24-5.81,5.4-12,10.36-17.93,15.65-.78.69-1.5,2.41-1.16,3.16A4,4,0,0,0,97.5,67c17.8.07,35.59,0,53.39,0,1.87,4,1.88,7.88-1,11.5-1.82.13-3.63.36-5.44.37q-24.7.12-49.41.19c-2.44,0-5.26-.48-5,3.27a47,47,0,0,1,5.38,3.9c5.38,5.19,10.61,10.55,15.93,15.81q19.3,19.1,38.64,38.15c.21,2.44-.21,4.09-3.37,3.92-4.21-.23-8.44,0-12.67,0a27,27,0,0,0-2.78-4.51c-1.21-1.32-3.05-2-4.33-3.31-15.13-15.17-30.21-30.39-45.79-46.08-2.88.57-3.23,3.58-3.22,6.64.06,15.81.18,31.63.28,47.44L68,144.83c-.34-16.13-.64-32.26-1-48.39,0-1.56-.8-3.09-1.24-4.72-6.4,7-12,13.63-18.13,19.81-9.18,9.33-18.71,18.32-28,27.57-1.26,1.27-1.79,3.27-2.67,4.93l-15.75.14V137c2.92-2.63,5.21-4.51,7.29-6.6C22.33,116.48,36.09,102.51,50,88.69c1.71-1.7,4.29-2.48,6.21-4,1.14-.91,1.79-2.44,2.65-3.69-1.34-.66-2.69-1.89-4-1.9C39.67,79,24.52,79,9.37,79H1.47V67c9.25,0,18.51,0,27.77,0,8.91,0,17.84.23,26.72-.2l0-1.66L6.9,17.2Z"/><path class="cls-2" d="M150,140.14Q130.71,121.06,111.39,102c-5.32-5.26-10.55-10.62-15.93-15.81a47,47,0,0,0-5.38-3.9c-.28-3.75,2.54-3.27,5-3.27q24.71-.11,49.41-.19c1.81,0,3.62-.24,5.44-.37,1.85,4.61.77,6.47-4.14,6.52-8.65.11-17.3-.11-26,.14-2,.06-4,1.41-6,2.17a48.12,48.12,0,0,0,3.48,4.38c10.53,10.57,21.21,21,31.64,31.68C151.94,126.44,152.32,137.49,150,140.14Z"/><path class="cls-2" d="M78.15,144.22c-.1-15.81-.22-31.63-.28-47.44,0-3.06.34-6.07,3.22-6.64,15.58,15.69,30.66,30.91,45.79,46.08,1.28,1.27,3.12,2,4.33,3.31A27,27,0,0,1,134,144c-7.46,2-14.08,1.63-20.12-4.37C105.16,131,95.82,123,86.76,114.76l.39-2c-.66,1.49-1.84,3-1.88,4.47-.2,7.15-.07,14.32-.1,21.48C85.14,144.12,83.5,145.38,78.15,144.22Z"/><path class="cls-3" d="M193.12,126.14c7.36.73,9.39-1,11-7.64.4-1.64,2.09-3,3.19-4.42,1.47,1.34,3.7,2.42,4.29,4.08,3,8.46,2.89,8.41,12.7,7.93,1.48-.07,3.84,1,4.33,2.22a5,5,0,0,1-1.39,4.66c-5.71,3.75-7.23,8.7-5.46,15.06a9.46,9.46,0,0,1,.23,4c-.51,3-2.08,4-4.79,1.94a15.1,15.1,0,0,0-16.92-.4c-1.71,1.12-4.09,1.22-6.16,1.79-.21-2.16-1.14-4.56-.49-6.41,2-5.75.9-10.22-3.6-14.32-1.52-1.39-2-3.93-2.92-6Z"/><path class="cls-3" d="M300.32,110.39C305,102.15,302,95.91,296,89.93c-2.48-2.45-.86-4.81,2.91-5.06,1.65-.11,3.35.16,5,0,4.38-.54,7.25-2.65,8.2-7.36.4-2,2.2-3.66,3.36-5.48,1.48,1.63,3.69,3,4.3,4.93,2.39,7.52,3.78,8.42,11.87,7.31,1.63-.22,4.43.67,5,1.84s-.27,4.21-1.47,5.14c-5.24,4-7.34,8.75-5.25,15.21a8,8,0,0,1,.06,4c-.5,2.45-1.78,3.48-4.17,1.68-5.16-3.89-12.78-3.78-18.26-.07a9.56,9.56,0,0,1-4.91,1.53C301.92,113.54,301.22,111.69,300.32,110.39Z"/><path class="cls-2" d="M150.89,67c-17.8,0-35.59.09-53.39,0a4,4,0,0,1-3.08-1.59c-.34-.75.38-2.47,1.16-3.16C101.5,56.93,107.7,52,113.51,46.57c9.62-8.94,19-18.11,28.46-27.24,1.05-1,1.49-2.73,2.62-3.59A60,60,0,0,1,150.84,12c1.12,6.47-.31,11.71-5.47,16.46-9.37,8.62-18.14,17.91-27.12,27a35.88,35.88,0,0,0-2.69,3.67c2.08.71,3.56,1.64,5,1.65,7.61,0,15.26.15,22.83-.48C150.75,59.65,151.14,59.64,150.89,67Z"/><path class="cls-2" d="M17,144c.88-1.66,1.41-3.66,2.67-4.93,9.25-9.25,18.78-18.24,28-27.57,6.08-6.18,11.73-12.79,18.13-19.81.44,1.63,1.2,3.16,1.24,4.72.41,16.13.71,32.26,1,48.39-6.72-.14-7.06-1.23-6.58-7.61a93.69,93.69,0,0,0-.87-19.79c-.46-3.31-2.84-1.94-4.59-.12-7,7.3-14.22,14.46-21.21,21.81C29.74,144.39,24.14,146.94,17,144Z"/><path class="cls-3" d="M262.5,64.12c-2.24,3.52-5.41,6.75-6.4,10.55s.36,7.94.71,12.45c-10.25-3.64-10.25-3.64-26.59,1,4.28-9.46,1.34-17.19-5.63-24.72,4.26-.27,6.86-.29,9.42-.62,4.37-.57,7.57-2.19,7.1-7.59-.15-1.63,1-3.37,1.93-6.31,2.59,4.94,3.62,9.49,6.47,11.66C252.51,62.82,257.25,62.81,262.5,64.12Z"/><path class="cls-3" d="M284.35,186.15c-2.23-6.49-4.37-12-5.86-17.7-.32-1.21,1.63-4.25,2.73-4.36a8.71,8.71,0,0,0,7.75-5.28c1.89-3.72,4.11-3.88,5.9-.18,1.69,3.46,4,4.33,7.49,4.37,1.48,0,3.33,1.38,4.24,2.68.46.66-.79,2.52-1.27,3.84-1.05,2.88-2.23,5.73-3.12,8.67-.74,2.45-1.14,5-1.58,7-3.53-1.15-6.4-2.93-9.12-2.73C289,182.64,286.56,184.93,284.35,186.15Z"/><path class="cls-1" d="M1.22,121.91V84c4,0,8.09,0,12.15,0,6.47,0,13-.23,19.42,0a7,7,0,0,1,4.88,2.66c.48.7-1,3.33-2.19,4.5Q21.55,105,7.33,118.4C5.85,119.8,3.72,120.5,1.22,121.91Z"/><path class="cls-1" d="M83.85,1.25h36.9c-.18,3.44-26.9,32.29-34.86,37.34C83.17,26.08,84,13.91,83.85,1.25Z"/><path class="cls-1" d="M33.78,59c-1,.5-2.4,1.86-3.88,1.9-8.14.21-16.27.1-24.41.1H1.33V28.26c2.46,1.32,4.88,2,6.41,3.54C16.3,40.5,24.65,49.41,33.78,59Z"/><path class="cls-1" d="M57.69,32.76C50.91,20.35,36.91,14.65,30.27,1.26H59.41C61,10.46,60.26,29.1,57.69,32.76Z"/><path class="cls-1" d="M17,6.31,6.9,17.2C1.22,18.65,1.06,18.53,1,12.61,1,9,1,5.35,1,1.38h15Z"/></svg>