<svg id="Layer_1" data-name="Layer 1" xmlns="http://www.w3.org/2000/svg" viewBox="0 0 360 360"><defs><style>.cls-1{fill:#4a5cab;}.cls-2{fill:#ec5565;}.cls-3{fill:#fbf9fa;}</style></defs><title>NORWAY</title><path class="cls-1" d="M360,157v48c-3-.06-5.92-.16-8.87-.16L184.65,205a27.27,27.27,0,0,0-3,0c-3.3.37-5.22,1.92-4.64,5.58A49.24,49.24,0,0,1,178,218q.09,71,.05,142H131c.05-2,.15-4,.15-6q-.06-69-.14-138a21.94,21.94,0,0,1,.21-4c1.1-5.87.17-7.05-5.82-7.05H1.3V157.16c1.25-.06,2.22-.16,3.19-.15q59,.48,117.94,1c7.7.07,9.72-1.44,9.72-8.34q0-74.15,0-148.4H177V4.42l-.12,133.47c0,3.66.32,7.35,0,11-.63,6.88.31,8.13,7.19,8.13Z"/><path class="cls-2" d="M360,1V146c-3.09,0-6.18-.09-9.27-.09l-83,.09c-22.16,0-44.33,0-66.49,0-6.88,0-8.06-1.19-8.07-7.75Q193.06,71,193,3.74A23.34,23.34,0,0,1,193.38,1Z"/><path class="cls-2" d="M360,217V360H193q0-68.14,0-136.3c0-6.57.15-6.7,6.73-6.7Z"/><path class="cls-2" d="M116,360H1V215c6.12.42,11.56,1.12,17,1.13,26.31.07,52.62-.05,78.92-.12a105.68,105.68,0,0,0,11.95-.27c6-.7,7.12,0,7.12,5.9Z"/><path class="cls-3" d="M116,360V221.62c0-5.87-1.14-6.6-7.12-5.9a105.68,105.68,0,0,1-11.95.27c-26.3.07-52.61.19-78.92.12-5.45,0-10.89-.71-17-1.13V360a21.92,21.92,0,0,1-1-4.5Q0,250.58,0,145.65V0H7.74Q181.62,0,355.5,0A21.92,21.92,0,0,1,360,1H193.38A23.34,23.34,0,0,0,193,3.74q.06,67.23.16,134.48c0,6.56,1.19,7.73,8.07,7.75,22.16.07,44.33,0,66.49,0l83-.09c3.09,0,6.18.06,9.27.09v11H184c-6.88,0-7.82-1.25-7.19-8.13.33-3.63,0-7.32,0-11L177,4.42V1.28H132.17q0,74.32,0,148.4c0,6.9-2,8.41-9.72,8.34q-59-.57-117.94-1c-1,0-1.94.09-3.19.15V205H125.4c6,0,6.92,1.18,5.82,7.05a21.94,21.94,0,0,0-.21,4q.06,69,.14,138c0,2-.1,4-.15,6ZM1,1.26V6.57c0,44.62.12,89.25-.15,133.87C.82,145.89,3,147,7.43,147c8.75,0,17.51.11,26.26,0q39.69-.43,79.36-1a15,15,0,0,0,2.68-.49V1.26Z"/><path class="cls-3" d="M360,217H199.74c-6.58,0-6.73.13-6.73,6.7q0,68.16,0,136.3H178q0-71-.05-142a49.24,49.24,0,0,0-.94-7.41c-.58-3.66,1.34-5.21,4.64-5.58a27.27,27.27,0,0,1,3,0l166.48-.16c2.95,0,5.91.1,8.87.16Z"/><path class="cls-2" d="M1,1.26H115.73V145.48a15,15,0,0,1-2.68.49q-39.67.54-79.36,1c-8.75.1-17.51,0-26.26,0C3,147,.82,145.89.86,140.44,1.13,95.82,1,51.19,1,6.57Z"/></svg>