<svg id="Layer_1" data-name="Layer 1" xmlns="http://www.w3.org/2000/svg" viewBox="0 0 360 360"><defs><style>.cls-1{fill:#fdfdfd;}.cls-2{fill:#ec5565;}</style></defs><title>POLAND</title><path class="cls-1" d="M1,360a21.92,21.92,0,0,1-1-4.5q-.08-106,0-212V0H360V179c-3.57,2.9-7.52,1.16-11.42,1.13-18.49-.15-37,0-55.49,0q-82.24,0-164.49-.14-59.25,0-118.5,0c-2.6,0-5.19-.33-8.19-.53V130.61H1ZM1.72,47.29l-.35-.47V122h.35Z"/><path class="cls-2" d="M1,360V130.61h.91v48.84c3,.2,5.59.53,8.19.53q59.25,0,118.5,0,82.25.06,164.49.14c18.5,0,37-.16,55.49,0,3.9,0,7.85,1.77,11.42-1.13V360Z"/><path class="cls-2" d="M1.72,47.29V122H1.37V46.82Z"/></svg>