<svg id="Layer_1" data-name="Layer 1" xmlns="http://www.w3.org/2000/svg" viewBox="0 0 362 362"><defs><style>.cls-1{fill:#ec5565;}.cls-2{fill:#58a763;}.cls-3{fill:#f2b046;}.cls-4{fill:#f0f0f5;}.cls-5{fill:#5964b4;}</style></defs><title>PORTUGAL</title><path class="cls-1" d="M362,2V362H146l-.06-101.77c6.06-.79,12.23-1.14,18.18-2.46,28.09-6.2,49.89-28.6,56.45-53.73,4.67-17.9,4.54-36.18-3.81-53.89-11.22-23.81-29-38.67-54.75-44.08-5.64-1.19-11.34-2.12-17-3.17,0-19.46-.12-38.92,0-58.37.12-14.11.62-28.22,1-42.33,2.16-.06,4.32-.16,6.47-.16Z"/><path class="cls-2" d="M145.94,260.23,146,362H2.33V2H20.5L146,2.2c-.33,14.11-.83,28.22-1,42.33-.16,19.45,0,38.91,0,58.37-1.94.32-3.86.77-5.81.92-3.81.31-7.81-.21-11.41.77-19.21,5.23-35.6,14.93-46.46,32.12a108.72,108.72,0,0,0-10.89,21.72c-3.84,11-3.33,22.75-2.27,34.14,2,22,12.53,39.53,30.55,52.58C112.85,255.4,128.76,259.71,145.94,260.23Z"/><path class="cls-3" d="M145.94,260.23c-17.18-.52-33.09-4.83-47.23-15.08-18-13.05-28.51-30.54-30.55-52.58-1.06-11.39-1.57-23.15,2.27-34.14a108.72,108.72,0,0,1,10.89-21.72c10.86-17.19,27.25-26.89,46.46-32.12,3.6-1,7.6-.46,11.41-.77,1.95-.15,3.87-.6,5.81-.92,5.67,1,11.37,2,17,3.17,25.71,5.41,43.53,20.27,54.75,44.08,8.35,17.71,8.48,36,3.81,53.89-6.56,25.13-28.36,47.53-56.45,53.73C158.17,259.09,152,259.44,145.94,260.23ZM147,117.11c-3.7.12-7.72-.65-11.05.53-9.33,3.28-18.33,7.49-27.56,11.07-3.38,1.31-3.71,3.27-2.56,6.15l-2,5.16C99,139.19,95.4,141.21,93,145.3c-2.53,4.29-4.95,8.64-7.21,13.08-2,3.83-.87,5.49,3.54,5.59,4.82.1,9.64.05,14.46.07q.52,5.81,1,11.62c-6.46-.21-12.93-.6-19.38-.5a7,7,0,0,0-5,2.52c-2.11,3.16,1.14,18.79,4.31,21.28,6.17,4.84,12.21,10.35,21.14,8q1.09,3.53,2.17,7H93.33c.56,4.09,3.83,7.75,6.63,7.93s7.36-4.42,8-8c.91.31,2.16.36,2.68,1,4.18,5.16,8.24,10.43,12.33,15.66a108.35,108.35,0,0,0-11.36-.6c-2.3.11-4.54,1.29-7.68,2.26,1.72,1.64,2.2,2.44,2.89,2.7,11.28,4.23,22.55,8.48,33.92,12.48,1.5.52,3.49-.34,5.26-.56,11.87.62,21.89-4.94,32.05-9.86,1.21-.59,1.77-2.53,2.63-3.84a45.41,45.41,0,0,0-4.46-2.25c-2.71-1-5.5-1.9-8.25-2.83l.12-2.24c2.06-.58,4.1-1.5,6.2-1.69,6.13-.55,12.38-.34,18.4-1.43,2.6-.46,6.58-3.18,6.78-5.2a21.36,21.36,0,0,1,5.32-12.41c.69-.81,1-2.93.49-3.57-.77-.92-2.83-1.79-3.75-1.37-2.52,1.13-4.63,3.15-7.1,4.42-1.92,1-4.34,2.15-6.19,1.73-1.61-.37-2.74-2.85-4.09-4.4,1.63-1.14,3.27-2.28,4.88-3.45a4.16,4.16,0,0,0,.64-.84,3.37,3.37,0,0,0-.29-1.35c-4.61-6-4.69-15.49-.41-22.24.58-.92.17-2.66-.17-3.92-.5-1.81-1.71-3.49-1.9-5.3-.07-.74,2.11-2.57,2.58-2.37,2,.89,4.24,2,5.44,3.69,2.45,3.47,6.71,5.25,10.3,3.06,1.25-.76,2.62-3,2.37-4.23a33.28,33.28,0,0,0-3.54-9.74c-.89-1.55-3.22-2.76-5.09-3.13-2.21-.44-4.62.32-7,.34-3.15,0-5.2-1.44-4.89-4.82.23-2.45.2-5.5,1.6-7.17,3.34-4,1-5.85-1.87-7.93-1.9-1.36-3.75-2.79-5.71-4A75.27,75.27,0,0,0,147,117.11Zm53.6,72c2.7-.38,5.7-.61,8.6-1.3a3.81,3.81,0,0,0,2.48-2.48c.11-1-1-2.92-1.76-3a94.78,94.78,0,0,0-13.77-.89c-1,0-2.93,2.32-2.8,3.36.17,1.41,1.72,2.94,3.07,3.83C197.42,189.29,199,189,200.63,189.14Z"/><path class="cls-1" d="M103.85,140l2-5.16c12,0,23.9.06,35.85.15,3.77,0,5.43-1.67,5.32-5.45-.12-4.14,0-8.3,0-12.45a75.27,75.27,0,0,1,34.14,11.4c2,1.25,3.81,2.68,5.71,4,2.91,2.08,5.21,4,1.87,7.93-1.4,1.67-1.37,4.72-1.6,7.17-.31,3.38,1.74,4.86,4.89,4.82,2.33,0,4.74-.78,7-.34,1.87.37,4.2,1.58,5.09,3.13a33.28,33.28,0,0,1,3.54,9.74c.25,1.24-1.12,3.47-2.37,4.23-3.59,2.19-7.85.41-10.3-3.06-1.2-1.7-3.45-2.8-5.44-3.69-.47-.2-2.65,1.63-2.58,2.37.19,1.81,1.4,3.49,1.9,5.3.34,1.26.75,3,.17,3.92-4.28,6.75-4.2,16.26.41,22.24a3.37,3.37,0,0,1,.29,1.35,4.16,4.16,0,0,1-.64.84c-1.61,1.17-3.25,2.31-4.88,3.45,1.35,1.55,2.48,4,4.09,4.4,1.85.42,4.27-.76,6.19-1.73,2.47-1.27,4.58-3.29,7.1-4.42.92-.42,3,.45,3.75,1.37.54.64.2,2.76-.49,3.57a21.36,21.36,0,0,0-5.32,12.41c-.2,2-4.18,4.74-6.78,5.2-6,1.09-12.27.88-18.4,1.43-2.1.19-4.14,1.11-6.2,1.69l-.12,2.24c2.75.93,5.54,1.79,8.25,2.83a45.41,45.41,0,0,1,4.46,2.25c-.86,1.31-1.42,3.25-2.63,3.84C167.92,242,157.9,247.51,146,246.89c-.86-2.19-1.1-5.48-2.69-6.37-6.56-3.7-13.52-6.67-20.34-9.91-4.09-5.23-8.15-10.5-12.33-15.66-.52-.63-1.77-.68-2.68-1l.05,0q-1.08-3.52-2.17-7c1.95-3.2,3.2-6.23-1.06-8.8-.66-.39-.84-2-.81-3,.2-6.49.53-13,.82-19.46q-.52-5.81-1-11.62Q103.81,152,103.85,140ZM146,146v-.16c-8.16,0-16.33.17-24.49-.08-4.35-.13-5.83,1.37-5.76,5.77.26,15.49.13,31,.27,46.48.12,13.34,16.61,29.94,30,30.12,8.94.12,14.93-5.86,21-11.19,5.36-4.75,8.95-10.86,9-18.31.17-16,.07-32,.22-48,0-3.79-1.62-4.8-5.17-4.72C162.67,146.14,154.33,146,146,146Z"/><path class="cls-2" d="M104.82,175.66c-.29,6.49-.62,13-.82,19.46,0,1,.15,2.65.81,3,4.26,2.57,3,5.6,1.06,8.8-8.93,2.35-15-3.16-21.14-8-3.17-2.49-6.42-18.12-4.31-21.28a7,7,0,0,1,5-2.52C91.89,175.06,98.36,175.45,104.82,175.66Z"/><path class="cls-2" d="M147,117.11c0,4.15-.12,8.31,0,12.45.11,3.78-1.55,5.48-5.32,5.45-12-.09-23.9-.11-35.85-.15-1.15-2.88-.82-4.84,2.56-6.15,9.23-3.58,18.23-7.79,27.56-11.07C139.31,116.46,143.33,117.23,147,117.11Z"/><path class="cls-2" d="M123,230.61c6.82,3.24,13.78,6.21,20.34,9.91,1.59.89,1.83,4.18,2.69,6.37-1.77.22-3.76,1.08-5.26.56-11.37-4-22.64-8.25-33.92-12.48-.69-.26-1.17-1.06-2.89-2.7,3.14-1,5.38-2.15,7.68-2.26A108.35,108.35,0,0,1,123,230.61Z"/><path class="cls-2" d="M103.85,140q0,12-.07,24c-4.82,0-9.64,0-14.46-.07-4.41-.1-5.5-1.76-3.54-5.59,2.26-4.44,4.68-8.79,7.21-13.08C95.4,141.21,99,139.19,103.85,140Z"/><path class="cls-1" d="M200.63,189.14c-1.61-.15-3.21.15-4.18-.49-1.35-.89-2.9-2.42-3.07-3.83-.13-1,1.77-3.34,2.8-3.36a94.78,94.78,0,0,1,13.77.89c.76.09,1.87,2,1.76,3a3.81,3.81,0,0,1-2.48,2.48C206.33,188.53,203.33,188.76,200.63,189.14Z"/><path class="cls-2" d="M108,214c-.67,3.56-5.29,8.15-8,8s-6.07-3.84-6.63-7.93H108Z"/><path class="cls-4" d="M146,146c8.33,0,16.67.14,25-.07,3.55-.08,5.2.93,5.17,4.72-.15,16,0,32-.22,48-.07,7.45-3.66,13.56-9,18.31-6,5.33-12,11.31-21,11.19-13.35-.18-29.84-16.78-30-30.12-.14-15.49,0-31-.27-46.48-.07-4.4,1.41-5.9,5.76-5.77,8.16.25,16.33.08,24.49.08Zm-24.14,37.31c0,6.38,2.28,9.72,6.5,9.7,4.76,0,6.7-2.58,6.79-8.91.07-5.29-2.47-8.17-7.15-8.11C124,176.05,121.83,178.68,121.86,183.31ZM140,184.69c0,.29-.44,2.17.29,3.21,1.59,2.27,3.64,5.63,5.76,5.82,5.21.49,5.53-4.33,5.85-8.07s1.78-8.61-4-9.59C142.37,175.13,139.77,177.87,140,184.69ZM145.76,212c6.57,0,7.27-.66,7.25-7,0-5.12-1.81-7-6.69-7s-7.52,2.16-7.45,6.45C139,210.59,140.24,212,145.76,212ZM152,164.34c0-8.65-.45-9.31-5.79-9.35-5.71,0-6.23.58-6.23,7.42s.7,7.48,7,7.82C152.67,170.52,152.21,167,152,164.34Z"/><path class="cls-5" d="M121.86,183.31c0-4.63,2.18-7.26,6.14-7.32,4.68-.06,7.22,2.82,7.15,8.11-.09,6.33-2,8.87-6.79,8.91C124.14,193,121.89,189.69,121.86,183.31Z"/><path class="cls-5" d="M140,184.69c-.27-6.82,2.33-9.56,7.87-8.63,5.81,1,4.35,5.84,4,9.59s-.64,8.56-5.85,8.07c-2.12-.19-4.17-3.55-5.76-5.82C139.6,186.86,140.06,185,140,184.69Z"/><path class="cls-5" d="M145.76,212c-5.52,0-6.8-1.42-6.89-7.57-.07-4.29,2.43-6.45,7.45-6.45s6.67,1.89,6.69,7C153,211.35,152.33,212,145.76,212Z"/><path class="cls-5" d="M152,164.34c.2,2.69.66,6.18-5,5.89-6.35-.34-7-.84-7-7.82s.52-7.46,6.23-7.42C151.56,155,152,155.69,152,164.34Z"/></svg>