<svg id="Layer_1" data-name="Layer 1" xmlns="http://www.w3.org/2000/svg" viewBox="0 0 360 360"><defs><style>.cls-1{fill:#f5ba42;}.cls-2{fill:#4758a8;}.cls-3{fill:#ec5565;}</style></defs><title>ROMANIA</title><path class="cls-1" d="M247,360H115V.86h-6.39q-48.46,0-96.93,0A39.7,39.7,0,0,1,6,0Q180.75,0,355.5,0A21.92,21.92,0,0,1,360,1H254c-7,0-7,0-7,7.06Z"/><path class="cls-2" d="M6,0a39.7,39.7,0,0,0,5.68.83q48.47.08,96.93,0H115V360H1c-.05-2.16-.13-4.33-.13-6.49q0-170.16,0-340.33A45.15,45.15,0,0,0,0,7V0Z"/><path class="cls-3" d="M247,360V8.07C247,1,247,1,254,1H360V360Z"/><path class="cls-1" d="M0,7a45.15,45.15,0,0,1,.83,6.18q.06,170.16,0,340.33c0,2.16.08,4.33.13,6.49a21.83,21.83,0,0,1-1-4.49Q0,248.16,0,140.81Z"/></svg>