<svg id="Layer_1" data-name="Layer 1" xmlns="http://www.w3.org/2000/svg" viewBox="0 0 359.89 359.96"><defs><style>.cls-1{fill:#fdfdfd;}.cls-2{fill:#ec5565;}</style></defs><title>SINGAPORE</title><path class="cls-1" d="M359.89,181V360H0V0H5.53Q180.46,0,355.4,0a22,22,0,0,1,4.49,1H1.19V322.42a3.47,3.47,0,0,0,.86-2.33q-.06-66.48-.22-133c0-3.33.93-4.92,4.39-5,8.82-.24,17.63-.92,26.44-.93Q185.39,181,338.1,181Z"/><path class="cls-2" d="M359.89,181H338.1q-152.72.08-305.44.19c-8.81,0-17.62.69-26.44.93-3.46.09-4.4,1.68-4.39,5q.22,66.48.22,133a3.47,3.47,0,0,1-.86,2.33V1h358.7Zm-245-21.66a68.31,68.31,0,0,1-24.51-11.68c-10.15-7.41-17.47-17.25-22.93-27.74C61.75,109.06,60,96.39,61,83.7,62.08,69.48,65.32,56,74.77,44.93,80.67,38,87.59,32,94,25.52a19.84,19.84,0,0,1,10.11-5.63c2.2-.49,4.1-2.34,6.74-3.94C92.61,6.58,57,20.15,39,44.92c-20,27.68-20.22,60.85,4.22,91.6C59.23,156.62,97,168.85,114.85,159.34Zm62.57-68c2.24-1.11,3.54-1.38,4.28-2.18,3.92-4.26,7.69-3.29,11.74-.17,1.16.89,2.92,1,4.4,1.48a23.62,23.62,0,0,0,.8-4.64c-.16-5.33-.65-10.65,4.77-14.17.68-.44,1-2.28.7-3.14-.28-.7-1.81-1.3-2.79-1.29-4.71.05-8.56-.65-10.87-5.77-1.61-3.56-4.68-3-6.34.37-2,4.12-5.45,5.68-9.58,6.17s-4.44,2.19-1.93,5.1c3.17,3.68,5.15,7.5,3.08,12.67C175.14,87.1,176.73,89.3,177.42,91.32Zm2.19,46.77c.42-7.29-.91-14.29,5.31-19.12a2.58,2.58,0,0,0,.21-2.57,3.7,3.7,0,0,0-2.92-1.09c-4.77,1.16-7.64-1.4-9.86-4.93-1.69-2.66-3.49-3.35-5.27-.58-2.78,4.31-6.76,6-11.59,6.45-1,.09-1.82,1.07-3.63,2.21,8.43,4.67,7.13,12,5.85,20.58,4.59-2.08,7.85-4.68,11.18-4.77S175.66,136.57,179.61,138.09Zm-24-83.78c.28-7.72-.6-15,5.81-19.94-.83-1.07-2.08-3.19-2.44-3-5.45,2.11-8-1.4-10.59-5.06-2-2.82-4.08-2.86-5.76.09-1.9,3.34-4.64,4.82-8.35,5.48-5.17.91-5,1.48-2.58,6,1.6,3,2,6.69,2.76,10.1a48.93,48.93,0,0,1,.64,5.57c1.95-.55,4.23-.63,5.79-1.73,3.31-2.34,6.16-2.76,9.41,0C151.53,52.87,153.34,53.28,155.59,54.31Zm-24.24,83.82c.38-4.41.13-7.87,1.09-10.95s3.32-5.48,4.53-8.41c.33-.78-1.75-3.53-2-3.44-5.43,2.09-8-1.36-10.59-5.07-2.1-3.06-3.68-2.6-6.14.16a21,21,0,0,1-8.42,5.43c-4.34,1.54-4.69,1.87-2.07,5.91,2.07,3.19,4.23,6.33,2.68,10.64-.51,1.44.35,3.37.58,5.08,1.82-.43,4-.35,5.39-1.38,3.56-2.7,6.69-3.23,10.22,0C127.72,137.07,129.46,137.34,131.35,138.13Zm-12-71c-6.62,2.35-10.3-.6-14-4a4.19,4.19,0,0,0-3.87-.28C97.38,65.21,93.43,68,88.71,71,93.2,75.55,94.78,81.8,93,89.2a24,24,0,0,0,5.7-2.15c3.66-1.76,7.29-3.63,10.73.58.57.7,2.46,1.32,2.87,1a4.59,4.59,0,0,0,1.43-3.23c-.16-5-.8-10,4.38-13.29C118.89,71.6,118.76,69.75,119.37,67.08Z"/><path class="cls-1" d="M114.85,159.34c-17.86,9.51-55.62-2.72-71.6-22.82C18.81,105.77,19,72.6,39,44.92,57,20.15,92.61,6.58,110.85,16c-2.64,1.6-4.54,3.45-6.74,3.94A19.84,19.84,0,0,0,94,25.52C87.59,32,80.67,38,74.77,44.93,65.32,56,62.08,69.48,61,83.7c-1,12.69.77,25.36,6.43,36.22,5.46,10.49,12.78,20.33,22.93,27.74A68.31,68.31,0,0,0,114.85,159.34Z"/><path class="cls-1" d="M177.42,91.32c-.69-2-2.28-4.22-1.74-5.57,2.07-5.17.09-9-3.08-12.67-2.51-2.91-2.26-4.61,1.93-5.1s7.55-2,9.58-6.17c1.66-3.36,4.73-3.93,6.34-.37,2.31,5.12,6.16,5.82,10.87,5.77,1,0,2.51.59,2.79,1.29.34.86,0,2.7-.7,3.14-5.42,3.52-4.93,8.84-4.77,14.17a23.62,23.62,0,0,1-.8,4.64c-1.48-.47-3.24-.59-4.4-1.48-4.05-3.12-7.82-4.09-11.74.17C181,89.94,179.66,90.21,177.42,91.32Z"/><path class="cls-1" d="M179.61,138.09c-4-1.52-7.37-3.91-10.72-3.82S162.3,137,157.71,139c1.28-8.57,2.58-15.91-5.85-20.58,1.81-1.14,2.68-2.12,3.63-2.21,4.83-.5,8.81-2.14,11.59-6.45,1.78-2.77,3.58-2.08,5.27.58,2.22,3.53,5.09,6.09,9.86,4.93a3.7,3.7,0,0,1,2.92,1.09,2.58,2.58,0,0,1-.21,2.57C178.7,123.8,180,130.8,179.61,138.09Z"/><path class="cls-1" d="M155.59,54.31c-2.25-1-4.06-1.44-5.31-2.51-3.25-2.78-6.1-2.36-9.41,0-1.56,1.1-3.84,1.18-5.79,1.73a48.93,48.93,0,0,0-.64-5.57c-.76-3.41-1.16-7.09-2.76-10.1-2.39-4.53-2.59-5.1,2.58-6,3.71-.66,6.45-2.14,8.35-5.48,1.68-3,3.79-2.91,5.76-.09,2.56,3.66,5.14,7.17,10.59,5.06.36-.14,1.61,2,2.44,3C155,39.28,155.87,46.59,155.59,54.31Z"/><path class="cls-1" d="M131.35,138.13c-1.89-.79-3.63-1.06-4.71-2-3.53-3.21-6.66-2.68-10.22,0-1.37,1-3.57,1-5.39,1.38-.23-1.71-1.09-3.64-.58-5.08,1.55-4.31-.61-7.45-2.68-10.64-2.62-4-2.27-4.37,2.07-5.91a21,21,0,0,0,8.42-5.43c2.46-2.76,4-3.22,6.14-.16,2.57,3.71,5.16,7.16,10.59,5.07.23-.09,2.31,2.66,2,3.44-1.21,2.93-3.61,5.43-4.53,8.41S131.73,133.72,131.35,138.13Z"/><path class="cls-1" d="M119.37,67.08c-.61,2.67-.48,4.52-1.23,5-5.18,3.31-4.54,8.3-4.38,13.29a4.59,4.59,0,0,1-1.43,3.23c-.41.35-2.3-.27-2.87-1-3.44-4.21-7.07-2.34-10.73-.58A24,24,0,0,1,93,89.2c1.75-7.4.17-13.65-4.32-18.16,4.72-3.08,8.67-5.83,12.82-8.23a4.19,4.19,0,0,1,3.87.28C109.07,66.48,112.75,69.43,119.37,67.08Z"/></svg>