<svg id="Layer_1" data-name="Layer 1" xmlns="http://www.w3.org/2000/svg" viewBox="0 0 360 360"><defs><style>.cls-1{fill:#59a964;}.cls-2{fill:#ec5666;}.cls-3{fill:#414f98;}.cls-4{fill:#f7f4f1;}.cls-5{fill:#ecc556;}.cls-6{fill:#464c54;}</style></defs><title>SOUTH-AFRICA</title><path class="cls-1" d="M360,144v74c-1.16.11-2.31.32-3.47.32-43.45-.09-86.91-.27-130.36-.2a25.06,25.06,0,0,0-11.46,2.57c-15.5,8.37-30.78,17.15-46.06,25.93-23.17,13.34-46.26,26.83-69.4,40.22Q52.61,313.8,6,340.69a44.79,44.79,0,0,1-4.77,2V275a21.09,21.09,0,0,0,4.16-1.35c7.51-4.26,14.93-8.69,22.44-13q65.52-37.35,131-74.75c1.52-.87,3.08-3.37,3-5-.14-1.87-1.78-4-3.39-5.3-2.18-1.71-5-2.55-7.46-4q-31.38-18.08-62.72-36.21Q47.26,112,6.28,88.56a28.28,28.28,0,0,0-5.09-1.75V19.66A34.85,34.85,0,0,1,4.47,21c17,9.66,34.05,19.3,51,29.06,16.71,9.6,33.35,19.34,50,29q50.28,29.08,100.62,58.09c5.5,3.16,10.63,7,17.72,6.94,41.13-.22,82.25-.11,123.38-.11Z"/><path class="cls-2" d="M360,1V133c-35.83,0-71.66-.44-107.47.19-16.4.29-30.82-2.43-45.15-11.58-26.61-17-54.5-32-81.87-47.75Q87.07,51.71,48.58,29.63C37.77,23.44,26.86,17.44,16.06,11.25c-5.07-2.9-10-6-15-9.07L1.37,1Z"/><path class="cls-3" d="M360,230V360H1c2.28-1.58,4.48-3.3,6.86-4.71C22.46,346.68,37,338,51.73,329.59q53.84-30.87,107.75-61.6c20.76-11.89,41.41-24,62.16-35.87a13.59,13.59,0,0,1,6-2c7.73-.23,15.48-.1,23.22-.1H360Z"/><path class="cls-4" d="M360,230H250.85c-7.74,0-15.49-.13-23.22.1a13.59,13.59,0,0,0-6,2c-20.75,11.9-41.4,24-62.16,35.87q-53.83,30.87-107.75,61.6C37,338,22.46,346.68,7.86,355.29,5.48,356.7,3.28,358.42,1,360a21.92,21.92,0,0,1-1-4.5Q0,250.58,0,145.65V0H7.74Q181.62,0,355.5,0A21.92,21.92,0,0,1,360,1H1.37L1.08,2.18c5,3,9.91,6.17,15,9.07,10.8,6.19,21.71,12.19,32.52,18.38Q87.07,51.7,125.51,73.86c27.37,15.78,55.26,30.75,81.87,47.75,14.33,9.15,28.75,11.87,45.15,11.58,35.81-.63,71.64-.19,107.47-.19v11H347.23c-41.13,0-82.25-.11-123.38.11-7.09,0-12.22-3.78-17.72-6.94q-50.4-28.89-100.62-58.09c-16.68-9.65-33.32-19.39-50-29-17-9.76-34-19.4-51-29.06a34.85,34.85,0,0,0-3.28-1.37V86.81q0,8.89,0,17.77Q1.11,149.27,1,193.94c0,21,.1,41.93.15,62.89v85.86a44.79,44.79,0,0,0,4.77-2q46.67-26.9,93.3-53.85c23.14-13.39,46.23-26.88,69.4-40.22,15.28-8.78,30.56-17.56,46.06-25.93a25.06,25.06,0,0,1,11.46-2.57c43.45-.07,86.91.11,130.36.2,1.16,0,2.31-.21,3.47-.32Z"/><path class="cls-5" d="M1.18,275q0-9.09,0-18.18a20.3,20.3,0,0,0,3.68-1.3q37-21.33,73.88-42.72c16.15-9.32,32.38-18.51,48.52-27.83,5.13-3,5.07-5-.17-8-8.77-5.12-17.61-10.12-26.4-15.18q-42.39-24.43-84.78-48.87c-4.89-2.82-9.83-5.55-14.75-8.33q0-8.88,0-17.77a28.28,28.28,0,0,1,5.09,1.75q41,23.4,81.9,46.92,31.38,18.06,62.72,36.21c2.44,1.41,5.28,2.25,7.46,4,1.61,1.25,3.25,3.43,3.39,5.3.12,1.62-1.44,4.12-3,5q-65.43,37.51-131,74.75c-7.51,4.28-14.93,8.71-22.44,13A21.09,21.09,0,0,1,1.18,275Z"/><path class="cls-6" d="M1.17,104.58c4.92,2.78,9.86,5.51,14.75,8.33q42.4,24.42,84.78,48.87c8.79,5.06,17.63,10.06,26.4,15.18,5.24,3.06,5.3,5.06.17,8-16.14,9.32-32.37,18.51-48.52,27.83q-37,21.32-73.88,42.72a20.3,20.3,0,0,1-3.68,1.3c-.05-21-.15-41.93-.15-62.89Q1,149.26,1.17,104.58Z"/></svg>