<svg id="Layer_1" data-name="Layer 1" xmlns="http://www.w3.org/2000/svg" viewBox="0 0 360 360"><defs><style>.cls-1{fill:#f4ba43;}.cls-2{fill:#4a88db;}</style></defs><title>SWEDEN</title><path class="cls-1" d="M360,157v49a29.52,29.52,0,0,0-5.27-1Q269.34,205,183.94,205c-4.16,0-6,1.34-6,5.75q.12,74.66.05,149.29H130c.05-1.82.15-3.65.15-5.47q-.06-71.44-.15-142.89c0-5.69-.9-6.61-6.68-6.63-12,0-24,0-36,0-26,0-52-.15-77.94-.13-8,0-8.77.93-8.77,8.78q0,69.94,0,139.9c0,2.15.22,4.3.34,6.45a21.92,21.92,0,0,1-1-4.5Q0,250.58,0,145.65V0H7.74Q181.62,0,355.5,0A21.92,21.92,0,0,1,360,1a24.84,24.84,0,0,0-3-.34q-87,0-173.91-.1C178,.54,178,3.44,178,7q-.08,72.21-.25,144.43c0,4.54,1.72,5.68,5.86,5.67Q271.81,156.93,360,157ZM.64.93V149c0,8,0,8,8,8q56.47.09,113,.15a34.54,34.54,0,0,0,5-.21c3.29-.48,4.82-2.16,4.43-5.82a156.89,156.89,0,0,1-.79-15.93q-.09-57.48,0-115V.93Z"/><path class="cls-2" d="M360,157q-88.2,0-176.39.05c-4.14,0-5.88-1.13-5.86-5.67Q178,79.17,178,7c0-3.51,0-6.41,5.13-6.39q87,.19,173.91.1A24.84,24.84,0,0,1,360,1Z"/><path class="cls-2" d="M178,360q0-74.64-.05-149.29c0-4.41,1.83-5.76,6-5.75q85.4.09,170.79.08a29.52,29.52,0,0,1,5.27,1V360Z"/><path class="cls-2" d="M1,360c-.12-2.15-.34-4.3-.34-6.45q0-70,0-139.9c0-7.85.77-8.78,8.77-8.78,26,0,52,.09,77.94.13,12,0,24,0,36,0,5.78,0,6.67.94,6.68,6.63q.08,71.44.15,142.89c0,1.82-.1,3.65-.15,5.47Z"/><path class="cls-2" d="M.64.93H130.16v19.3q0,57.48,0,115a156.89,156.89,0,0,0,.79,15.93c.39,3.66-1.14,5.34-4.43,5.82a34.54,34.54,0,0,1-5,.21q-56.48-.06-113-.15c-8,0-8,0-8-8V.93Z"/></svg>