<svg id="Layer_1" data-name="Layer 1" xmlns="http://www.w3.org/2000/svg" viewBox="0 0 360 360"><defs><style>.cls-1{fill:#ec5565;}.cls-2{fill:#fdfbfc;}</style></defs><title>SWITZERLAND</title><path class="cls-1" d="M360,1V360H1V1H8.16ZM137.7,157v0c-4.33,0-8.66,0-13,0-2.13,0-5.17-.58-6.21.55-2.63,2.87-5.89,6.44-6.16,9.94a145.45,145.45,0,0,0,.47,26.88c.84,7.72,5.14,10.61,12.93,10.61,9.33,0,18.66-.11,28-.06,5.54,0,6.79,2.17,6.58,7.63-.37,9.47-.79,19.05.22,28.43.91,8.49,2.77,11.13,11.27,11.95,8.66.84,17.55.26,26.24-.63,7-.71,9.54-3.74,9.84-10.78.4-9.12.42-18.28.08-27.41-.29-7.66.53-9,8.39-9.1,8.5-.07,17,.2,25.49.11,10.39-.12,13-3.46,14-13.27a110.27,110.27,0,0,0,0-22c-.81-8.32-3.41-13.27-13.72-13-9,.26-18,.08-27,.09-6,0-7.09-1-7.11-6.79,0-9.32.29-18.66-.16-28-.41-8.26-2.76-14.11-13-13.38-7.29.52-14.65.09-22,.1-6,0-12.34,5-12.58,11-.38,9.79-.17,19.63.31,29.43.25,5-1.16,7.37-6.41,7.48C148.7,157.05,143.2,157,137.7,157Z"/><path class="cls-2" d="M360,1,8.16,1H1V360a21.92,21.92,0,0,1-1-4.5Q0,250.58,0,145.65V0H7.74Q181.62,0,355.5,0A21.92,21.92,0,0,1,360,1Z"/><path class="cls-2" d="M137.7,157c5.5,0,11,.09,16.49,0,5.25-.11,6.66-2.47,6.41-7.48-.48-9.8-.69-19.64-.31-29.43.24-6.06,6.55-11,12.58-11,7.33,0,14.69.42,22-.1,10.27-.73,12.62,5.12,13,13.38.45,9.31.12,18.65.16,28,0,5.76,1.12,6.8,7.11,6.79,9,0,18,.17,27-.09,10.31-.3,12.91,4.65,13.72,13a110.27,110.27,0,0,1,0,22c-1,9.81-3.61,13.15-14,13.27-8.5.09-17-.18-25.49-.11-7.86.07-8.68,1.44-8.39,9.1.34,9.13.32,18.29-.08,27.41-.3,7-2.81,10.07-9.84,10.78-8.69.89-17.58,1.47-26.24.63-8.5-.82-10.36-3.46-11.27-11.95-1-9.38-.59-19-.22-28.43.21-5.46-1-7.6-6.58-7.63-9.33-.05-18.66.06-28,.06-7.79,0-12.09-2.89-12.93-10.61a145.45,145.45,0,0,1-.47-26.88c.27-3.5,3.53-7.07,6.16-9.94,1-1.13,4.08-.52,6.21-.55,4.33-.06,8.66,0,13,0Z"/></svg>