<svg id="Layer_1" data-name="Layer 1" xmlns="http://www.w3.org/2000/svg" viewBox="0 0 360 360"><defs><style>.cls-1{fill:#ec5565;}.cls-2{fill:#fcf9fa;}</style></defs><title>TURKEY</title><path class="cls-1" d="M360,1V360H1V1ZM171.43,126.38l.85-1.84c-2.24-1.83-4.25-4.12-6.77-5.42-7.53-3.87-15.06-7.88-22.95-10.89-21.07-8-40.45-2.11-58.87,8.53C73.15,122.85,65.35,132,57.85,141.41c-6.64,8.37-10.68,17.27-10.11,28.22.47,9,.38,18,.19,27A38,38,0,0,0,51,213c10.71,25,29.51,39.81,55.58,46,4.53,1.09,9.08,2.74,13.67,2.88,10.71.33,20.63-3.69,30.7-6.78,12.1-3.71,21.52-11.58,31-19.45a6.28,6.28,0,0,0,1.36-1.46c1.84-2.91.49-5.68-2.87-5a20.45,20.45,0,0,0-8.69,4.16c-10.21,8.34-21.48,11.09-34.72,10.12-22.15-1.62-38-13.35-49.47-30.58C77.29,197.45,76.38,179.56,82.9,162c6.28-16.89,17.71-29,34.56-36.5,15-6.68,29.47-7.05,44.56-1.58C165.05,125.05,168.29,125.59,171.43,126.38Zm78.22,38.4c-4.09-2.1-4.09-2.1-11.12,1.18-10.65,5-15.59,3.15-20.51-7.55-.35-.75-.44-1.71-1-2.27-1.18-1.26-2.57-2.32-4.87-4.33,0,5.64-.35,9.62.08,13.52.68,6.09-.48,8.4-6.31,10.57-4,1.51-8.13,2.94-12.08,4.67-1.17.51-1.93,1.92-2.88,2.93,1.13.75,2.17,1.86,3.42,2.2,3.36.91,6.84,1.38,10.22,2.22,4.75,1.19,7.42,4,7.23,9.25-.17,4.86,0,9.74,0,14.61l1.66.54c2.14-2.61,4.44-5.11,6.38-7.86,6.88-9.74,8.34-10.19,19.15-5.24a23.74,23.74,0,0,0,3.1,1.57c2.12.62,4.31,1,7.2,1.67-.66-1.85-.8-2.89-1.34-3.63-2.44-3.36-4.91-6.7-7.52-9.92-4.3-5.3-4.39-7.41-.18-12.58Z"/><path class="cls-2" d="M360,1H1V360a21.92,21.92,0,0,1-1-4.5Q0,250.58,0,145.65V0H7.74Q181.62,0,355.5,0A21.92,21.92,0,0,1,360,1Z"/><path class="cls-2" d="M171.43,126.38c-3.14-.79-6.38-1.33-9.41-2.42-15.09-5.47-29.61-5.1-44.56,1.58-16.85,7.52-28.28,19.61-34.56,36.5-6.52,17.52-5.61,35.41,4.65,50.83,11.45,17.23,27.32,29,49.47,30.58,13.24,1,24.51-1.78,34.72-10.12a20.45,20.45,0,0,1,8.69-4.16c3.36-.66,4.71,2.11,2.87,5a6.28,6.28,0,0,1-1.36,1.46c-9.44,7.87-18.86,15.74-31,19.45-10.07,3.09-20,7.11-30.7,6.78-4.59-.14-9.14-1.79-13.67-2.88C80.54,252.78,61.74,237.93,51,213a38,38,0,0,1-3.1-16.36c.19-9,.28-18-.19-27-.57-10.95,3.47-19.85,10.11-28.22,7.5-9.46,15.3-18.56,25.84-24.65,18.42-10.64,37.8-16.55,58.87-8.53,7.89,3,15.42,7,22.95,10.89,2.52,1.3,4.53,3.59,6.77,5.42Z"/><path class="cls-2" d="M249.65,164.78l-9.37,11.55c-4.21,5.17-4.12,7.28.18,12.58,2.61,3.22,5.08,6.56,7.52,9.92.54.74.68,1.78,1.34,3.63-2.89-.65-5.08-1.05-7.2-1.67a23.74,23.74,0,0,1-3.1-1.57c-10.81-4.95-12.27-4.5-19.15,5.24-1.94,2.75-4.24,5.25-6.38,7.86l-1.66-.54c0-4.87-.14-9.75,0-14.61.19-5.24-2.48-8.06-7.23-9.25-3.38-.84-6.86-1.31-10.22-2.22-1.25-.34-2.29-1.45-3.42-2.2.95-1,1.71-2.42,2.88-2.93,3.95-1.73,8-3.16,12.08-4.67,5.83-2.17,7-4.48,6.31-10.57-.43-3.9-.08-7.88-.08-13.52,2.3,2,3.69,3.07,4.87,4.33.53.56.62,1.52,1,2.27,4.92,10.7,9.86,12.51,20.51,7.55C245.56,162.68,245.56,162.68,249.65,164.78Z"/></svg>