<svg id="Layer_1" data-name="Layer 1" xmlns="http://www.w3.org/2000/svg" viewBox="0 0 361 361"><defs><style>.cls-1{fill:#ec5565;}.cls-2{fill:#57a763;}.cls-3{fill:#fcfcfc;}.cls-4{fill:#434a54;}</style></defs><title>SOUTH-AFRICA</title><path class="cls-1" d="M117,361H2V2.5a11.5,11.5,0,0,1,1.94-.45l111.9.12q0,54,.06,108c0,4,.75,7.91,1.16,11.87-.33,7.29-.91,14.58-.94,21.87q-.14,37.14.08,74.27c0,7.93.49,15.86.75,23.79a18.79,18.79,0,0,0-1,4.26q-.11,53.52,0,107.06A55.82,55.82,0,0,0,117,361Z"/><path class="cls-2" d="M117.06,122c-.41-4-1.15-7.91-1.16-11.87q-.14-54-.06-108c2.16,0,4.32-.16,6.48-.16H361V122Z"/><path class="cls-3" d="M117.06,122H361V242l-244-.07c-.26-7.93-.71-15.86-.75-23.79q-.2-37.12-.08-74.27C116.15,136.58,116.73,129.29,117.06,122Z"/><path class="cls-4" d="M117,241.93,361,242V361H117a55.82,55.82,0,0,1-1.1-7.75q-.08-53.53,0-107.06A18.79,18.79,0,0,1,117,241.93Z"/><path class="cls-3" d="M361,2H122.32c-2.16,0-4.32.11-6.48.16L3.94,2.05A11.5,11.5,0,0,0,2,2.5V361a21.92,21.92,0,0,1-1-4.5Q1,251.58,1,146.65V1H8.74Q182.62,1,356.5,1A21.92,21.92,0,0,1,361,2Z"/></svg>