<svg id="Layer_1" data-name="Layer 1" xmlns="http://www.w3.org/2000/svg" viewBox="0 0 360 360"><defs><style>.cls-1{fill:#ec5665;}.cls-2{fill:#fbf7f9;}.cls-3{fill:#5060ae;}</style></defs><title>UK</title><path class="cls-1" d="M360,156v50H211.71c-5.64,0-7.2,2-6.13,7.57a18.84,18.84,0,0,1,.36,3.43q0,65.4.06,130.81V360H156V205.77c-2.32-.29-4.28-.84-6.21-.73-11.84.71-23.61-.85-35.5-.55-35.8.93-71.63.34-107.45.34H1.29V156.2c1.36-.07,2.49-.19,3.63-.19q69.71,0,139.43,0a17.93,17.93,0,0,1,3.94.41c6.43,1.51,7.71.56,7.71-5.94q0-71.71,0-143.43V1.3h50V7.45q0,69.21.06,138.43c0,3.36.29,7.11,1.86,9.88.65,1.16,5,.25,7.66.25Z"/><path class="cls-2" d="M360,156H215.58c-2.67,0-7,.91-7.66-.25-1.57-2.77-1.85-6.52-1.86-9.88Q205.91,76.67,206,7.45V1.3H156V7.06q0,71.71,0,143.43c0,6.5-1.28,7.45-7.71,5.94a17.93,17.93,0,0,0-3.94-.41q-69.72,0-139.43,0c-1.14,0-2.27.12-3.63.19v48.63H6.84c35.82,0,71.65.59,107.45-.34,11.89-.3,23.66,1.26,35.5.55,1.93-.11,3.89.44,6.21.73V360H146c-.11-2-.33-4-.33-6,0-25.14.05-50.28,0-75.43,0-2.14-.85-4.28-1.31-6.43l.48,2c-4.64,3.62-9.7,6.83-13.87,10.94Q95.79,319.88,61,355.05c-1.32,1.33-2,3.29-3,4.95H40q38.81-38.94,77.61-77.89c7.88-7.9,15.58-16,23.85-23.46,3.2-2.89,4.63-5.72,4.57-9.81-.11-6.82,0-13.65,0-20.48,0-5.37-2.33-7.79-7.36-6a34.53,34.53,0,0,0-12.37,7.74q-61,60.18-121.72,120.66C1.8,353.47.53,356.28,1,360a21.92,21.92,0,0,1-1-4.5Q0,250.58,0,145.65V0H7.74Q181.62,0,355.5,0A21.92,21.92,0,0,1,360,1c-9.16,0-18.32-.06-27.47.08-1.67,0-3.83.4-4.92,1.47-13.36,13.22-26.51,26.67-39.83,39.93-22.54,22.42-45.19,44.72-67.69,67.18-1.64,1.63-3.29,4-3.45,6.21a145.51,145.51,0,0,0,0,18.91c.09,1.45,2,3.87,3.28,4,8.26.94,15.58,0,22.2-6.75,29.88-30.62,60.31-60.71,90.48-91,7.85-7.89,15.46-16,23.3-23.92,1-1,2.74-1.41,4.14-2.09V58c-1.52.54-3.42.69-4.5,1.71-3,2.85-5.56,6.17-8.49,9.11-22.49,22.55-45,45.05-67.89,67.93a25.3,25.3,0,0,0,2.24,1.81c.35.23,1,.09,1.47.09L360,139ZM1,1.21c0,9,.22,17.52-.1,26-.14,4,1.73,6.55,4.25,9,1.3,1.27,2.78,2.37,4.06,3.65q47.55,47.5,95.13,95a10.9,10.9,0,0,0,6.26,3.23c9.95.58,19.92.76,29.89.82,1.47,0,4-1.28,4.18-2.26a6.78,6.78,0,0,0-1.81-5.08Q108,96.79,73,62.25,44.58,34.14,16.24,6c-1.19-1.18-1.72-3-2.66-4.76ZM217.2,96.37l1.37.61a36.28,36.28,0,0,0,3.77-3.19c1.77-2,3.17-4.27,5-6.13C246,68.9,264.68,50.12,283.51,31.53c8.47-8.36,17.38-16.27,26-24.48.91-.87,1.21-2.39,1.78-3.6-1.47-.7-2.94-2-4.41-2-29.29-.14-58.59-.13-87.88-.13a6,6,0,0,0-1.79.4ZM92.83,223.6c-10.83-.45-20.37-1.11-29.92-1.2q-28.65-.27-57.3.14c-1.44,0-4.06,2.67-4.07,4.12-.25,27.14-.2,54.28-.12,81.41,0,1.12.83,3.1,1.46,3.17a5,5,0,0,0,3.7-1.36c2.4-2.52,4.29-5.53,6.74-8,19-19.13,38-38.27,57.23-57.19C76.4,239,83,234,89.11,228.5,90.33,227.41,91.14,225.86,92.83,223.6ZM145,1.75A8.29,8.29,0,0,0,143,1.28q-41.44,0-82.9.15c-1.06,0-3,1.09-3,1.58a6.09,6.09,0,0,0,1.7,3.61q34.9,34.65,69.92,69.18c3.77,3.73,7.58,7.42,11.53,11a4.58,4.58,0,0,0,3.5.95c.61-.12,1.08-1.84,1.25-2.9a24.12,24.12,0,0,0,.06-4ZM89.28,138.6c.61-1.14,1.23-2.27,1.85-3.4-1.53-.7-3.27-1.12-4.55-2.13a115.38,115.38,0,0,1-10.21-8.75Q45.59,93.66,15,62.81c-2.57-2.58-4.82-5.48-7.33-8.13a39.37,39.37,0,0,0-3.84-3.19C3,53.12,1.47,54.76,1.46,56.4c-.15,25.47-.13,50.94-.09,76.41,0,4.63,3,7.13,7.66,6.75,1.49-.13,3-.28,4.46-.3q31.9-.34,63.82-.66C81.3,138.56,85.29,138.6,89.28,138.6Z"/><path class="cls-2" d="M206,360V347.81q0-65.42-.06-130.81a18.84,18.84,0,0,0-.36-3.43c-1.07-5.61.49-7.57,6.13-7.57H360v17c-2.62-.23-5.24-.65-7.86-.66-16.82-.06-33.64-.14-50.46,0-7.09.06-14.19.55-21.27,1.1a4.34,4.34,0,0,0-3.18,2.32c-.26.79,1,2.43,2,3.2,2.22,1.71,5,2.8,7,4.72,4.85,4.73,9.29,9.89,14.07,14.7q28.65,28.77,57.4,57.44c.55-.66,1.43-1.75,2.32-2.83v22c-1.27-2-2.22-4.34-3.86-6q-20.81-20.86-41.83-41.52c-16.85-16.59-33.69-33.18-50.72-49.58-2.31-2.24-5.61-4.63-8.58-4.8-9.79-.56-19.63-.26-29.45,0-2.28.07-4.53,1.42-6.28,2,7.86,7.5,15.17,14.39,22.39,21.39,4.9,4.75,9.67,9.63,14.5,14.47L355,360H311c-.9-1.51-1.55-3.28-2.75-4.49q-43.33-43.47-86.8-86.8c-.93-.92-2.36-1.34-3.55-2-.53,1.43-1.52,2.87-1.51,4.3.06,8.08.52,16.16.56,24.25.1,19.47.06,38.94,0,58.41A43.25,43.25,0,0,1,216,360Z"/><path class="cls-1" d="M360,15c-1.4.68-3.11,1.05-4.14,2.09C348,25,340.41,33.12,332.56,41c-30.17,30.33-60.6,60.42-90.48,91-6.62,6.77-13.94,7.69-22.2,6.75-1.28-.15-3.19-2.57-3.28-4a145.51,145.51,0,0,1,0-18.91c.16-2.16,1.81-4.58,3.45-6.21,22.5-22.46,45.15-44.76,67.69-67.18,13.32-13.26,26.47-26.71,39.83-39.93,1.09-1.07,3.25-1.44,4.92-1.47C341.68.94,350.84,1,360,1Z"/><path class="cls-1" d="M1,360c-.47-3.72.8-6.53,3.54-9.25q60.9-60.28,121.72-120.66a34.53,34.53,0,0,1,12.37-7.74c5-1.78,7.34.64,7.36,6,0,6.83-.07,13.66,0,20.48.06,4.09-1.37,6.92-4.57,9.81-8.27,7.46-16,15.56-23.85,23.46Q78.79,321,40,360Z"/><path class="cls-1" d="M355,360l-98.83-99c-4.83-4.84-9.6-9.72-14.5-14.47-7.22-7-14.53-13.89-22.39-21.39,1.75-.59,4-1.94,6.28-2,9.82-.29,19.66-.59,29.45,0,3,.17,6.27,2.56,8.58,4.8,17,16.4,33.87,33,50.72,49.58q21,20.67,41.83,41.52c1.64,1.65,2.59,4,3.86,6v35Z"/><path class="cls-3" d="M216,360a43.25,43.25,0,0,0,.94-6.32c.07-19.47.11-38.94,0-58.41,0-8.09-.5-16.17-.56-24.25,0-1.43,1-2.87,1.51-4.3,1.19.65,2.62,1.07,3.55,2q43.45,43.34,86.8,86.8c1.2,1.21,1.85,3,2.75,4.49Z"/><path class="cls-3" d="M58,360c1-1.66,1.7-3.62,3-4.95Q95.88,320,131,285.11c4.17-4.11,9.23-7.32,13.87-10.94l-.48-2c.46,2.15,1.3,4.29,1.31,6.43.07,25.15,0,50.29,0,75.43,0,2,.22,4,.33,6Z"/><path class="cls-3" d="M360,303c-.89,1.08-1.77,2.17-2.32,2.83q-28.71-28.72-57.4-57.44c-4.78-4.81-9.22-10-14.07-14.7-2-1.92-4.76-3-7-4.72-1-.77-2.26-2.41-2-3.2a4.34,4.34,0,0,1,3.18-2.32c7.08-.55,14.18-1,21.27-1.1,16.82-.15,33.64-.07,50.46,0,2.62,0,5.24.43,7.86.66Z"/><path class="cls-3" d="M360,139l-77.17-.35c-.5,0-1.12.14-1.47-.09a25.3,25.3,0,0,1-2.24-1.81C302,113.87,324.52,91.37,347,68.82c2.93-2.94,5.49-6.26,8.49-9.11,1.08-1,3-1.17,4.5-1.71Z"/><path class="cls-1" d="M1,1.21H13.58c.94,1.73,1.47,3.58,2.66,4.76Q44.55,34.19,73,62.25q35,34.6,69.89,69.29a6.78,6.78,0,0,1,1.81,5.08c-.15,1-2.71,2.26-4.18,2.26-10-.06-19.94-.24-29.89-.82a10.9,10.9,0,0,1-6.26-3.23q-47.65-47.4-95.13-95C8,38.57,6.47,37.47,5.17,36.2c-2.52-2.46-4.39-5-4.25-9C1.24,18.73,1,10.24,1,1.21Z"/><path class="cls-3" d="M217.2,96.37V1.71a6,6,0,0,1,1.79-.4c29.29,0,58.59,0,87.88.13,1.47,0,2.94,1.31,4.41,2-.57,1.21-.87,2.73-1.78,3.6-8.61,8.21-17.52,16.12-26,24.48C264.68,50.12,246,68.9,227.37,87.66c-1.86,1.86-3.26,4.17-5,6.13A36.28,36.28,0,0,1,218.57,97Z"/><path class="cls-3" d="M92.83,223.6c-1.69,2.26-2.5,3.81-3.72,4.9C83,234,76.4,239,70.55,244.7c-19.22,18.92-38.22,38.06-57.23,57.19-2.45,2.46-4.34,5.47-6.74,8a5,5,0,0,1-3.7,1.36c-.63-.07-1.46-2.05-1.46-3.17-.08-27.13-.13-54.27.12-81.41,0-1.45,2.63-4.1,4.07-4.12q28.65-.42,57.3-.14C72.46,222.49,82,223.15,92.83,223.6Z"/><path class="cls-3" d="M145,1.75V80.82a24.12,24.12,0,0,1-.06,4c-.17,1.06-.64,2.78-1.25,2.9a4.58,4.58,0,0,1-3.5-.95c-4-3.54-7.76-7.23-11.53-11q-35-34.54-69.92-69.18A6.09,6.09,0,0,1,57.06,3c0-.49,1.95-1.58,3-1.58q41.45-.18,82.9-.15A8.29,8.29,0,0,1,145,1.75Z"/><path class="cls-3" d="M89.28,138.6c-4,0-8,0-12,0q-31.92.32-63.82.66c-1.49,0-3,.17-4.46.3-4.68.38-7.65-2.12-7.66-6.75,0-25.47-.06-50.94.09-76.41,0-1.64,1.53-3.28,2.35-4.91a39.37,39.37,0,0,1,3.84,3.19c2.51,2.65,4.76,5.55,7.33,8.13q30.63,30.81,61.39,61.51a115.38,115.38,0,0,0,10.21,8.75c1.28,1,3,1.43,4.55,2.13C90.51,136.33,89.89,137.46,89.28,138.6Z"/></svg>