<svg id="Layer_1" data-name="Layer 1" xmlns="http://www.w3.org/2000/svg" viewBox="0 0 360 360"><defs><style>.cls-1{fill:#fcfafa;}.cls-2{fill:#ec5666;}.cls-3{fill:#4d8bdc;}</style></defs><title>USA</title><path class="cls-1" d="M360,157v42c-2.16.05-4.33.14-6.49.14L56.12,199H1.34v60H360v42c-1.5.05-3,.14-4.49.14H1V360a21.92,21.92,0,0,1-1-4.5Q0,250.58,0,145.65V0H7.74Q181.62,0,355.5,0A21.92,21.92,0,0,1,360,1Q292.26,1,224.51,1c-14.83,0-29.66.1-44.48.15-.83,0-1.66-.15-2.49-.15Q91.11,1,4.69,1c-1.11,0-2.22.2-3.68.33V150.92c0,6,1.05,7.18,7.33,7,7.63-.16,15.26-.93,22.89-.89,12,.07,23.92.87,35.87.85,14.45,0,28.9-.67,43.36-.86,4.13-.06,8.26.75,12.39.77q19.67.12,39.32-.11c6.28-.08,12.55-.58,18.83-.88,1.83,0,3.65.15,5.48.15Z"/><path class="cls-2" d="M360,259H1.34V199H56.12l297.39.14c2.16,0,4.33-.09,6.49-.14Z"/><path class="cls-2" d="M1,360V301.14H355.51c1.5,0,3-.09,4.49-.14v59Z"/><path class="cls-2" d="M360,157H186.48c-1.83,0-3.65-.1-5.48-.15-.05-17.76-.13-35.52-.08-53.28,0-2.22.75-4.43,1.15-6.65L360,97Z"/><path class="cls-2" d="M180,1.17c14.82,0,29.65-.14,44.48-.15Q292.25,1,360,1V55q-63,0-126,0c-17.33,0-34.66.1-52,.15a7.57,7.57,0,0,1-1-2.55c-.07-13.22,0-26.44-.09-39.66C180.87,9,180.33,5.1,180,1.17Z"/><path class="cls-1" d="M182,55.16c17.33,0,34.66-.14,52-.15q63,0,126,0V97l-177.93-.09Z"/><path class="cls-3" d="M182,55.16l.06,41.75c-.4,2.22-1.15,4.43-1.15,6.65,0,17.76,0,35.52.08,53.28-6.28.3-12.55.8-18.83.88q-19.65.25-39.32.11c-4.13,0-8.26-.83-12.39-.77-14.46.19-28.91.83-43.36.86-11.95,0-23.91-.78-35.87-.85-7.63,0-15.26.73-22.89.89-6.28.14-7.33-1-7.33-7V1.35C2.47,1.22,3.58,1,4.69,1Q91.1,1,177.54,1c.83,0,1.66.1,2.49.15.3,3.93.84,7.85.87,11.78.11,13.22,0,26.44.09,39.66A7.57,7.57,0,0,0,182,55.16Zm-26.18,91.61,1.24-1.39c-.45-7.31,0-14.21,5.19-20.16,2.32-2.63-.08-6.14-3.56-5.08-5.48,1.66-7-1.52-8.87-5.26-.78-1.54-2.67-3.73-3.82-3.6a6.74,6.74,0,0,0-4.76,3.44c-1.69,4.48-4.95,5.83-9.17,6.33-1.33.16-3.46.75-3.67,1.54a5.49,5.49,0,0,0,1.06,4.38c3.31,3.69,5.09,7.48,3.8,12.66-.46,1.84.91,4.13,1.45,6.21,2.31-.81,5.21-1,6.81-2.56,2.95-2.84,5.18-2.8,8.14-.3A45.18,45.18,0,0,0,155.83,146.77Zm-53.13.43c.28-2.54.43-3.19.41-3.84-.12-6.62-1-13.28,5.15-18.35,2.19-1.81.07-5.56-2.83-4.73-5.89,1.69-8.1-1.31-10.11-5.87-.63-1.44-2.58-3.21-3.89-3.18s-3.43,1.89-3.78,3.3c-1.27,5.14-4.94,6-9.32,6.49-1.41.15-3.54.93-3.88,1.93-.4,1.17.42,3.16,1.32,4.31,3.11,4,5,8,3.54,13.28-.43,1.51.82,3.5,1.31,5.27,2-.7,4.53-.87,5.95-2.2,3.48-3.23,6.35-3.39,9.6-.24C97.72,144.87,100,145.65,102.7,147.2ZM127,97.91c.13-8.46-1.28-15.7,5.43-21.16,2.39-1.94-.56-5.07-2.77-4.41-6.29,1.85-8.24-2-10.5-6.31-.67-1.29-2.72-3.1-3.54-2.84-1.64.54-3.64,2.11-4.11,3.67-1.36,4.61-4.73,5.52-8.73,6-1.53.2-4.09.72-4.24,1.48a7.13,7.13,0,0,0,1.36,4.82c2.6,3.74,5.27,7.18,3.39,12.31-.51,1.4.51,4.77,1.4,5a7.31,7.31,0,0,0,5.73-1.31c3.57-3,6.63-2.83,10.19-.15C122.12,96.22,124.19,96.7,127,97.91ZM71.83,96.26c.44-7.37-.69-14.3,5.58-19.5,2.07-1.71-.14-4.23-2.83-3.7-4.65.9-7.53-.77-9.81-4.72-2-3.41-4.69-3.14-6.52.08-2,3.61-5.1,4.78-8.87,5.39-5.29.85-5.58,1.66-2.29,5.65,2.85,3.46,5,6.94,3,11.71-.52,1.24-.08,2.89-.08,5.42,2.56-.89,4.6-1.23,6.22-2.24,3.85-2.41,7.35-3.8,11,.36C68.14,95.67,70,95.69,71.83,96.26Zm83.54-47.38c1.63-7.89-.26-15.34,6.26-20.5,1.47-1.16-.29-4.13-2.94-3.28-4.59,1.48-7.29-1-9.8-4s-4.38-2.32-7,0a19.74,19.74,0,0,1-7.94,4.38c-4.44,1.09-4.84,3-2.22,6.13a11.37,11.37,0,0,1,2.58,11c-.39,1.44.67,3.27,1.07,4.93,1.86-.59,4-.76,5.53-1.86,3.12-2.29,6-2.35,9.06-.26C151.48,46.54,153.08,47.47,155.37,48.88ZM22.19,28.75a3.82,3.82,0,0,0,.59,1.49C26,34.49,28.27,38.85,26,44.43c-.32.8.77,3.09,1.37,3.16,1.46.16,3.49-.11,4.46-1.06,3.71-3.63,7.19-3.25,11-.33,1.07.82,2.57,1.08,3.88,1.6.45-1.34,1.38-2.71,1.28-4-.41-5.52.21-10.52,4.91-14.31a3.1,3.1,0,0,0,.57-3,3.34,3.34,0,0,0-3-1.18c-4.93,1.48-7.74-1.07-10.51-4.58a4.66,4.66,0,0,0-4.43-.89C31.23,22.4,27.1,25.44,22.19,28.75Zm31.05,95.43c-.58-.8-.72-1.14-1-1.3s-.95-.69-1.31-.58c-5.14,1.57-8.46-.14-10.62-5.1-1.1-2.51-3.88-3.54-5.46-.8-2.22,3.84-5.52,5-9.36,5.69-3.68.69-4,2-2.07,5.45s2.39,7.63,3.38,11.53a44.41,44.41,0,0,1,.72,4.76c1.61-.54,3.5-.71,4.79-1.68,3.72-2.81,7-2.8,10.55.15,1.21,1,2.9,1.41,5,2.38C48.34,136.67,46.46,129.07,53.24,124.18ZM102,47.56c.2-6.81-1.48-13.3,5.29-17.48,2.06-1.27.62-3.86-2.38-4.14a26.08,26.08,0,0,1-6.26-1c-2.91-1.05-10.78-1.36-13.47-.21a30.45,30.45,0,0,1-3.34.93c-2,.59-3.93,1.22-6.42,2A19.67,19.67,0,0,0,77.46,31c3.4,3.38,4.08,7.36,3.19,11.92-.27,1.41.25,3,.41,4.49,1.62-.4,3.45-.44,4.81-1.26C89.75,43.84,93.39,42,97.4,46,98.2,46.79,99.74,46.84,102,47.56Z"/><path class="cls-1" d="M155.83,146.77a45.18,45.18,0,0,1-6.16-3.79c-3-2.5-5.19-2.54-8.14.3-1.6,1.54-4.5,1.75-6.81,2.56-.54-2.08-1.91-4.37-1.45-6.21,1.29-5.18-.49-9-3.8-12.66a5.49,5.49,0,0,1-1.06-4.38c.21-.79,2.34-1.38,3.67-1.54,4.22-.5,7.48-1.85,9.17-6.33a6.74,6.74,0,0,1,4.76-3.44c1.15-.13,3,2.06,3.82,3.6,1.9,3.74,3.39,6.92,8.87,5.26,3.48-1.06,5.88,2.45,3.56,5.08-5.24,5.95-5.64,12.85-5.19,20.16Z"/><path class="cls-1" d="M102.7,147.2c-2.72-1.55-5-2.33-6.53-3.83-3.25-3.15-6.12-3-9.6.24-1.42,1.33-3.94,1.5-5.95,2.2-.49-1.77-1.74-3.76-1.31-5.27,1.51-5.29-.43-9.31-3.54-13.28-.9-1.15-1.72-3.14-1.32-4.31.34-1,2.47-1.78,3.88-1.93,4.38-.45,8-1.35,9.32-6.49.35-1.41,2.45-3.27,3.78-3.3s3.26,1.74,3.89,3.18c2,4.56,4.22,7.56,10.11,5.87,2.9-.83,5,2.92,2.83,4.73-6.15,5.07-5.27,11.73-5.15,18.35C103.13,144,103,144.66,102.7,147.2Z"/><path class="cls-1" d="M127,97.91c-2.77-1.21-4.84-1.69-6.39-2.86-3.56-2.68-6.62-2.84-10.19.15a7.31,7.31,0,0,1-5.73,1.31c-.89-.23-1.91-3.6-1.4-5,1.88-5.13-.79-8.57-3.39-12.31a7.13,7.13,0,0,1-1.36-4.82c.15-.76,2.71-1.28,4.24-1.48,4-.52,7.37-1.43,8.73-6,.47-1.56,2.47-3.13,4.11-3.67.82-.26,2.87,1.55,3.54,2.84,2.26,4.33,4.21,8.16,10.5,6.31,2.21-.66,5.16,2.47,2.77,4.41C125.68,82.21,127.09,89.45,127,97.91Z"/><path class="cls-1" d="M71.83,96.26c-1.79-.57-3.69-.59-4.54-1.55-3.69-4.16-7.19-2.77-11-.36-1.62,1-3.66,1.35-6.22,2.24,0-2.53-.44-4.18.08-5.42,2-4.77-.17-8.25-3-11.71-3.29-4-3-4.8,2.29-5.65,3.77-.61,6.83-1.78,8.87-5.39,1.83-3.22,4.56-3.49,6.52-.08,2.28,4,5.16,5.62,9.81,4.72,2.69-.53,4.9,2,2.83,3.7C71.14,82,72.27,88.89,71.83,96.26Z"/><path class="cls-1" d="M155.37,48.88c-2.29-1.41-3.89-2.34-5.43-3.37-3.11-2.09-5.94-2-9.06.26-1.49,1.1-3.67,1.27-5.53,1.86-.4-1.66-1.46-3.49-1.07-4.93a11.37,11.37,0,0,0-2.58-11c-2.62-3.11-2.22-5,2.22-6.13a19.74,19.74,0,0,0,7.94-4.38c2.65-2.34,4.55-2.94,7,0s5.21,5.44,9.8,4c2.65-.85,4.41,2.12,2.94,3.28C155.11,33.54,157,41,155.37,48.88Z"/><path class="cls-1" d="M22.19,28.75c4.91-3.31,9-6.35,13.45-8.9a4.66,4.66,0,0,1,4.43.89c2.77,3.51,5.58,6.06,10.51,4.58a3.34,3.34,0,0,1,3,1.18,3.1,3.1,0,0,1-.57,3c-4.7,3.79-5.32,8.79-4.91,14.31.1,1.3-.83,2.67-1.28,4-1.31-.52-2.81-.78-3.88-1.6-3.83-2.92-7.31-3.3-11,.33-1,.95-3,1.22-4.46,1.06-.6-.07-1.69-2.36-1.37-3.16,2.23-5.58-.05-9.94-3.26-14.19A3.82,3.82,0,0,1,22.19,28.75Z"/><path class="cls-1" d="M53.24,124.18c-6.78,4.89-4.9,12.49-5.36,20.5-2.1-1-3.79-1.39-5-2.38-3.57-3-6.83-3-10.55-.15-1.29,1-3.18,1.14-4.79,1.68a44.41,44.41,0,0,0-.72-4.76c-1-3.9-1.49-8.1-3.38-11.53s-1.61-4.76,2.07-5.45c3.84-.71,7.14-1.85,9.36-5.69,1.58-2.74,4.36-1.71,5.46.8,2.16,5,5.48,6.67,10.62,5.1.36-.11.91.31,1.31.58S52.66,123.38,53.24,124.18Z"/><path class="cls-1" d="M102,47.56c-2.23-.72-3.77-.77-4.57-1.57-4-4-7.65-2.15-11.53.19-1.36.82-3.19.86-4.81,1.26-.16-1.5-.68-3.08-.41-4.49.89-4.56.21-8.54-3.19-11.92a19.67,19.67,0,0,1-2.07-3.38c2.49-.79,4.45-1.42,6.42-2a30.45,30.45,0,0,0,3.34-.93c2.69-1.15,10.56-.84,13.47.21a26.08,26.08,0,0,0,6.26,1c3,.28,4.44,2.87,2.38,4.14C100.49,34.26,102.17,40.75,102,47.56Z"/></svg>