<svg id="Layer_1" data-name="Layer 1" xmlns="http://www.w3.org/2000/svg" viewBox="0 0 60 38"><defs><style>.cls-1{fill:#016fd0;}.cls-1,.cls-2{fill-rule:evenodd;}.cls-2{fill:#fff;}</style></defs><polygon class="cls-1" points="12 1 48 1 48 37 12 37 12 1 12 1"/><polygon class="cls-2" points="25.04 31.3 25.04 18.4 48 18.43 48 21.99 45.35 24.82 48 27.69 48 31.32 43.76 31.32 41.51 28.84 39.28 31.33 25.04 31.3 25.04 31.3"/><polygon class="cls-1" points="26.57 29.89 26.57 19.82 35.11 19.82 35.11 22.14 29.34 22.14 29.34 23.72 34.97 23.72 34.97 26 29.34 26 29.34 27.54 35.11 27.54 35.11 29.89 26.57 29.89 26.57 29.89"/><polygon class="cls-1" points="35.07 29.89 39.79 24.85 35.07 19.82 38.72 19.82 41.61 23.01 44.5 19.82 48 19.82 48 19.9 43.38 24.85 48 29.75 48 29.89 44.47 29.89 41.53 26.67 38.62 29.89 35.07 29.89 35.07 29.89"/><polygon class="cls-2" points="26.11 6.96 31.65 6.96 33.59 11.37 33.59 6.96 40.42 6.96 41.6 10.26 42.78 6.96 48 6.96 48 19.85 20.43 19.85 26.11 6.96 26.11 6.96"/><path class="cls-1" d="M27.16,8.36,22.69,18.41h3.07l.84-2h4.57l.84,2h3.14l-4.45-10Zm.38,5.78,1.34-3.2,1.34,3.2Z"/><polygon class="cls-1" points="35.1 18.41 35.1 8.36 39.41 8.37 41.63 14.55 43.86 8.36 48 8.36 48 18.41 45.33 18.43 45.33 11.53 42.82 18.41 40.38 18.41 37.81 11.5 37.81 18.41 35.1 18.41 35.1 18.41"/></svg>