<svg id="Layer_1" data-name="Layer 1" xmlns="http://www.w3.org/2000/svg" viewBox="0 0 60 38"><defs><style>.cls-1{fill:#6c6bbd;}.cls-2{fill:#d32011;}.cls-3{fill:#0099df;}.cls-4{fill:#110f0d;}</style></defs><polygon class="cls-1" points="34.88 24.92 25.12 24.92 25.12 7.38 34.88 7.38 34.88 24.92"/><path class="cls-2" d="M25.74,16.15A11.16,11.16,0,0,1,30,7.38a11.15,11.15,0,1,0,0,17.54,11.14,11.14,0,0,1-4.26-8.77"/><path class="cls-3" d="M48,16.15a11.15,11.15,0,0,1-18,8.77A11.16,11.16,0,0,0,30,7.38a11.15,11.15,0,0,1,18,8.77"/><path class="cls-4" d="M38.18,29.87a1.54,1.54,0,0,1,.46.08l-.2.61a1,1,0,0,0-.4-.08c-.42,0-.64.28-.64.77v1.66h-.64V30h.64v.35a.88.88,0,0,1,.78-.43Zm-2.38.66h-1v1.34c0,.3.1.5.42.5a1.2,1.2,0,0,0,.57-.17l.19.55a1.56,1.56,0,0,1-.81.23c-.76,0-1-.41-1-1.1V30.53h-.61V30h.61v-.9h.65V30h1v.58Zm-8.25.64a.76.76,0,0,1,.79-.72.73.73,0,0,1,.75.72Zm2.21.26a1.43,1.43,0,0,0-1.41-1.56,1.56,1.56,0,0,0,0,3.11,1.77,1.77,0,0,0,1.21-.42l-.32-.47a1.38,1.38,0,0,1-.86.31.82.82,0,0,1-.88-.73h2.2c0-.08,0-.16,0-.24Zm2.83-.73a1.91,1.91,0,0,0-.92-.25c-.36,0-.57.13-.57.34s.23.26.51.29l.3.05c.64.09,1,.36,1,.88s-.49,1-1.35,1a2.13,2.13,0,0,1-1.28-.38l.3-.51a1.57,1.57,0,0,0,1,.31c.44,0,.67-.13.67-.36s-.16-.26-.52-.3l-.3,0c-.66-.09-1-.39-1-.87s.48-.95,1.23-.95a2.26,2.26,0,0,1,1.21.31l-.28.52Zm7.94-.22a1.16,1.16,0,0,0-.37.07.84.84,0,0,0-.29.2.93.93,0,0,0-.2.3,1.23,1.23,0,0,0-.07.39,1.17,1.17,0,0,0,.07.38.93.93,0,0,0,.2.3.84.84,0,0,0,.29.2.94.94,0,0,0,.37.07.87.87,0,0,0,.37-.07.79.79,0,0,0,.3-.2.93.93,0,0,0,.2-.3,1.17,1.17,0,0,0,.07-.38,1.23,1.23,0,0,0-.07-.39.93.93,0,0,0-.2-.3.79.79,0,0,0-.3-.2,1.06,1.06,0,0,0-.37-.07Zm0-.61a1.66,1.66,0,0,1,.64.12,1.49,1.49,0,0,1,.84.82,1.48,1.48,0,0,1,.13.63,1.44,1.44,0,0,1-.13.62,1.49,1.49,0,0,1-.84.82,1.66,1.66,0,0,1-.64.12,1.61,1.61,0,0,1-.63-.12,1.49,1.49,0,0,1-.84-.82,1.6,1.6,0,0,1-.13-.62,1.65,1.65,0,0,1,.13-.63A1.49,1.49,0,0,1,39.9,30a1.61,1.61,0,0,1,.63-.12ZM23.79,31.43a.9.9,0,1,1,.9.94.89.89,0,0,1-.9-.94Zm2.4,0V30h-.65v.35a1.12,1.12,0,0,0-.93-.43,1.56,1.56,0,0,0,0,3.11,1.12,1.12,0,0,0,.93-.43v.36h.65Zm-3.63,1.48V31.05a1.11,1.11,0,0,0-1.16-1.18,1.15,1.15,0,0,0-1,.53,1.07,1.07,0,0,0-1-.53,1,1,0,0,0-.87.44V30h-.64v3h.65V31.26a.69.69,0,0,1,.72-.78c.43,0,.64.28.64.78v1.65h.65V31.26a.7.7,0,0,1,.73-.78c.44,0,.65.28.65.78v1.65Z"/></svg>