<svg id="Layer_1" data-name="Layer 1" xmlns="http://www.w3.org/2000/svg" viewBox="0 0 60 38"><defs><style>.cls-1{fill:#ff5f00;}.cls-2{fill:#eb001b;}.cls-3{fill:#f79e1b;}</style></defs><rect class="cls-1" x="24.05" y="9.28" width="11.9" height="19.44"/><path class="cls-2" d="M25.28,19A12.38,12.38,0,0,1,30,9.28a12.36,12.36,0,1,0,0,19.44A12.33,12.33,0,0,1,25.28,19Z"/><path class="cls-3" d="M48.82,26.66v-.4H49v-.08h-.41v.08h.16v.4Zm.79,0v-.48h-.12l-.15.34-.14-.34h-.12v.48h.09V26.3l.13.31h.09l.14-.31v.36Z"/><path class="cls-3" d="M50,19a12.36,12.36,0,0,1-20,9.72,12.36,12.36,0,0,0,2.08-17.36A12.79,12.79,0,0,0,30,9.28,12.36,12.36,0,0,1,50,19Z"/></svg>