<svg id="Layer_1" data-name="Layer 1" xmlns="http://www.w3.org/2000/svg" xmlns:xlink="http://www.w3.org/1999/xlink" viewBox="0 0 60 38"><defs><style>.cls-1{fill:url(#linear-gradient);}.cls-2{fill:url(#linear-gradient-2);}.cls-3{fill:url(#linear-gradient-3);}.cls-4{fill:url(#linear-gradient-4);}</style><linearGradient id="linear-gradient" x1="12.24" y1="19.24" x2="49.79" y2="18.99" gradientUnits="userSpaceOnUse"><stop offset="0" stop-color="#262860"/><stop offset="1" stop-color="#3c429a"/></linearGradient><linearGradient id="linear-gradient-2" x1="12.24" y1="19.14" x2="49.79" y2="18.9" xlink:href="#linear-gradient"/><linearGradient id="linear-gradient-3" x1="12.24" y1="19.03" x2="49.79" y2="18.78" xlink:href="#linear-gradient"/><linearGradient id="linear-gradient-4" x1="12.24" y1="19.12" x2="49.79" y2="18.87" xlink:href="#linear-gradient"/></defs><path class="cls-1" d="M50,25.26H47c-.11-.53-.23-1.05-.32-1.57,0-.22-.11-.31-.35-.3H42.69a.28.28,0,0,0-.31.23c-.16.49-.34,1-.53,1.48,0,.06-.11.15-.17.15H38.39c.2-.49.39-1,.59-1.43q2.1-5,4.21-10a1.47,1.47,0,0,1,1.54-1h2.65c.09.41.17.81.26,1.21l2.07,9.93c.09.42.19.84.29,1.27Zm-3.94-4.45-1-4.57h0L43.4,20.81Z"/><path class="cls-2" d="M36.88,12.54c.4.07.8.13,1.19.22s.71.2,1.1.31l-.57,2.64c-.5-.15-1-.32-1.48-.43a4.14,4.14,0,0,0-2,0,2,2,0,0,0-.77.41.7.7,0,0,0,0,1.11,5.48,5.48,0,0,0,.83.6c.66.39,1.35.74,2,1.16a3,3,0,0,1,1.42,2.11,3.76,3.76,0,0,1-1.78,3.84,6.09,6.09,0,0,1-2.87.93,10.23,10.23,0,0,1-4.18-.48l-.27-.1-.09-.06.58-2.73c.24.11.45.21.68.3a5.92,5.92,0,0,0,3.3.41,2.45,2.45,0,0,0,.85-.36.9.9,0,0,0,.1-1.48,7.84,7.84,0,0,0-1.09-.71c-.58-.36-1.2-.66-1.75-1.05a3,3,0,0,1-1.31-2.09,3.56,3.56,0,0,1,1.39-3.28,5.87,5.87,0,0,1,3.1-1.21l.19,0Z"/><path class="cls-3" d="M25.17,12.77,24.68,14Q22.35,19.5,20,25.05a.33.33,0,0,1-.35.22c-1,0-2,0-2.93,0-.21,0-.28-.07-.32-.26-.83-3.23-1.68-6.46-2.5-9.69a1.72,1.72,0,0,0-1-1.25,15.58,15.58,0,0,0-2.81-.9l-.12,0c0-.37,0-.37.36-.37H15.5A1.49,1.49,0,0,1,17.05,14l1.29,6.82.07.34c0-.08.07-.13.09-.18L21.69,13a.24.24,0,0,1,.28-.19h3.2Z"/><path class="cls-4" d="M23.88,25.26l2.67-12.49h3.24c-.13.64-.27,1.26-.4,1.88Q28.3,19.81,27.19,25c-.05.24-.13.31-.38.31-.89,0-1.78,0-2.67,0Z"/></svg>